<svg xmlns="http://www.w3.org/2000/svg" width="90.676" height="60" viewBox="0 0 90.676 60">
  <g id="sunglasses" transform="translate(0 -86.606)">
    <path id="Path_412" data-name="Path 412" d="M340.41,96.8a2.659,2.659,0,0,0,2.657-2.659,2.223,2.223,0,0,1,3.975-1.37l10.415,13.316,5.905-1.074L351.226,89.5a7.536,7.536,0,0,0-13.473,4.649A2.654,2.654,0,0,0,340.41,96.8Z" transform="translate(-277.936)" fill="#5e6551" opacity="0.4"/>
    <path id="Path_413" data-name="Path 413" d="M45.969,92.774a2.223,2.223,0,0,1,3.975,1.37,2.657,2.657,0,0,0,5.313.006A7.536,7.536,0,0,0,41.784,89.5L29.648,105.016l5.905,1.074Z" transform="translate(-24.397 0)" fill="#5e6551" opacity="0.4"/>
    <path id="Path_414" data-name="Path 414" d="M87.544,218.668,62.5,223.221a47.16,47.16,0,0,0-12.663,4.221,10.117,10.117,0,0,1-9.005,0,47.159,47.159,0,0,0-12.664-4.221l-25.04-4.553A2.656,2.656,0,0,0,0,221.282v3.58a31.32,31.32,0,0,0,4.681,16.477c3.356,5.43,11.426,13.9,22.576,13.905A22.173,22.173,0,0,0,42.986,248.7a3.382,3.382,0,0,1,4.705,0,22.174,22.174,0,0,0,15.729,6.545c11.149,0,19.22-8.476,22.576-13.905a31.323,31.323,0,0,0,4.681-16.477v-3.58A2.656,2.656,0,0,0,87.544,218.668Z" transform="translate(0 -108.637)" fill="#5e6551"/>
  </g>
</svg>
