<svg id="vuesax_bulk_add-square" data-name="vuesax/bulk/add-square" xmlns="http://www.w3.org/2000/svg" width="24" height="24" viewBox="0 0 24 24">
  <g id="add-square">
    <path id="Vector" d="M14.19,0H5.81C2.17,0,0,2.17,0,5.81v8.37C0,17.83,2.17,20,5.81,20h8.37c3.64,0,5.81-2.17,5.81-5.81V5.81C20,2.17,17.83,0,14.19,0Z" transform="translate(2 2)" fill="#fff" opacity="0.4"/>
    <path id="Vector-2" data-name="Vector" d="M8.75,4H5.5V.75A.75.75,0,0,0,4,.75V4H.75a.75.75,0,0,0,0,1.5H4V8.75a.75.75,0,0,0,1.5,0V5.5H8.75a.75.75,0,0,0,0-1.5Z" transform="translate(7.25 7.25)" fill="#fff"/>
    <path id="Vector-3" data-name="Vector" d="M0,0H24V24H0Z" fill="none" opacity="0"/>
  </g>
</svg>
