<svg xmlns="http://www.w3.org/2000/svg" width="50.585" height="60" viewBox="0 0 50.585 60">
  <g id="select" transform="translate(5.531 1.75)">
    <path id="Path_388" data-name="Path 388" d="M203.964-1.75h-7.42a1.732,1.732,0,0,0-1.732,1.732,1.732,1.732,0,0,0,1.732,1.732h7.42A1.732,1.732,0,0,0,205.7-.018,1.732,1.732,0,0,0,203.964-1.75Zm0,0" transform="translate(-185.219 0)" fill="#b28e4d"/>
    <path id="Path_389" data-name="Path 389" d="M3.621-1.75H-3.8A1.732,1.732,0,0,0-5.531-.018V7.4A1.731,1.731,0,0,0-3.8,9.134,1.732,1.732,0,0,0-2.067,7.4V1.714H3.621A1.732,1.732,0,0,0,5.353-.018,1.732,1.732,0,0,0,3.621-1.75Zm0,0" transform="translate(0)" fill="#b28e4d"/>
    <path id="Path_390" data-name="Path 390" d="M3.621,406.357H-2.067v-5.688A1.732,1.732,0,0,0-3.8,398.937a1.731,1.731,0,0,0-1.732,1.732v7.42A1.732,1.732,0,0,0-3.8,409.821h7.42a1.732,1.732,0,1,0,0-3.464Zm0,0" transform="translate(0 -370.462)" fill="#b28e4d"/>
    <path id="Path_391" data-name="Path 391" d="M402.569,7.4a1.732,1.732,0,1,0,3.464,0V-.018A1.732,1.732,0,0,0,404.3-1.75H396.88a1.732,1.732,0,0,0-1.732,1.732,1.732,1.732,0,0,0,1.732,1.732h5.688Zm0,0" transform="translate(-370.431 0)" fill="#b28e4d"/>
    <path id="Path_392" data-name="Path 392" d="M203.964,499.1h-7.42a1.732,1.732,0,0,0,0,3.464h7.42a1.732,1.732,0,1,0,0-3.464Zm0,0" transform="translate(-185.219 -463.165)" fill="#b28e4d"/>
    <path id="Path_393" data-name="Path 393" d="M497.052,198.594a1.732,1.732,0,0,0-1.732,1.732v7.421a1.732,1.732,0,1,0,3.464,0v-7.421A1.731,1.731,0,0,0,497.052,198.594Zm0,0" transform="translate(-463.154 -185.232)" fill="#b28e4d"/>
    <path id="Path_394" data-name="Path 394" d="M-3.8,209.478a1.732,1.732,0,0,0,1.732-1.732v-7.421A1.732,1.732,0,0,0-3.8,198.593a1.732,1.732,0,0,0-1.732,1.732v7.421A1.732,1.732,0,0,0-3.8,209.478Zm0,0" transform="translate(0 -185.231)" fill="#b28e4d"/>
    <path id="Path_395" data-name="Path 395" d="M437.807,460.5l-14.841-11.13a1.732,1.732,0,0,0-2.771,1.386V469.3a1.733,1.733,0,0,0,2.507,1.549l14.841-7.42a1.733,1.733,0,0,0,.265-2.935Zm0,0" transform="translate(-393.445 -416.494)" fill="#b28e4d" opacity="0.4"/>
    <path id="Path_396" data-name="Path 396" d="M557.3,725.023l-3.1,1.549,1.386,2.773a1.732,1.732,0,1,0,3.1-1.549Zm0,0" transform="translate(-517.526 -672.053)" fill="#b28e4d" opacity="0.4"/>
  </g>
</svg>
