<svg xmlns="http://www.w3.org/2000/svg" width="38.894" height="60" viewBox="0 0 38.894 60">
  <g id="g" transform="translate(-90.05 0.01)">
    <rect id="Rectangle_30" data-name="Rectangle 30" width="9.051" height="25.624" rx="4.526" transform="translate(104.971 34.366)" fill="#2b50de" opacity="0.4"/>
    <path id="Path_397" data-name="Path 397" d="M127.675,5.071h-5.782a2.782,2.782,0,0,0-2.476-1.515h-2.68a2.828,2.828,0,0,1-2.227-1.112,6.348,6.348,0,0,0-10.026,0,2.826,2.826,0,0,1-2.227,1.112h-2.68A2.782,2.782,0,0,0,97.1,5.071H91.319a1.269,1.269,0,0,0,0,2.538H97.1a2.782,2.782,0,0,0,2.476,1.515h2.68a2.828,2.828,0,0,1,2.227,1.112,6.348,6.348,0,0,0,10.026,0,2.826,2.826,0,0,1,2.227-1.112h2.68a2.782,2.782,0,0,0,2.476-1.515h5.782a1.269,1.269,0,0,0,0-2.538ZM109.5,9.858a3.543,3.543,0,1,1,3.543-3.543A3.542,3.542,0,0,1,109.5,9.858Z" fill="#2b50de"/>
    <path id="Path_398" data-name="Path 398" d="M154.905,126.63a9.221,9.221,0,0,0-6.567-6.826,40.891,40.891,0,0,0-15.937,0,9.219,9.219,0,0,0-6.567,6.826,71.14,71.14,0,0,0,0,21.422,9.219,9.219,0,0,0,6.567,6.826q.642.134,1.393.261V143.974a6.574,6.574,0,1,1,13.148,0v11.165q.751-.127,1.393-.261a9.219,9.219,0,0,0,6.567-6.826,71.141,71.141,0,0,0,0-21.422Zm-21.945,5.307a1.265,1.265,0,0,1-.9.936,5.309,5.309,0,0,1-1.093.108,5.237,5.237,0,0,1-1.093-.108,1.267,1.267,0,0,1-.9-.936,23.241,23.241,0,0,1-.111-2.767,22.957,22.957,0,0,1,.111-2.767,1.265,1.265,0,0,1,.9-.936,5.309,5.309,0,0,1,1.093-.108,5.237,5.237,0,0,1,1.093.108,1.267,1.267,0,0,1,.9.936,24.4,24.4,0,0,1,.111,2.767A22.936,22.936,0,0,1,132.96,131.937Zm18.806,0a1.265,1.265,0,0,1-.9.936,5.309,5.309,0,0,1-1.093.108,5.237,5.237,0,0,1-1.093-.108,1.267,1.267,0,0,1-.9-.936,23.236,23.236,0,0,1-.111-2.767,22.952,22.952,0,0,1,.111-2.767,1.265,1.265,0,0,1,.9-.936,5.309,5.309,0,0,1,1.093-.108,5.237,5.237,0,0,1,1.093.108,1.267,1.267,0,0,1,.9.936,24.4,24.4,0,0,1,.111,2.767A22.933,22.933,0,0,1,151.766,131.937Z" transform="translate(-30.873 -105.081)" fill="#2b50de"/>
  </g>
</svg>
