<svg xmlns="http://www.w3.org/2000/svg" width="72.503" height="60" viewBox="0 0 72.503 60">
  <g id="brake" transform="translate(0 -44.16)">
    <path id="Path_408" data-name="Path 408" d="M239.885,44.187a6.683,6.683,0,0,0-6.6,5.686H219.915L209.888,44.86a6.7,6.7,0,0,0-5.968,0l-1.138.569,7.2,14.4,5.374,2.688a6.7,6.7,0,0,0,2.986.7H234.2C246.182,63.568,252.006,45.331,239.885,44.187Z" transform="translate(-174.075)" fill="#26a2c9"/>
    <path id="Path_409" data-name="Path 409" d="M4.851,118.777a6.4,6.4,0,0,1,.361-2.124H2.124A2.124,2.124,0,0,0,0,118.777v9.1A2.124,2.124,0,0,0,2.124,130H5.216a6.341,6.341,0,0,1-.365-2.124Z" transform="translate(0 -62.231)" fill="#26a2c9"/>
    <path id="Path_410" data-name="Path 410" d="M80.077,66.543,65.44,73.861a2.124,2.124,0,0,0-1.174,1.9v9.1a2.124,2.124,0,0,0,2.124,2.124h5.244a2.418,2.418,0,0,1,2.393,2.028l1.641,9.845a2.124,2.124,0,0,0,2.095,1.775h9.1a2.123,2.123,0,0,0,1.5-.622l2.231-2.23a6.663,6.663,0,0,0,1.251-7.7Z" transform="translate(-55.168 -19.215)" fill="#26a2c9"/>
    <path id="Path_411" data-name="Path 411" d="M146.724,335.127a6.4,6.4,0,0,1-2.124-.362V351.5a2.124,2.124,0,0,0,2.124,2.124h9.1a2.124,2.124,0,0,0,2.124-2.124V334.765a6.378,6.378,0,0,1-2.124.361Z" transform="translate(-124.129 -249.465)" fill="#26a2c9" opacity="0.4"/>
  </g>
</svg>
