<svg id="vuesax_bulk_category-2" data-name="vuesax/bulk/category-2" xmlns="http://www.w3.org/2000/svg" width="24" height="24" viewBox="0 0 24 24">
  <g id="category-2">
    <path id="Vector" d="M5.23,0H3.33A2.976,2.976,0,0,0,0,3.33v1.9A2.976,2.976,0,0,0,3.33,8.56h1.9A2.976,2.976,0,0,0,8.56,5.23V3.33A2.976,2.976,0,0,0,5.23,0Z" transform="translate(13.44 2)" fill="#b28e4d" opacity="0.4"/>
    <path id="Vector-2" data-name="Vector" d="M5.24,0H3.34A2.979,2.979,0,0,0,0,3.33v1.9A2.979,2.979,0,0,0,3.33,8.57h1.9A2.976,2.976,0,0,0,8.56,5.24V3.34A2.968,2.968,0,0,0,5.24,0Z" transform="translate(2 13.43)" fill="#b28e4d" opacity="0.4"/>
    <path id="Vector-3" data-name="Vector" d="M8.58,4.29A4.29,4.29,0,1,1,4.29,0,4.29,4.29,0,0,1,8.58,4.29Z" transform="translate(2 2)" fill="#b28e4d"/>
    <path id="Vector-4" data-name="Vector" d="M8.58,4.29A4.29,4.29,0,1,1,4.29,0,4.29,4.29,0,0,1,8.58,4.29Z" transform="translate(13.42 13.42)" fill="#b28e4d"/>
    <path id="Vector-5" data-name="Vector" d="M0,0H24V24H0Z" fill="none" opacity="0"/>
  </g>
</svg>
