<svg id="vuesax_bulk_filter-search" data-name="vuesax/bulk/filter-search" xmlns="http://www.w3.org/2000/svg" width="24" height="24" viewBox="0 0 24 24">
  <g id="filter-search">
    <path id="Vector" d="M0,0H24V24H0Z" transform="translate(24 24) rotate(180)" fill="none" opacity="0"/>
    <path id="Vector-2" data-name="Vector" d="M8.63,7.41l-.85-.85a4.2,4.2,0,0,0,.7-2.32A4.24,4.24,0,1,0,4.24,8.48a4.175,4.175,0,0,0,2.32-.7l.85.85a.869.869,0,0,0,1.22,0A.875.875,0,0,0,8.63,7.41Z" transform="translate(11.12 8)" fill="#4d3c1c"/>
    <path id="Vector-3" data-name="Vector" d="M2,0H15.17a2.017,2.017,0,0,1,2,2.02V4.24a3.763,3.763,0,0,1-1,2.32L11.88,10.4a3.32,3.32,0,0,0-1,2.32v4.34a2.267,2.267,0,0,1-.9,1.72l-1.4.91a2.029,2.029,0,0,1-3.09-1.72V12.62a3.9,3.9,0,0,0-.8-2.12L.9,6.46A3.366,3.366,0,0,1,0,4.44V2.12A2.054,2.054,0,0,1,2,0Z" transform="translate(3.41 2)" fill="#4d3c1c" opacity="0.4"/>
  </g>
</svg>
