<svg xmlns="http://www.w3.org/2000/svg" width="202.633" height="284.27" viewBox="0 0 202.633 284.27">
  <g id="Group_4809" data-name="Group 4809" transform="translate(-157.51 -278.1)">
    <path id="Path_3" data-name="Path 3" d="M289.913,410.79,274.9,425.764l5.767,14.292,16.343,1.415-.728-25.032Z" transform="translate(-40.47 -45.745)" fill="#1d1d1b"/>
    <path id="Path_4" data-name="Path 4" d="M252.317,576.88l-10.2,14.607-4.594,28.892,6.56,16.664,12.936,1.946,9.7-7.071,4.685-16.441L265.691,582.8Z" transform="translate(-27.577 -102.989)" fill="#1d1d1b"/>
    <g id="Group_4799" data-name="Group 4799" transform="translate(157.51 278.1)">
      <path id="Path_1" data-name="Path 1" d="M349.179,354.8s14.574-10.17,21.428-19.731,15.661-22.516,11.494-44.881c0,0,9.3,9.207,3.545,24.488,0,0,14.076-20.124,16.953-36.578,0,0,6.6,9.79-10.177,41.506a51.184,51.184,0,0,0,24.167-29.665,50.833,50.833,0,0,1-20.347,40.124l-2.458,4.594s2.536-2.1,5.144-4.318l2.608-2.221s-4.22,6.6-9.613,9.272c0,0,13.912,4.214,28.243-21.205,0,0,5.891,20.786-24.416,31.494l-3.172,2.529a8.551,8.551,0,0,0,6.088-.865,46.759,46.759,0,0,0,6.356-4.652s-1.278,3.034-2.739,3.925l-1.461.891a29.622,29.622,0,0,0,7.673-5.367c3.047-3.2,3.283-3.407,3.283-3.407s-5.957,8.512-8.368,9.777-2.634,1.376-2.634,1.376,4.489-1.029,5.95-1.933,1.75-1.134,1.75-1.134a19.36,19.36,0,0,1-7.562,5.033c-4.26,1.317-10.911,1.232-11.382,1.16s2.281,1.186,9.174,1.055,20.432-5.9,20.432-5.9a64.044,64.044,0,0,1-5.164,3.873c-.976.465,1.946-.583,4.148-2.09l2.2-1.507a44.042,44.042,0,0,1-5.577,7.706c-2.942,3.014-8.624,5.373-8.624,5.373s4.921-.19,7.13-1.651,2.215-1.461,2.215-1.461-3.309,3.866-10.635,4.62a49.316,49.316,0,0,1-14.01-.734s3.146,2.5,5.858,2.313,4.01-.393,4.01-.393l-3.067,1.1s.97,1.33,6.986.387a18.626,18.626,0,0,0,9.364-4.122,8.234,8.234,0,0,1-4.122,4.194,20.793,20.793,0,0,0,5.406-3.185l2.051-1.867s-2.857,7.909-11.232,9.954-9.554-.6-9.554-.6,3.978,4.987,13.938,5.976c0,0-.564.5-2.13.282,0,0,5.872,5.125,17.745,4.279,0,0-5.924,5.137-17.739,2.346s-15.76-5.275-15.76-5.275,6.068,4.568,8.467,5.413l2.392.852-5.511-1.605s4.672,3.493,7.6,4.292l2.929.806-6.553-1.369s-1.186.623,6.442,2.8,8.178,2.182,8.178,2.182-9.843,2.2-13.847.78-19.914-13.676-19.914-13.676,8.093,11.861,10.269,14.764a44.562,44.562,0,0,0,6.54,7.2l5.354,3.958-5.491-.255s-7.549-.243-13.479-8.512-8.4-13.82-10.917-17.5-4.168-4.03-4.168-4.03,5.747,13.84,6.579,16.677,5.013,10.426,8.9,12.877l3.886,2.451s-5.426-.02-12.306-7.175-8.7-15.249-10.039-17.588-3.722-5.708-3.722-5.708a89.905,89.905,0,0,0,4.45,13.493c2.392,5.065,3.3,6.376,3.506,6.573a57.839,57.839,0,0,1-7.883-8.237c-2.837-3.945-6.566-10.957-8.951-12.162C352.862,375.791,347.3,360.792,349.179,354.8Z" transform="translate(-223.445 -278.1)" fill="#4d3c1c"/>
      <path id="Path_2" data-name="Path 2" d="M241.184,365.709s-16.946-5.361-26.336-12.444-21.664-16.828-24.351-39.409c0,0-6.133,11.559,3.919,24.436,0,0-19.436-15.013-27.083-29.862,0,0-3.381,11.317,22.09,36.585A51.19,51.19,0,0,1,157.51,323.9a50.836,50.836,0,0,0,31.382,32.234l3.716,3.65s-3.047-1.252-6.2-2.588l-3.152-1.344s6,5.046,11.939,5.983c0,0-12.018,8.172-33.276-11.822,0,0,.57,21.592,32.7,22.785l3.781,1.468a8.555,8.555,0,0,1-6.075.989,46.955,46.955,0,0,1-7.457-2.549s2.123,2.516,3.788,2.929l1.664.413a29.719,29.719,0,0,1-8.919-2.831c-3.853-2.143-4.155-2.274-4.155-2.274s8.224,6.349,10.9,6.834,2.929.524,2.929.524-4.594.354-6.252-.072-2.005-.557-2.005-.557a19.348,19.348,0,0,0,8.715,2.549c4.456-.013,10.78-2.077,11.212-2.287s-1.828,1.809-8.447,3.742-21.258.465-21.258.465a63.2,63.2,0,0,0,6.088,2.156c1.075.157-2.031.026-4.581-.76l-2.549-.78a43.85,43.85,0,0,0,7.615,5.688c3.7,2,9.829,2.562,9.829,2.562s-4.751,1.284-7.3.55l-2.549-.734s4.312,2.706,11.533,1.239a49.481,49.481,0,0,0,13.152-4.875s-2.254,3.329-4.9,3.951-3.945.819-3.945.819l3.25.138s-.524,1.56-6.553,2.451a18.663,18.663,0,0,1-10.17-1.14,8.228,8.228,0,0,0,5.19,2.772,20.935,20.935,0,0,1-6.107-1.428l-2.516-1.173s5.085,6.7,13.689,6.153,8.945-3.421,8.945-3.421-2.307,5.944-11.527,9.862c0,0,.688.315,2.117-.367,0,0-4.076,6.638-15.661,9.377,0,0,7.189,3.139,17.627-3.047s13.466-9.731,13.466-9.731-4.436,6.166-6.461,7.693l-2.031,1.527,4.784-3.172s-3.421,4.725-5.976,6.369l-2.556,1.645,5.845-3.264s1.317.243-5.315,4.6-7.156,4.521-7.156,4.521,10.052-.838,13.453-3.381,14.934-19,14.934-19-4.187,13.735-5.4,17.156a45.072,45.072,0,0,1-4.1,8.82l-3.932,5.373,5.17-1.88s7.136-2.484,10.328-12.143,3.906-15.694,5.2-19.96,2.779-5.092,2.779-5.092-1.363,14.928-1.3,17.883-1.677,11.448-4.659,14.947l-2.975,3.5s5.177-1.638,9.613-10.517,3.755-17.143,4.338-19.783,1.854-6.559,1.854-6.559a89.777,89.777,0,0,1-.223,14.207c-.773,5.55-1.252,7.071-1.389,7.319a58.252,58.252,0,0,0,5.065-10.209c1.533-4.613,3-12.418,4.921-14.279C243.924,386.842,244.762,370.866,241.184,365.709Z" transform="translate(-157.51 -288.552)" fill="#4d3c1c"/>
      <g id="Group_6" data-name="Group 6" transform="translate(51.244 40.07)">
        <path id="Path_11" data-name="Path 11" d="M249.64,568.923c9.115,4.908,17.09-5.085,19.875-9.882,3.473-6,8.624-19.207,7.5-26.67,0,0,2.418.943,5.721-2.307,0,0,12.143,1.3,14.174,1.736s8.859-.085,9.476-.314,3.545-3.5,3.545-3.5,1.16,7.392.858,8.774a2.426,2.426,0,0,0,.708,2.582c.439.249,1.5.518,1.658,1.088s.872,1.612,1.048,2.241a12.922,12.922,0,0,0,.714,2.149c.243.426.354,1.756.668,2.222s1.147.8,1.579,1.481a15.442,15.442,0,0,0,1.252,1.88c.236.184,3.952-.9,3.952-.9s.99,8.8,1.645,13.676,1.691,13.6,2.542,15.6,4.489,5.124,6.815,4.613,5.19-.865,5.315-8.3-1.409-27.686-1.409-27.686l-.1-7.562a8.76,8.76,0,0,1,1.736,1.376,4.423,4.423,0,0,0,2.995,1.029c.878-.177,2.189-.354,2.228-1.1s.223-3.021.223-3.021.728-.262.754-.635.007-1.546.007-1.546.891.557,1.088.137a11.064,11.064,0,0,0-.118-2.68s-1.1-7.162-1.376-10.668-3.866-28.99-3.866-28.99-.361-1.317-.99-1.579l-1.75-11.8,5.55-9.482s1.094-.734-.013-2.529-4.083-8.813-4.083-8.813a25.64,25.64,0,0,0-2.32-2.385s-.675-3.578-1.114-4.076a5.074,5.074,0,0,0-1.953-.826s1.71-6.147,1.7-6.88-2.208-5.812-2.274-6.723.229-8.394.845-9.98,1.376-2.412-.8-2.929c0,0,3.171-2.162,4.312-2.293a8.7,8.7,0,0,1,3.44.17c1.638.354,4,1.311,4.738,1.54s1.605.236,1.966.635,4.561-.013,5.6-.295,2.693-2.1,4.259-2.031a5.38,5.38,0,0,0,2.962-.439c.472-.314,1.33-1.723,1.756-2.025s.085.3.865.459,2.425.079,2.267-1.18-.341-1.573-1.252-1.691c0,0,.013-.282.917-.531a14.99,14.99,0,0,1,2.287-.256c.216-.059.937-1.134.328-2.864a8.962,8.962,0,0,0-2.8-4.142c-.93-.531-2.988-.1-3.716-.046a9.291,9.291,0,0,1-2.949-.118,2.931,2.931,0,0,0-2.326.636c-.125.216-1.029,1.809-1.461,1.926a3.322,3.322,0,0,1-1.808-.013c-.57-.216-2.523-.931-2.7-1.068s-3.375-2.359-3.958-2.8-3.617-2.9-3.794-3.034-2.87-3.054-3.159-4.089-4.384-11.107-4.764-12.483-2.654-2.929-3.453-4.331-2.9-6.193-5.445-8.224-5.754-4.627-5.754-4.627,1.953-5.714,1.8-7.621,1.383-4.915,1.428-5.76a10.331,10.331,0,0,0-.269-3.86c-.452-.983-1.481-5.243-1.861-6.619a15.438,15.438,0,0,0-6.481-7.11,27.053,27.053,0,0,0-9.037-2.248,11.006,11.006,0,0,0-8.361,2.752c-2.064,2.09-5.124,6.12-5.576,8.375s-.682,5.458-.714,5.839-.3,2.949-.537,4.128a14.376,14.376,0,0,0,.3,4.823,14.112,14.112,0,0,0,.446,1.638s-9.849,2.746-11.933,3.729-7.116,5.786-8.591,7.162-7.143,7.045-7.772,7.772a52.672,52.672,0,0,1-5.288,3.67c-.747.485-1.514,2.4-1.979,3.414s-.406,2.562-.826,3.237-1.12,1.324-.9,2.1-.249,2.981-.21,3.624a48.271,48.271,0,0,0,1,5.184c.354,1.291,1.37,6.192,1.468,6.54s.439,1.592.6,2.2,2.418,1.048,2.759,1.468a8.1,8.1,0,0,0,2.294,1.776c.721.262,1.422.118,1.756.675a4.545,4.545,0,0,0,.767.944,7.493,7.493,0,0,0-.583,1.92,2.347,2.347,0,0,0,.229,1.186s-.78.354-.878.845.393,2.949.8,2.929a13.572,13.572,0,0,0,1.658-.36s.629.616.282.852-2.582.708-2.3,2.248,2.346.793,2.536.649,2.536-.878,2.536-.878-.57,5.183-.767,6.6a53.611,53.611,0,0,0,.5,12.543s-9.535-1.37-13.093-1.507-8.925.871-9.128,1.481,2.844,2.274,4.1,3.132a38.254,38.254,0,0,1,3.532,3.106s-2.3,8.5-1.16,12.994,4.948,17.064,6.022,18.617c0,0-5.812-.5-11.579,5.7s-12.083,20.773-11.212,42.188S240.525,564.015,249.64,568.923Zm83.229-149.65c-.347.531-3.191.072-3.191.072s-.917-1.108-.472-1.724,2.9-1.108,2.9-1.108S333.217,418.749,332.869,419.274Zm-3.008,1.75a4.1,4.1,0,0,1,1.979-.544,4.481,4.481,0,0,1,2.4,1.317,5.676,5.676,0,0,1-1.108.917,4.788,4.788,0,0,1-2.765.138C329.527,422.6,329.861,421.023,329.861,421.023ZM313.793,417.9s1.986-3.231,2.425-4,2.516-5.688,2.942-6.822.9-4.135,1.5-4.666a3.773,3.773,0,0,1,1.979-.544,18.529,18.529,0,0,0,1.114,3.394,9.7,9.7,0,0,0,1.389,2.025c.511.511,2.149,2.1,2.68,2.693s1.219,2.071,2.248,2.811a4.89,4.89,0,0,1,1.4,1.376,21.842,21.842,0,0,1-2.1,2.15c-.256.072-2.248.242-3.611.341S313.793,417.9,313.793,417.9Zm-47.417-12.07a7.748,7.748,0,0,1,.229-2.779c.059-.452.485-.255.95-.812s.885-1.723,1.455-2.123,2.326-1.874,3.617-2.779a6.8,6.8,0,0,0,1.992-2.641s-.616,4.056-.832,4.856a31.228,31.228,0,0,1-1.6,3.184c-.229.524-1.356.9-1.887,1.658a12.425,12.425,0,0,0-.812,3.558,7.094,7.094,0,0,0-.354,2.995l-.446-.5A25.336,25.336,0,0,1,266.376,405.827Zm-12.313,105.8-1.861,4.024-2.556-3.25C251,512.155,254.063,511.624,254.063,511.624Zm2.326-9.089a1.656,1.656,0,0,0-.236,1.173,12.167,12.167,0,0,1,.819,2.307c-.066.452-.511,2.425-.511,2.425l-3.925.767S254.876,504,256.39,502.535ZM245.676,543.17s6.658,1.324,11.455-6.16c0,0,6.33-.315,6.12-7.844,0,0,1.238-1.324,1.415-.02s-2.123,15.452-5.039,19.455-4.954,5.118-6.612,4.463S248.081,548.124,245.676,543.17Z" transform="translate(-235.706 -339.247)" fill="#4d3c1c"/>
        <g id="Group_5" data-name="Group 5" transform="translate(1.187 1.519)">
          <path id="Path_12" data-name="Path 12" d="M329.123,394.39a38.189,38.189,0,0,0,5.367,4.948,8.033,8.033,0,0,0,5.826,1.337c2.1-.328,2.9-3.7,4.174-4.476a7.7,7.7,0,0,0,2.156-2.254s-1.782.485-2.87.786a4.857,4.857,0,0,1-2.739-.544,50.98,50.98,0,0,0,5.393-.8c.544-.275,1.684-2.189,2.962-4.515a11.211,11.211,0,0,0,1.357-4.508l-.144.6a1.369,1.369,0,0,1-.819.839l.288-.76a16.874,16.874,0,0,0,.328-3.309s-1.54,4.751-2.313,5.518-1.972.911-3.788,1.035-1.972-.446-3.112-1-2.412-.02-3.794.111a16.765,16.765,0,0,1-6.789-.668,10.529,10.529,0,0,1-4.554-3.565s1.193,6.277,4.345,8.433,8.84,2.208,8.84,2.208a20.265,20.265,0,0,1-5.334.347,20.324,20.324,0,0,1-4.279-1.664,18.283,18.283,0,0,0,2.8,2.47c1.232.773,3.584,4.292,3.584,4.292C333.291,398.119,329.123,394.39,329.123,394.39Zm8.65-1.861a12.588,12.588,0,0,1-3.7-.845,6.951,6.951,0,0,1-2.058-1.606s3.742.826,4.836,1.265S337.773,392.529,337.773,392.529Zm4.652-.256a3.909,3.909,0,0,1,2.084-1.356,10.855,10.855,0,0,1,2.438.118,12.891,12.891,0,0,1-1.92.944A4.157,4.157,0,0,1,342.426,392.274Zm-5.773,4.449a7.12,7.12,0,0,0-.6-1.363s1.92-.249,2.647-.308,2.641.019,2.641.019a9.587,9.587,0,0,1-1.271,3.126,6.066,6.066,0,0,1-2.647.125C336.948,398.125,336.823,397.326,336.653,396.723Z" transform="translate(-268.035 -355.41)" fill="#b28e4d"/>
          <path id="Path_13" data-name="Path 13" d="M322.763,381.52s1.376,3.834,1.815,5.288a5.149,5.149,0,0,0,1.52,2.687,19.566,19.566,0,0,0,2.549,2.215,6.212,6.212,0,0,1-3.2-1.206c-1.619-1.18-2.733-3.9-3.263-5.144S322.986,382.156,322.763,381.52Z" transform="translate(-266.661 -355.338)" fill="#b28e4d"/>
          <path id="Path_14" data-name="Path 14" d="M347.027,373.917s-.1,4.607-.3,5.406-.891.472-1.075.478a6.958,6.958,0,0,0-.911.249s.76-6.042.688-6.3A4.663,4.663,0,0,1,347.027,373.917Z" transform="translate(-274.477 -352.656)" fill="#b28e4d"/>
          <path id="Path_15" data-name="Path 15" d="M353.536,375.33a44.785,44.785,0,0,1-1.3,5.537,25.664,25.664,0,0,1-1.042,2.785s.734-.2,1.12-.308S353.837,377.283,353.536,375.33Z" transform="translate(-276.701 -353.204)" fill="#b28e4d"/>
          <path id="Path_16" data-name="Path 16" d="M348.86,380.527s.878-3.709.983-4.849a10.224,10.224,0,0,0,.059-1.638l1.357.046a14.64,14.64,0,0,1-.852,2.641C350,377.441,348.86,380.527,348.86,380.527Z" transform="translate(-275.898 -352.759)" fill="#b28e4d"/>
          <path id="Path_17" data-name="Path 17" d="M334,373.649l-1.409-.079s-.655,3-.367,4.083a9.089,9.089,0,0,0,1.134,2.28,9.28,9.28,0,0,1-.793-3.067A11.478,11.478,0,0,1,334,373.649Z" transform="translate(-270.137 -352.598)" fill="#b28e4d"/>
          <path id="Path_18" data-name="Path 18" d="M321.84,359.419s1.7-2.084,2.844-1.1,2.4,1.009,5.747,1.389,10.36,1.33,14.81,1.868,5.917-.695,5.917-.695a9.689,9.689,0,0,0,.374-2.038,8.408,8.408,0,0,1-1.92.793l1.4.36a14.591,14.591,0,0,1-4.692.269c-2.8-.249-3.617-1.049-3.617-1.049,2.182,1.068,4.987-.21,4.987-.21a19.832,19.832,0,0,1-3.014-.19c-1.219-.223-9.771-1.533-9.771-1.533s3.945.216,6.239.649c2.274.433,10.255.891,10.393.9a5.6,5.6,0,0,0-.164-2.077c-.3-.937-.662-3.106-1.134-4.823a38.647,38.647,0,0,0-1.311-3.762s-.052,3.021-.557,3.532-1.383.517-3.191.688-1.8.865-1.8.865.793,1.035,1.448,1.73a4.227,4.227,0,0,0,3.067,1.055c1.147-.039,1.9-1.677,1.9-1.677s-.786,2.529-1.658,2.719a3.31,3.31,0,0,1-2.241-.36,14.87,14.87,0,0,0-3.355-.655,5.252,5.252,0,0,0-2.9.236s-1.992-3.388-2.614-3.794-3.991-.551-4.974-1.068-.825-1.022-.825-1.022a19.907,19.907,0,0,1,2.215.642,5.345,5.345,0,0,0,2.516.144s-3.748-1.429-4.462-1.835-.623-2.28-.623-2.28,2.936,1.232,4.214,1.855,4.43.452,4.43.452-2.883-.229-3.716-1.389a5.665,5.665,0,0,1-.983-2.411c-.3-.937-1.619-2.706-1.953-3.584s-2.222-.177-2.222-.177,1.822,2.929,1.088,3.126-2.837-.059-4.371.6-2.824,3.04-3.735,4.449-1.239,4.272-1.455,5.675S321.84,359.419,321.84,359.419Zm9.423-6.979c1.1,1.645,4.246,2.169,5.662,2.339,1,.118,1.048-.373,1-.682l-.059-.223a1.138,1.138,0,0,1,.059.223l.767,2.792s-3.08-.085-3.827-.616A51.192,51.192,0,0,1,331.263,352.44Zm-5.524,6.186s.19-.328,2.012-.6a6.526,6.526,0,0,1,2.536-.046l-1.769-1.553a20.216,20.216,0,0,0,2.031.924c1.488.609,5.3,1.7,5.3,1.7a21.266,21.266,0,0,1-5.681-.478A18.246,18.246,0,0,0,325.739,358.626Zm-2.392-4.521c-.308-1.625,2.11-4.463,2.11-4.463s-.977,3.689-.465,4.9,2.175.675,2.175.675a19.012,19.012,0,0,1-2.883.793C323.721,355.985,323.648,355.729,323.347,354.1Z" transform="translate(-266.584 -341.565)" fill="#b28e4d"/>
          <path id="Path_19" data-name="Path 19" d="M342.83,350.887s3.925,1.238,5.38.976,2.975-1.14,3.021-2.49-1.37-4.993-1.37-4.993,1.632.2,1.8.662a29.33,29.33,0,0,1,1.284,4.692c.079,1.134-.151,2.169.636,1.907s1.566-1.815,1.566-1.815.111,2.1-.629,2.438a7.206,7.206,0,0,1-2.68.734c-.387-.124-1.337.551-1.894.845s-4.659-.531-5.432-1.147A12.679,12.679,0,0,1,342.83,350.887Z" transform="translate(-273.819 -342.536)" fill="#b28e4d"/>
          <path id="Path_20" data-name="Path 20" d="M355.035,374.177s3.25-.072,3.6.3-.5,4.122-1.225,5.21A13.108,13.108,0,0,1,354,383.024l-1.16.721s4.135-4.279,4.437-5.1S356.838,374.773,355.035,374.177Z" transform="translate(-277.27 -352.805)" fill="#b28e4d"/>
          <path id="Path_21" data-name="Path 21" d="M343.395,386.94s-.505-1.959-.885-1.887-1.114.891-1.887,1.225a6.87,6.87,0,0,1-4.286,0A15.118,15.118,0,0,1,333.46,385a12.205,12.205,0,0,0,2.49,1.815,7.679,7.679,0,0,0,3.834.216,3.917,3.917,0,0,1,1.723.426C341.743,387.543,343.119,387.969,343.395,386.94Z" transform="translate(-270.589 -356.538)" fill="#b28e4d"/>
          <path id="Path_22" data-name="Path 22" d="M323.544,368.49a8.581,8.581,0,0,0-.38,3.342c.236,1.461.878,3.715.878,3.715s-1.494-3.434-1.7-4.187S321.637,369.289,323.544,368.49Z" transform="translate(-266.682 -350.846)" fill="#b28e4d"/>
          <path id="Path_23" data-name="Path 23" d="M325.03,370.03a8.845,8.845,0,0,0-.2,2.136,24.214,24.214,0,0,0,.57,3.27l-.183-2.7s.269,1.822.537,2.975a13.706,13.706,0,0,0,.97,2.536s-1.258-3.5-1.107-5.065A6.991,6.991,0,0,0,325.03,370.03Z" transform="translate(-267.612 -351.377)" fill="#b28e4d"/>
          <path id="Path_24" data-name="Path 24" d="M410.69,458.88s4.22.374,6.022.708,6.979.308,7.8.78,1.442,1.042.845,1.389-.452.544-1.481-.013a9.323,9.323,0,0,0-3.65-.485c-.891-.033-5.432-.406-5.826-.485S410.69,458.88,410.69,458.88Z" transform="translate(-297.211 -382.004)" fill="#b28e4d"/>
          <path id="Path_25" data-name="Path 25" d="M403.26,453.28s-5.452,1.055-6.553,1.252a1.831,1.831,0,0,0-1.468,2.241c.262.95.714,1.428-.066,1.8s-1.854.157-1.776,1.107a4.432,4.432,0,0,0,.59,2.15,2.327,2.327,0,0,0,2.255.977c.314-.2,1.029-1.317,1.153-1.357s3.506-.727,4.01-.911.609-2.169.446-2.418a9.279,9.279,0,0,1,.21-2.11c.007-.328.21-1.769.21-1.769S403.332,453.863,403.26,453.28Z" transform="translate(-291.249 -380.074)" fill="#b28e4d"/>
          <path id="Path_26" data-name="Path 26" d="M396.839,437.383s-5.02-3.807-6.048-4.685-3.473-4.233-4.148-5.02S383.923,424,383.923,424l2.68,2.53s-1.035-3.093-1.533-4.069-1.645-5.334-2.169-6.4a9.964,9.964,0,0,0-.878-1.52s.682,2.824.354,3.833-1.16.321-1.979-.983-2.627-3.676-2.627-3.676,3.04,6.2,3.394,7.49-.02,3.473-.347,3.63-2.8,2.785-2.8,2.785,2.4-1.861,3.7-1.2a6.225,6.225,0,0,1,2.949,2.477c.59,1.134,1.848,2.87,2.077,3.362s-2.025,3.748-2.025,3.748a16.554,16.554,0,0,1,2.923-2.005c.734-.2.583,1.461-.446,2.254a9.487,9.487,0,0,0-1.92,2.287,41.471,41.471,0,0,0,3.873-3.1c.59-.714.786-1.835,1.422-1.035s.668,1.251,1.448,2.241a4.308,4.308,0,0,0,2.025,1.481C394.172,438.11,396.839,437.383,396.839,437.383Z" transform="translate(-285.863 -366.437)" fill="#b28e4d"/>
          <path id="Path_27" data-name="Path 27" d="M363.4,393.2s4.666,3,5.485,3.984a4.091,4.091,0,0,1,.511,3.886c-.518.976-2.248,4.967-2.287,4.836s3.231-4.771,3.558-5.092.472,1.723.223,2.851-1.854,5.55-1.854,5.55a20.954,20.954,0,0,0,2.68-4.253c.5-1.527.269.806-.138,2.215s-3.486,7.385-3.486,7.385,3.7-4.758,4-5.675,1.252-5.066,1.252-5.066a22.258,22.258,0,0,0-1.265-2.431,20.681,20.681,0,0,1-1.422-2.667A15.461,15.461,0,0,0,363.4,393.2Z" transform="translate(-280.91 -359.364)" fill="#b28e4d"/>
          <path id="Path_28" data-name="Path 28" d="M374.041,425.51s-.092,3.729-1.3,4.613a25.39,25.39,0,0,1-2.143,1.422,26.911,26.911,0,0,0,1.311,2.975,32.95,32.95,0,0,0,2.5,3.48c.721.819,2.942,2.739,3.368,3.394a7.484,7.484,0,0,0,1.153,1.291,9.526,9.526,0,0,1,.491-2.942,7.927,7.927,0,0,1,1.665-2.366s-1.54,1.134-2.248,1.822a1.488,1.488,0,0,1-1.632.23A8.949,8.949,0,0,1,378.883,437c.832-.668,1.081-.891,1.081-.891a38.649,38.649,0,0,0-4.449-.262l-1.147.1a2.2,2.2,0,0,1,.695-2.66,14.807,14.807,0,0,1,1.763-1.226,30.13,30.13,0,0,0-3.113,1.468c-.675.459-.675.465-.675.465s2-3.63,2.018-5.243a19.562,19.562,0,0,0-.236-3.112s.066,2.818-.413,3.565l-.472.747A13.635,13.635,0,0,0,374.041,425.51Z" transform="translate(-283.392 -370.501)" fill="#b28e4d"/>
          <path id="Path_29" data-name="Path 29" d="M360.147,397.98a19.839,19.839,0,0,0-.177,3.578c.144,1.193,2.47,2.595,3.552,2.995s2.582.819,2.582.819-3.172-1.448-4.207-3.709S360.147,397.98,360.147,397.98Z" transform="translate(-279.715 -361.012)" fill="#b28e4d"/>
          <path id="Path_30" data-name="Path 30" d="M430.923,454.833s1.455-1.553,1.5-2.4a3.433,3.433,0,0,0-2.136-2.562c-.8-.059-1.612-.3-1.422.387s.583,1.278.937,2.569S430.359,455.5,430.923,454.833Z" transform="translate(-303.466 -378.869)" fill="#b28e4d"/>
          <path id="Path_31" data-name="Path 31" d="M419.742,449.789s1.474.661,1.71,1.52a31.458,31.458,0,0,1,.753,3.775c.033.635-.681,1.068-1.6,1.088s-1.251-.583-1.527-1.481-.675-1.16-.937-1.107-1.344,1.166-1.789,1.409-.95.242-1.048-.1-.177-1.481.137-1.7a8.089,8.089,0,0,0,1.907-1.481C417.934,450.975,419.067,449.409,419.742,449.789Z" transform="translate(-298.773 -378.851)" fill="#b28e4d"/>
          <path id="Path_32" data-name="Path 32" d="M424.28,450.47a7.653,7.653,0,0,1,1.16,2.215,15.838,15.838,0,0,1,.341,3.263c0,.328,1.311.727,1.737.256s.564-2.831-.052-4.07A3.377,3.377,0,0,0,424.28,450.47Z" transform="translate(-301.896 -379.105)" fill="#b28e4d"/>
          <path id="Path_33" data-name="Path 33" d="M364.365,458.92s-13.833.858-16.205.983-6.369.387-6.369.387l1.3,2.051,21.008-1.815Z" transform="translate(-273.46 -382.018)" fill="#b28e4d"/>
          <path id="Path_34" data-name="Path 34" d="M365.086,462.74l-21.146,1.651s.033,1.474,1.042,1.782,19.966-2.117,19.966-2.117Z" transform="translate(-274.202 -383.335)" fill="#b28e4d"/>
          <path id="Path_35" data-name="Path 35" d="M332.43,473.975s2.549-4.213,4-5.354,7.162-2.425,7.162-2.425a5.828,5.828,0,0,1-3.145-.9c-1.3-.943-1.625-4.181-2.477-5.249s-4.908.328-4.908.328a15.229,15.229,0,0,1,.065,3.965C332.9,466.9,332.469,472.763,332.43,473.975Z" transform="translate(-270.234 -382.27)" fill="#b28e4d"/>
          <path id="Path_36" data-name="Path 36" d="M366.7,500.558s4.646-1.52,6.356-3.591a26.594,26.594,0,0,0,3.919-7.549,79.3,79.3,0,0,0-.026-8.2s.341,6.881.976,8.309a49.6,49.6,0,0,1,1.7,5.085c.223.806-1.285,6.586-1.835,6.92a25.188,25.188,0,0,1-2.608,1.638C374.734,503.3,366.7,500.558,366.7,500.558Z" transform="translate(-282.047 -389.705)" fill="#b28e4d"/>
          <path id="Path_37" data-name="Path 37" d="M351.17,501.265s-7.234-3.879-9.01-5.184-4.653-3.479-4.758-3.63,1.206-2.124.76-3.971-4.063-8.08-4.063-8.08a72.059,72.059,0,0,1,2.6,6.756c.616,2.241-.249,4.941-.138,5.347s2.038,5.183,2.346,6.081a6.246,6.246,0,0,0,2.687,2.595,6.3,6.3,0,0,1,2.529,2.7c.223.806.406,1.494.406,1.494S349.113,501.645,351.17,501.265Z" transform="translate(-270.81 -389.422)" fill="#b28e4d"/>
          <path id="Path_38" data-name="Path 38" d="M387.51,527.08,385,534.8l2.091,20.806s1.533-.943,3.224,1.186Z" transform="translate(-288.355 -405.513)" fill="#b28e4d"/>
          <path id="Path_39" data-name="Path 39" d="M381.86,543.4l1.56,18.761,2.012-1.232L383.2,545.373l.125,6.074Z" transform="translate(-287.273 -411.139)" fill="#b28e4d"/>
          <path id="Path_40" data-name="Path 40" d="M394.775,589.578a2.384,2.384,0,0,0-1.73,1.677,12.34,12.34,0,0,0,.334,4.259l1.049-.059s-.269-2.333-.347-2.8.891-1.468,1.343-1.684S395.332,589.362,394.775,589.578Z" transform="translate(-291.093 -427.049)" fill="#b28e4d"/>
          <path id="Path_41" data-name="Path 41" d="M396.883,610.89c-.092.164-2.234,4.175-3.152,5.9a15.148,15.148,0,0,0-1.271,4.141s2.235-3.663,2.864-4.764A33.74,33.74,0,0,0,396.883,610.89Z" transform="translate(-290.927 -434.403)" fill="#b28e4d"/>
          <path id="Path_42" data-name="Path 42" d="M393.215,599.98s1.127,5.8,1.166,7.641.092,4.4.092,4.4a4.11,4.11,0,0,1-2.274-1.205,12.478,12.478,0,0,1-1.638-3.114,21,21,0,0,0,1.579,1.881c.288.2-.524-1.245-.2-2.4s1.016-.694.937-1.645-1.717.328-1.868.786a4.938,4.938,0,0,1-.55,1.029,6.445,6.445,0,0,1,.2-2c.282-1.33.492-2.26.937-2.569a3.989,3.989,0,0,1,1.193-.465S392.3,600.511,393.215,599.98Z" transform="translate(-290.233 -430.642)" fill="#b28e4d"/>
          <path id="Path_43" data-name="Path 43" d="M389.01,571.749a52.183,52.183,0,0,0,.341,6.108c.341,2.267,1.114,7.608,1.114,7.608s-.367-3.7.557-4.227a6.6,6.6,0,0,0,2.13-2.2c-.013-.229-1.036-5.642-1.036-5.642l-.269,4.194-.878-5.282A1.4,1.4,0,0,0,389.01,571.749Z" transform="translate(-289.738 -420.832)" fill="#b28e4d"/>
          <path id="Path_44" data-name="Path 44" d="M370.945,535.084s.079,9.973-.164,12.018-.007,6.3-.157,6.645-.911.5-1.068-.079-.209-15.865.046-16.736a9.816,9.816,0,0,0,.157-2.51s-2.811.708-3.427.938-4.633-.708-6.192-1.206-3.283-.95-4.266-2.287a20.024,20.024,0,0,1-1.743-2.981s2.831,3.355,3.84,3.886a42.766,42.766,0,0,0,8.611,1.468c.708-.131,1.566-.367,1.573-.8s-.649-3.277-.8-6.075,1.284-10.406,1.547-11.035a9.212,9.212,0,0,1,.472-.99s1,1.271,1.632,1.278.675,8.27.681,9.869a26.668,26.668,0,0,0,.74,4.731c.079.289,1.055.02,1.324-.793s2.739-9.823,2.739-9.823-.813,4.915-1.357,6.541-1.186,4.456-2.333,5.452S370.945,534.416,370.945,535.084Z" transform="translate(-277.714 -401.466)" fill="#b28e4d"/>
          <path id="Path_45" data-name="Path 45" d="M381.322,518.91l.354-1.074s2.208.97,2.359,1.527a33.052,33.052,0,0,1-.5,4.437c-.125,1.238-.406,2.746-.406,2.746a27.274,27.274,0,0,0,1.7-4.26,4.89,4.89,0,0,1,1.016-2.038s-1.809-2.372-2.8-2.8-2.175-.839-2.175-.839Z" transform="translate(-286.932 -401.904)" fill="#b28e4d"/>
          <path id="Path_46" data-name="Path 46" d="M350.063,520.034s3.178-1.566,4.351.013,3.27,9.24,3.388,10.177.419,3.119.419,3.119l5.308,1.238s-1.894-8.6-3.1-11.323-4.718-6.573-7.084-7.451S349.6,517.15,350.063,520.034Z" transform="translate(-276.281 -401.56)" fill="#b28e4d"/>
          <path id="Path_47" data-name="Path 47" d="M350.02,523.3a29.132,29.132,0,0,0,.714,3.787,32.539,32.539,0,0,0,2.031,4.719s-2.228-4.928-1.8-5.2,1.684,1.94,1.684,1.94a6.481,6.481,0,0,0-1.094-2.477A6.449,6.449,0,0,1,350.02,523.3Z" transform="translate(-276.297 -404.21)" fill="#b28e4d"/>
          <path id="Path_48" data-name="Path 48" d="M365.266,516.317a18.285,18.285,0,0,0-4.161-2.916c-1.573-.557-2.385-.93-2.385-.93a6.141,6.141,0,0,0,2.8-.944,7.163,7.163,0,0,0,1.3-2.116,4.66,4.66,0,0,0,.839,1.494,7.383,7.383,0,0,0,3.309,1.5,4.516,4.516,0,0,0,1.029-.629,9.534,9.534,0,0,1-.74,1.907C366.891,514.253,365.266,516.317,365.266,516.317Z" transform="translate(-279.296 -399.422)" fill="#b28e4d"/>
          <path id="Path_49" data-name="Path 49" d="M338.823,478.08c.059.013-.852-1.54-.852-1.54s11.566-3.29,13.813-3.414,13.322-.255,13.479.563a15.754,15.754,0,0,1,.033,2.707s1.665-3.493,2.071-4.246l.413-.754s-2.7-2.654-3.952-2.929-2.274-.419-2.745-.57-7.287,2.457-9.181,2.516-7.562-.125-8.395-.236-5.465,1.9-6.894,3.218-1.618,1.737-1.435,2.182A8.648,8.648,0,0,0,338.823,478.08Z" transform="translate(-271.162 -385.111)" fill="#b28e4d"/>
          <path id="Path_50" data-name="Path 50" d="M371.3,480.36s1.579,10.059.649,12.962-2.352,4.469-2.012,4.377,3.29-1.514,3.591-2.215S371.3,480.36,371.3,480.36Z" transform="translate(-283.144 -389.409)" fill="#b28e4d"/>
          <path id="Path_51" data-name="Path 51" d="M355.418,480.87s2.418,11.31,3.742,13.663a12.075,12.075,0,0,0,3.9,3.866s-2.8.334-5.308-4.534S355.418,480.87,355.418,480.87Z" transform="translate(-278.157 -389.584)" fill="#b28e4d"/>
          <path id="Path_52" data-name="Path 52" d="M343.71,480.066s9.96-2.391,12.4-2.5,10.714.832,10.714.832a43.594,43.594,0,0,0-8.257-1.566A42.044,42.044,0,0,0,343.71,480.066Z" transform="translate(-274.122 -388.191)" fill="#b28e4d"/>
          <path id="Path_53" data-name="Path 53" d="M348.43,406.72a8.377,8.377,0,0,1-3.172,2.792c-1.867.786-6.428-.832-6.428-.832s5.9,3.29,6.952,3.6,4.771,2.208,4.771,2.208-2.785-2.057-3.218-2.451S349,409.315,348.43,406.72Z" transform="translate(-272.44 -364.025)" fill="#b28e4d"/>
          <path id="Path_54" data-name="Path 54" d="M360.419,413.51s-.387,2.464-2.556,2.32a10.878,10.878,0,0,1-4.358-1.54,35.32,35.32,0,0,1,3.1,3.873c1.055,1.658,3.283,5.577,3.283,5.577a17.876,17.876,0,0,1-4.554-2.778,42.675,42.675,0,0,0-5.924-3.886s6.488,4.934,7.477,6.514-.059,7.562-.059,7.562.583-3.952,1.828-4.8,3.643-.721,4.174-.635,1.927-.9,1.927-.9-1.678.642-2.392.053,1.042-2.785,1.042-2.785a9.059,9.059,0,0,0-1.52,1.389l-.249.439a33.953,33.953,0,0,1-1.2-6.061C360.085,414.454,360.419,413.51,360.419,413.51Z" transform="translate(-276.087 -366.365)" fill="#b28e4d"/>
          <path id="Path_55" data-name="Path 55" d="M315.973,384.5a54.688,54.688,0,0,0,1.75,6.4,25.288,25.288,0,0,0,2.8,2.982c.642.655,1.278,1.317,1.278,1.317a5.36,5.36,0,0,0-3.9-1.245,30.747,30.747,0,0,0-5.472,1.822,4.365,4.365,0,0,1,2.254-2.424,7.686,7.686,0,0,0,2.077-1.029s-2.457-1.042-3.6-.125a34.491,34.491,0,0,0-3.67,3.506c-.111.262.655-3.512,1.619-4.24s2.51-1.743,2.733-2.569.052-1.619-1.756-1.121a30.92,30.92,0,0,0-4.974,2.287,10.813,10.813,0,0,1,2.372-3.178C310.953,385.621,315.973,384.5,315.973,384.5Z" transform="translate(-261.51 -356.365)" fill="#b28e4d"/>
          <path id="Path_56" data-name="Path 56" d="M341.115,418.024s-2.483,1.854-4.738,1.3-7.267-3.552-7.267-3.552a32.788,32.788,0,0,0,3.578,3.388,8.958,8.958,0,0,0,5.019.813A7.136,7.136,0,0,0,341.115,418.024Z" transform="translate(-269.09 -367.144)" fill="#b28e4d"/>
          <path id="Path_57" data-name="Path 57" d="M295.9,391.057a16.007,16.007,0,0,0-1.691,5.092,8.735,8.735,0,0,0,.275,3.938s.753-4.017,1.094-5.688a9.74,9.74,0,0,1,1.717-3.407,26.3,26.3,0,0,0-1.1,3.637c-.111.957-.184,1.383-.184,1.383a35.968,35.968,0,0,1,2.458-5.033,18.3,18.3,0,0,1,3.755-3.178S297.378,389.478,295.9,391.057Z" transform="translate(-257.03 -357.503)" fill="#b28e4d"/>
          <path id="Path_58" data-name="Path 58" d="M284.2,407.395a25.808,25.808,0,0,1,.478,4.96,18.87,18.87,0,0,1-.465,3.368s-.976-2.883-1.35-4.26a21.672,21.672,0,0,0-.97-2.693,40.381,40.381,0,0,1,.5,4.862,18.339,18.339,0,0,1-.341,3.145s-.6-2.89-.95-4.135a3.891,3.891,0,0,0-.6-1.5s.59,4.187.537,5.177l-.052.99s-.478-2.923-1.357-3.932a8.9,8.9,0,0,1-1.671-2.32c-.183-.551,1.953-6.088,1.953-6.088s-2.719,4.076-2.562,5.328a26.177,26.177,0,0,0,1.4,5.124,15.669,15.669,0,0,1,.819,3.506,7.631,7.631,0,0,1-.465.839,19.819,19.819,0,0,1-1.441-3.584,24.8,24.8,0,0,0-1.579-3.919s1.271,4.462,1.638,5.983a11.835,11.835,0,0,1,.354,2.634,12.656,12.656,0,0,0-3.185-3.847,43.876,43.876,0,0,0-4.063-2.68l4.03-4.9s-4.476,4.607-5.255,5.649-2.031,2.732-2.031,2.732,4.371.747,6.022,2.051,3.67,3.25,3.67,3.25-4.633-4.934-5.957-5.544a14.6,14.6,0,0,1-1.612-.806s2.628-.721,3.683.1a44.686,44.686,0,0,1,4.266,4.43c.046.171-.282,2.346-1.245,2.051s-4.181-3.434-5.321-3.722-4.279-.59-4.279-.59,4.332,1.127,5.813,2.294a17.406,17.406,0,0,1,3.08,3.971,10.269,10.269,0,0,0,2.208-1.573c.518-.649.492-1.245,1.651-2.254s3.945-2.837,4.371-3.466a20.251,20.251,0,0,0,1.5-4.161A58.349,58.349,0,0,0,284.2,407.395Z" transform="translate(-247.611 -363.421)" fill="#b28e4d"/>
          <path id="Path_59" data-name="Path 59" d="M267.134,432.4c-.118.065,3.407-.747,4.266-.472a16.487,16.487,0,0,1,2.621,1.455c.164.092-3.263-.773-4.7-.426a11.024,11.024,0,0,0-2.556.983s3.532-.97,5.124-.386a19.015,19.015,0,0,1,3.041,1.481,13.481,13.481,0,0,0-4.738-.74,14.521,14.521,0,0,0-3.185.524s5.242-.118,6.147.472a4.512,4.512,0,0,0,1.291.662,15.057,15.057,0,0,0-3.355.085,23.957,23.957,0,0,0-3.526.826s4.816-.164,5.8.216a2.833,2.833,0,0,0,1.632.2s-2.313.17-3.794.347a17.5,17.5,0,0,0-2.169.361,46.074,46.074,0,0,1,5.157.072,3.587,3.587,0,0,1,1.913,1.232s-1.212-4.253-1.042-5.314-1.54-2.909-3.06-3.742-3.807-1.736-4.823-1.546a10.812,10.812,0,0,1-2.143.124,10.161,10.161,0,0,0-.262,2.431l.144.517a1.629,1.629,0,0,1,1.075-1.14c.989-.439,3.014-1,4.377-.4a11.615,11.615,0,0,1,2.582,1.651S269.539,431.046,267.134,432.4Z" transform="translate(-246.903 -371.588)" fill="#b28e4d"/>
          <path id="Path_60" data-name="Path 60" d="M272.172,444.84a18.07,18.07,0,0,0-2.949,2.241,4.32,4.32,0,0,0-.963,2.071,9.323,9.323,0,0,0,1.14,2.143c.315.144.583-1.088,1.756-1.867s2.221-1.35,2.221-1.35a3.678,3.678,0,0,0-2.045.465c-.911.57-1.435,1.179-1.6.249S271.065,445.371,272.172,444.84Z" transform="translate(-248.114 -377.165)" fill="#b28e4d"/>
          <path id="Path_61" data-name="Path 61" d="M275.32,450.32a12.1,12.1,0,0,0-2.739,1.324,8.4,8.4,0,0,0-1.251,1.671s.78.99,1.219.406S273.3,451.061,275.32,450.32Z" transform="translate(-249.173 -379.054)" fill="#b28e4d"/>
          <path id="Path_62" data-name="Path 62" d="M279.742,458.372s1.389-2.51,2.588-3.2,3.676-.773,4.62-.02a20.536,20.536,0,0,1,3.178,3.158c.23.491.656.655.983,1.625s1.271,1.317.708,2.582a15.269,15.269,0,0,1-1.783,3.08,2.95,2.95,0,0,1-1.068.662s.039-1.212.118-2.53a28.972,28.972,0,0,0-.072-3.217,14.745,14.745,0,0,0-.623,3.132c.033.963.262,1.966-.144,2.169s-.59.577-.878-.315a12.65,12.65,0,0,1-.242-3.263c-.039-1.33-2.353-3.06-2.353-3.06a5.864,5.864,0,0,1,1.632,2.791c.144,1.35.655,3.335.662,3.8s-.917.485-.917.485.249-.622-.767-2.287a6.426,6.426,0,0,0-3.191-2.352,12.691,12.691,0,0,1,1.848,2.346c.708,1.239,1.586,2.575,1.022,2.726a1.145,1.145,0,0,1-1.507-.6,4.672,4.672,0,0,0-1.514-1.481s1.048,1.8.858,2.123-.485.223-.839.138a7.175,7.175,0,0,1-2.123-2.661,8.17,8.17,0,0,1-.21-2.117c-.02-.734.282-.819.354-1.579A7.32,7.32,0,0,0,279.742,458.372Z" transform="translate(-252.068 -380.533)" fill="#b28e4d"/>
          <path id="Path_63" data-name="Path 63" d="M292.321,470.87s-3.512.635-4.849,1-4.39.878-5.249,1.114a10.738,10.738,0,0,0-2.851,1.428c-.328.321-.747,1.5.118,1.356s3.768-1.356,4.489-1.6,4.784-.957,5.524-1.127S292.091,473.295,292.321,470.87Z" transform="translate(-251.809 -386.137)" fill="#b28e4d"/>
          <path id="Path_64" data-name="Path 64" d="M296.22,465.871l3.067-.282a10.419,10.419,0,0,0,1-2.864c-.013-.832-.852-.288-1.035.282s-.367,1.488-.9,1.632S296.246,464.934,296.22,465.871Z" transform="translate(-257.752 -383.183)" fill="#b28e4d"/>
          <path id="Path_65" data-name="Path 65" d="M302.386,464.844s1.468-1.73,1.127-2.313-2.477-1.265-2.6.065.052,2.792-.046,3.218-2.339,1.415-3.053,1.8-2.058,1.081-.931,1.212,3.656.609,4.489-.282,1.2-1.487.885-1.848S302.386,464.844,302.386,464.844Z" transform="translate(-257.831 -383.021)" fill="#b28e4d"/>
          <path id="Path_66" data-name="Path 66" d="M306.227,466.064a4.631,4.631,0,0,0,2.759.046c.74-.328,1.134-1.605.734-1.926s-1.186-.6-.812-1.042,3.6-.249,4.58-.5,1.907-.255,1.776-.714-2.1-1.12-4.325-.819-2.575.4-2.6,1.081.262.95-.557,1.573S305.768,464.491,306.227,466.064Z" transform="translate(-261.167 -382.747)" fill="#b28e4d"/>
          <path id="Path_67" data-name="Path 67" d="M317.83,467.029a30.771,30.771,0,0,0,4.279,2.438,16.184,16.184,0,0,0,3.021.439s-.164-1.507-1.3-1.684a4.466,4.466,0,0,1-1.573-.459s1.409-.138,1.153-.623a4.928,4.928,0,0,0-2.922-1.33,14.475,14.475,0,0,1-2.831-.76,3.88,3.88,0,0,0,1.474,1.658l1.029.609A6.693,6.693,0,0,0,317.83,467.029Z" transform="translate(-265.143 -384.131)" fill="#b28e4d"/>
          <path id="Path_68" data-name="Path 68" d="M327.878,473.366c-.5-.249,1.435,1.422,2.759,1.173s1.868-1.979,1.868-1.979S328.343,473.6,327.878,473.366Z" transform="translate(-268.637 -386.72)" fill="#b28e4d"/>
          <path id="Path_69" data-name="Path 69" d="M333.027,460.64c-.387.151-1.547.649-1.422,1.56s.393,1.664.151,1.671,1.258,2.215,1.258,2.215Z" transform="translate(-269.947 -382.611)" fill="#b28e4d"/>
          <path id="Path_70" data-name="Path 70" d="M329,465.01s-1.894.57-2.077,1a3.212,3.212,0,0,1-1.016,1,2.709,2.709,0,0,0,.4,1.461,2.809,2.809,0,0,0,1.291,1.4c.734.354,3.591.1,3.591.1a7.242,7.242,0,0,0-1.4-1.284c-.668-.406-.242-.426-.223-1.049S330.374,465.527,329,465.01Z" transform="translate(-267.975 -384.117)" fill="#b28e4d"/>
          <path id="Path_71" data-name="Path 71" d="M295.25,442.588s4.188,5.111,5.465,6.612a10.1,10.1,0,0,0,3.309,2.674c.406.079,2.909-1.37,2.11-4.967a56.818,56.818,0,0,0-1.632-5.957s.95,5.727.681,7.215-1.514,1.566-3.427-.059S295.25,442.588,295.25,442.588Z" transform="translate(-257.418 -375.824)" fill="#b28e4d"/>
          <path id="Path_72" data-name="Path 72" d="M305.605,404.76a38.31,38.31,0,0,0-3.4,4.934,18.513,18.513,0,0,1-2.634,3.742,18.885,18.885,0,0,0,4.109-2.851c.97-1.193,2.831-3.853,2.831-3.853s-2.392,2.372-3.44,3.467l-1.049,1.088Z" transform="translate(-258.907 -363.349)" fill="#b28e4d"/>
          <path id="Path_73" data-name="Path 73" d="M314.091,411.91s-4.364,1.874-6.54,2.471l-8.211,2.248s6.533-3.394,8.211-3.361S314.091,411.91,314.091,411.91Z" transform="translate(-258.828 -365.814)" fill="#b28e4d"/>
          <path id="Path_74" data-name="Path 74" d="M298.066,431.214s-.636-3.335,2.057-2.8,7.084,2.89,8.427,3.218a17.59,17.59,0,0,0,2.523.419s-6.631-1.239-8.125-1.8S298.216,428.908,298.066,431.214Z" transform="translate(-258.366 -371.482)" fill="#b28e4d"/>
          <path id="Path_75" data-name="Path 75" d="M315.71,440.242s-3.46-1.147-5.452-1.651a36.084,36.084,0,0,0-4.889-1.173c-.537.072.125,1.861.125,1.861l4.194,2.182s-2.988-1.448-3.375-2.182.393-1.258,1.035-.937S313.888,440.366,315.71,440.242Z" transform="translate(-260.834 -374.605)" fill="#b28e4d"/>
          <path id="Path_76" data-name="Path 76" d="M316.156,452.626A4.8,4.8,0,0,0,319.7,454.8a22.32,22.32,0,0,0,4.862-.026s-4.141-1.606-6.835-2.811a17.7,17.7,0,0,1-4.089-2.425s.125,3.506,1.016,4.561a33.472,33.472,0,0,0,2.713,2.647A4.6,4.6,0,0,1,316.156,452.626Z" transform="translate(-263.757 -378.785)" fill="#b28e4d"/>
          <path id="Path_77" data-name="Path 77" d="M326.841,461.181s-3.427-.57-4.574-1.494l-1.147-.917a19.068,19.068,0,0,1,.354,2.523l-.033.563A17.114,17.114,0,0,1,326.841,461.181Z" transform="translate(-266.335 -381.967)" fill="#b28e4d"/>
          <path id="Path_78" data-name="Path 78" d="M347.963,443.415s1.062-5.97.387-8.5a6.59,6.59,0,0,0-4.3-4.312,54.7,54.7,0,0,1-7.156-1.743c-1.677-.714-2.025-.865-2.025-.865s4.069,1.107,5.55.21,2.956-1.612,4.2-.78,5.432,3.2,5.983,4.81S349.195,441.659,347.963,443.415Z" transform="translate(-271.075 -371.035)" fill="#b28e4d"/>
          <path id="Path_79" data-name="Path 79" d="M341,442.375s-4.6.583-6.7-.019-7.739-5.655-7.739-5.655,3.892,5.662,5.308,6.324,5.36,1.094,6.618,1.409,2.746-.111,3.093,2.058a34.861,34.861,0,0,1,.242,5.347,4.267,4.267,0,0,0,1.828-2.956C343.768,447.041,343.506,443.043,341,442.375Z" transform="translate(-268.211 -374.359)" fill="#b28e4d"/>
          <path id="Path_80" data-name="Path 80" d="M312.509,407.117a9.813,9.813,0,0,1,.714-3.48c.616-.957,3.021-2.49,3.231-.885a2.779,2.779,0,0,1-.564,2.346s.177-2.051-.406-1.986S312.41,405.754,312.509,407.117Z" transform="translate(-263.366 -362.416)" fill="#b28e4d"/>
          <path id="Path_81" data-name="Path 81" d="M270.471,413.5s-.852.944-.6,1.553.76.406,1.75-.478,3.879-4.207,3.879-4.207-3.945,3.735-4.214,3.866S270.4,414.262,270.471,413.5Z" transform="translate(-248.654 -365.283)" fill="#b28e4d"/>
          <path id="Path_82" data-name="Path 82" d="M323.365,477.843s-3.355-.065-5.793-.328a15.679,15.679,0,0,1-3.892-.845l6.677,5.452S320.646,477.928,323.365,477.843Z" transform="translate(-263.771 -388.136)" fill="#b28e4d"/>
          <path id="Path_83" data-name="Path 83" d="M315.481,483.391s-4.967-.118-6.854-1.822-2.726-3.2-4.653-4.155-5-.675-7.012-.492-7.732,4.784-7.732,4.784,6.723-3.945,8.912-4.115,5.229-.118,6.147.983,3.886,3.368,4.581,4.1S315.481,483.391,315.481,483.391Z" transform="translate(-255.343 -388.161)" fill="#b28e4d"/>
          <path id="Path_84" data-name="Path 84" d="M291.427,492.562a17.865,17.865,0,0,1,1.5-4.666,8.577,8.577,0,0,1,1.533-2.287s-1.481.236-4.135,2.936-2.936,3.578-2.936,3.578,2.995-6.743,4.947-7.28S302,485.9,303.1,486.4s3.656,1.959,3.656,1.959-5.813-1.986-7.968-1.212S292.593,489.836,291.427,492.562Z" transform="translate(-254.709 -390.916)" fill="#b28e4d"/>
          <path id="Path_85" data-name="Path 85" d="M300.065,490.65s-6.9,3.368-9.174,6.094a21.179,21.179,0,0,0-2.661,3.565s4.685-2.949,7.359-2.877a73.428,73.428,0,0,1,8.768,1.363s-4.738-2.654-7.556-2.588a14.745,14.745,0,0,0-4.712.825S297.974,491.652,300.065,490.65Z" transform="translate(-254.998 -392.956)" fill="#b28e4d"/>
          <path id="Path_86" data-name="Path 86" d="M287.94,506.973a3.642,3.642,0,0,1,1.4,2.392l-.013,1.3s2.608-4.666,5.622-5.609a19.6,19.6,0,0,1,3.447-.943S290.647,504.254,287.94,506.973Z" transform="translate(-254.898 -397.595)" fill="#b28e4d"/>
          <path id="Path_87" data-name="Path 87" d="M321.06,488.819s2.549,2.326,2.785,3.866-1.664,5.02-1.664,5.02l.714,5.478a84.333,84.333,0,0,1,4.384-8.112,18.351,18.351,0,0,0,2.333-5.2l-3.5,3.414-1.094,1.422s1.638-3.722,1.435-5.019-.406-1.494-.406-1.494-.243,3.532-1.285,4.672C324.756,492.862,324.8,490.319,321.06,488.819Z" transform="translate(-266.315 -392.108)" fill="#b28e4d"/>
          <path id="Path_88" data-name="Path 88" d="M304.38,505.28s-6.127.74-7.569,1.822a17.923,17.923,0,0,0-3,3.3,9.51,9.51,0,0,1,1.645,1.953l.675,1.114-.315-3.617a6.466,6.466,0,0,1,1.343,3.335l.039,1.717s.393-1.036,1.232-2.929a9.932,9.932,0,0,1,1.56-2.647s-2.405.354-2.628-.177S303.43,505.417,304.38,505.28Z" transform="translate(-256.922 -397.999)" fill="#b28e4d"/>
          <path id="Path_89" data-name="Path 89" d="M301,517.264s2.936-.99,4.548-.5a24.222,24.222,0,0,1,3.48,1.455,62.811,62.811,0,0,0-2.529,6.985c-.256,1.546-.275,3.715-.629,4.921s-1.625,5.321-2.719,6.3-3.034,2.438-4.089,2.418-5.806-.695-7.831-2.916a13.076,13.076,0,0,1-2.726-4.994,13.22,13.22,0,0,0,3.716,4.1c2.536,1.835,4.692,2.477,5.976,2.006s3.578-1.475,3.578-1.475-3.146-.557-3.6-1.546l-.452-.983a7.1,7.1,0,0,0,3.611.125c1.461-.524,1.258-1.946.419-3.2a38.619,38.619,0,0,0-3.375-3.769s4.849,2.373,5.649,2.157a2.506,2.506,0,0,0,1.284-2.759c-.256-1.167-1.88-2.818-2.687-3.951a25.76,25.76,0,0,1-1.422-2.261s2.32,1.029,3.755.635l1.435-.393A8.336,8.336,0,0,0,301,517.264Z" transform="translate(-255.091 -401.91)" fill="#b28e4d"/>
          <path id="Path_90" data-name="Path 90" d="M310.28,505.628a3.722,3.722,0,0,0,2.582,3.224,12.268,12.268,0,0,0,5.537-.177s-2.851-.93-3.643-1.92a9.779,9.779,0,0,1-1.317-2.785,17.717,17.717,0,0,0,3.4.321c1.317-.085,1.546-.1,1.546-.1s-.524,1.114-1.435,1.18-1.134.092-1.134.092-.668.262.95,1.094S319.4,507.9,319.4,507.9a2.691,2.691,0,0,1-2.09,2.051C315.49,510.359,310.627,511.919,310.28,505.628Z" transform="translate(-262.599 -397.547)" fill="#b28e4d"/>
          <path id="Path_91" data-name="Path 91" d="M343.309,524.47l5.288,32.365a19.028,19.028,0,0,0-2.752,2.235c-1.081,1.127-1.435,2.523-1.619,2.2s.1-4.377-.065-6-1.245-17.058-1.245-17.058-1.029-11.192-1.016-12.5S343.309,524.47,343.309,524.47Z" transform="translate(-273.499 -404.614)" fill="#b28e4d"/>
          <path id="Path_92" data-name="Path 92" d="M347.711,523.65s-1.946.1-2.012.55,2.49,10.668,2.608,11.566,1.409,12.818,1.579,14.561,1.075,6.619,1.075,6.619,1.8,1.173,2.431,1.677,1.179.242,1.16-.04-4.7-22.562-5.177-25.209S347.711,523.65,347.711,523.65Z" transform="translate(-274.808 -404.331)" fill="#b28e4d"/>
          <path id="Path_93" data-name="Path 93" d="M345.591,581.75a21.081,21.081,0,0,0-1.376,6.92c.138,2.988,1.815,13.388,2.032,15.3s.832,5.957.832,5.957l.977-.269s-2.759-16.166-3-18.505S345.591,581.75,345.591,581.75Z" transform="translate(-274.293 -424.358)" fill="#b28e4d"/>
          <path id="Path_94" data-name="Path 94" d="M359.48,601.089a61.705,61.705,0,0,0-2.569-7.116,12.537,12.537,0,0,1-1.186-2.759s1.153,8.263,1.114,8.578a46.35,46.35,0,0,1-1.586-7.156c-.19-2.045-.374-4.1-.374-4.1S359.139,595.119,359.48,601.089Z" transform="translate(-277.973 -426.699)" fill="#b28e4d"/>
          <path id="Path_95" data-name="Path 95" d="M346.744,606.454s1.088-3.906.7-5.773a44.086,44.086,0,0,1-.485-5.6s1.855.911,2.123,1.887,1.114,5,1.271,6.009.386,4.463.773,6.022a43.611,43.611,0,0,0,1.271,4.646c.3.6,3.375,4.383,3.375,4.383l-.033-1.913s-3.4-3.63-3.86-6.219-1.245-11.088-1.606-12.4-.426-2.464-.721-2.634-4.115-1.435-4.115-1.435Z" transform="translate(-274.719 -428.381)" fill="#b28e4d"/>
          <path id="Path_96" data-name="Path 96" d="M352.96,642.429s.5-1.4,1.278-3.087,2.031-2.713,2.549-2.3.039,2.064.039,2.064a18.347,18.347,0,0,1,1.7-1c.812-.406,2.11.721,1.789,1.8a5.582,5.582,0,0,0-.354,2.32c.118.216-1.311.852-2.045.871s-1.553.177-1.985.177S354.264,644.132,352.96,642.429Z" transform="translate(-277.311 -443.386)" fill="#b28e4d"/>
          <path id="Path_97" data-name="Path 97" d="M366.288,642.5s-.609,1.094-1.2.327a1.692,1.692,0,0,1,.1-2c.223-.183.977-1.259,1.632-.446s.767,3.368.721,3.939S366.78,645.205,366.288,642.5Z" transform="translate(-281.393 -444.466)" fill="#b28e4d"/>
          <path id="Path_98" data-name="Path 98" d="M393.38,634.327s.131,4.037.295,4.96.957.8,1.868.74,2.018,1.114,2.018,1.114.085-1.553.183-2.038.76-.256.78-1.049.026-3.8-1.841-4.358a1.67,1.67,0,0,0-2.3.9C394.186,634.747,393.38,634.327,393.38,634.327Z" transform="translate(-291.244 -442.218)" fill="#b28e4d"/>
          <ellipse id="Ellipse_1" data-name="Ellipse 1" cx="1.14" cy="0.917" rx="1.14" ry="0.917" transform="translate(100.531 190.147) rotate(-15.313)" fill="#b28e4d"/>
          <path id="Path_99" data-name="Path 99" d="M351.357,574.252c.066.229.524,2.267-.052,2.457s-.321,1.35-.321,1.35-.8.458-.95.813,1.14-.124,1.429.479-.19,1.9.118,1.939,1.612.734,1.946-.163a4.126,4.126,0,0,0,.334-2.255c-.151-.327.256-.878-.078-1.4a36.624,36.624,0,0,1-2.032-4.253l-.2-.747Z" transform="translate(-276.298 -421.159)" fill="#b28e4d"/>
          <path id="Path_100" data-name="Path 100" d="M292.847,521.52s-2.254,3.44-3.126,4.974a13.655,13.655,0,0,0-1.271,3.637s2.949,1.133,3.25-.472.02-3.473.249-4.836A25.006,25.006,0,0,1,292.847,521.52Z" transform="translate(-255.074 -403.597)" fill="#b28e4d"/>
          <path id="Path_101" data-name="Path 101" d="M281.992,537.54a76.2,76.2,0,0,0-1.907,8.25c-.17,2.084-3.368,10.5-3.368,10.5a19.115,19.115,0,0,1-.845,3.008c-.452,1.049-1.612,5.439-1.743,5.8s4.993,2.012,5.649,2.385a11.342,11.342,0,0,0,2.857.557s-5.524-2.188-6.186-3.256.839-3.519.911-4.272a25.83,25.83,0,0,1,.727-2.929s3.6,2.995,4.875,3.106a19.68,19.68,0,0,0,3.46-.209s-5.216-1.809-6.009-3.355a8.569,8.569,0,0,1-.38-5.262c.321-1.52,1.8-5.766,1.8-5.766s4.056,3.656,5.354,4a24.1,24.1,0,0,0,5.124-.039,42.842,42.842,0,0,1-2.556,4.7,12.611,12.611,0,0,1-2.87,3.375s2.621-.072,3.06-.655,4.692-7.719,5.269-10.511c0,0-6.016-.157-8.119-.924s-3.538-1.933-3.912-3.132S283.932,537.193,281.992,537.54Z" transform="translate(-250.136 -409.112)" fill="#b28e4d"/>
          <path id="Path_102" data-name="Path 102" d="M286.713,557.47s3.984.852,4.227,1.573-1.009,2.405-1.52,2.733a3.718,3.718,0,0,1-3.041-.786c-.544-.636-.747-1.881.2-1.632s1.933.485,1.933.485a8.3,8.3,0,0,1-1.953-1.409A.8.8,0,0,1,286.713,557.47Z" transform="translate(-254.202 -415.989)" fill="#b28e4d"/>
          <path id="Path_103" data-name="Path 103" d="M290.779,578.246s-5.983-.4-7.018-1.134-1.324-.1-1.075.295,1.134.754,1.252,1.691-.131,1.054-.131,1.054a6.709,6.709,0,0,1,3.047.649,7.13,7.13,0,0,1,1.8,1.5A10.164,10.164,0,0,0,290.779,578.246Z" transform="translate(-253.058 -422.644)" fill="#b28e4d"/>
          <path id="Path_104" data-name="Path 104" d="M286.422,587.046s-.479,4.344-.95,4.98-1.8-1.651-3.388-2.392-4.594-1.906-4.594-1.906a7.737,7.737,0,0,0,3.067.039c.871-.374,1.743-.57,1.5-1.291s-1.927-.95-2.634-1.684-1.029-1.062-1.029-1.062a18.931,18.931,0,0,1,3.021.885C282.418,585.093,286.422,587.046,286.422,587.046Z" transform="translate(-251.296 -425.04)" fill="#b28e4d"/>
          <path id="Path_105" data-name="Path 105" d="M272.978,580.86s-1.507,2.405-1.933,3.211-.885,1.678-.885,1.678,1.3-.171,2.713-.236,3.054.5,3.7.328,1.062-1.357.374-1.678a8.478,8.478,0,0,1-2.235-1.566C274.243,582.085,272.978,580.86,272.978,580.86Z" transform="translate(-248.769 -424.051)" fill="#b28e4d"/>
          <path id="Path_106" data-name="Path 106" d="M282.254,598.442c.177.21.675,4.161-.236,5.387s-2.851.917-3.853.452-3.3-2.425-3.7-3.709-1.212-2.909.046-3.387,4.574-.885,6.284-.2,2.09.865,2.09.865-1.285-.125-2.523-.262-3.676-.079-3.676-.079a16.415,16.415,0,0,1,2.471.407C280.1,598.2,281.71,597.806,282.254,598.442Z" transform="translate(-250.038 -429.484)" fill="#b28e4d"/>
          <path id="Path_107" data-name="Path 107" d="M268.723,589.482a28.035,28.035,0,0,0-.734,3.394,8.8,8.8,0,0,1-1.474,3.736,3.486,3.486,0,0,0-1.12,2.5,14.845,14.845,0,0,0,.832,3.041,7.153,7.153,0,0,0,3.093,3.362c1.5.748,5.1,2.254,6.232,2.32a3.675,3.675,0,0,0,2.759-1.619,34.028,34.028,0,0,1-5.321-1.153c-1.605-.622-3.414-1.147-4.214-2.038s-2.235-3.2-2.254-4.227,1.127-2.916,1.743-2.712a3.747,3.747,0,0,1,1.3,1.192,6.416,6.416,0,0,1,.295-1.717c.3-1.009,2.936-2.549,2.936-2.549s-2.4.085-2.674.164-1.848.74-1.848.74,1.547-1.625,2.562-1.625a15.8,15.8,0,0,0,1.6-.066S270.191,589.082,268.723,589.482Z" transform="translate(-247.123 -427.012)" fill="#b28e4d"/>
          <path id="Path_108" data-name="Path 108" d="M273.893,607.672s-3.368-1.547-4.109-2.451a10.293,10.293,0,0,1-1.3-2.392,17.093,17.093,0,0,1,2.7,1.756A13.18,13.18,0,0,1,273.893,607.672Z" transform="translate(-248.19 -431.625)" fill="#b28e4d"/>
          <path id="Path_109" data-name="Path 109" d="M284.881,609.077s-.052,1.959-.662,2.431l-.609.479s1.684-.492,1.789-1.016.5-3.591.5-3.591Z" transform="translate(-253.406 -433.193)" fill="#b28e4d"/>
          <path id="Path_110" data-name="Path 110" d="M294.918,569.92a23.411,23.411,0,0,1-1.52,4.3,3.272,3.272,0,0,1-2.667.734c-.229-.171,1.868-1.618,2.346-2.425S294.918,569.92,294.918,569.92Z" transform="translate(-255.854 -420.281)" fill="#b28e4d"/>
          <path id="Path_111" data-name="Path 111" d="M336.96,505.27a46.8,46.8,0,0,1,2.555,6.658c.59,2.477,1.468,5.334,1.468,5.334l1.809-.5C342.792,516.77,338.074,506.122,336.96,505.27Z" transform="translate(-271.796 -397.995)" fill="#b28e4d"/>
          <path id="Path_112" data-name="Path 112" d="M326.885,504.64a8.7,8.7,0,0,0-6.127,3.945c-2.084,3.532-3.473,5.222-5.131,11.317s-2.215,14.9-3.067,18.558-2.3,12.385-2.3,13.4,2.542-.183,2.85-1.245,5.229-19.435,6.18-21.545,4.62-5.753,4.62-5.753-1.186-7.359-1.422-8.4a22.87,22.87,0,0,1,.164-5.662C322.888,508.559,325.85,505.486,326.885,504.64Z" transform="translate(-262.592 -397.778)" fill="#b28e4d"/>
          <path id="Path_113" data-name="Path 113" d="M282.447,509.8s-1.4,1.867-1.271,2.569,2.516,3.565,4.167,4.843a11.264,11.264,0,0,0,2.6,1.632s-5-6.343-5.157-6.913A21.028,21.028,0,0,1,282.447,509.8Z" transform="translate(-252.564 -399.557)" fill="#b28e4d"/>
          <path id="Path_114" data-name="Path 114" d="M268.559,506.92a71.724,71.724,0,0,0-8.755-.872c-2.883.052-5.675.38-5.675.38l6.56,5.111s-.878,4.908-.964,6.612,1.527,4.895,1.527,4.895a27.542,27.542,0,0,1-.426-6.729c.347-2.562.97-2.779.97-2.779s4.751,2.942,5.806,3.637,7.13,4.646,7.411,5.439.616,2.241.616,2.241a26.53,26.53,0,0,1,2.916-5.367s-9.685-7.241-10.092-8.355A5.054,5.054,0,0,1,268.559,506.92Z" transform="translate(-243.244 -398.263)" fill="#b28e4d"/>
          <path id="Path_115" data-name="Path 115" d="M268.861,522.76s6.042,3.716,6.979,5.059,1.448,5.648,1.37,7.274-3.742,14.167-4.325,15.438l-.577,1.271s-2.189-4.4-3.44-7.385-3.788-11.363-3.788-11.363,3.3,7.549,4.843,10.026a35.173,35.173,0,0,1,2.215,4.024s2.988-10.216,2.982-12.3A17.172,17.172,0,0,0,268.861,522.76Z" transform="translate(-247.018 -404.024)" fill="#b28e4d"/>
          <path id="Path_116" data-name="Path 116" d="M328.79,576.87s-1.992,1.284-7.28,1.127-10.826-2.608-11.212-2.431.249,1.573.76,2.778.19,2.281,1.54,2.713,9.069,2.019,10.183,1.593,2.647-1.153,3.106-1.959S328.79,576.87,328.79,576.87Z" transform="translate(-262.564 -422.223)" fill="#b28e4d"/>
          <path id="Path_117" data-name="Path 117" d="M323.626,593.137s-4.135,1.442-5.452,3.65a57.4,57.4,0,0,0-3.578,8.348,38.328,38.328,0,0,1-2.51,5.478c-.682,1.114-1.769,2.091-4.567,1.809s-11.651-1.992-12.824-2.228a13.971,13.971,0,0,1-3.565-2.11,29.062,29.062,0,0,0,5.839.052c2.379-.328,5.026,1.225,6.677.957a6.559,6.559,0,0,0,3.958-3.119c.609-1.154,2.261-8.644,2.6-9.9s5.255-3.349,7.549-3.978,3.742-3.755,4.128-5.334.19-4.358,1.193-5.648,1.743-2.182,1.743-2.182-.491,4.521-.78,5.714,1.684,1.763,1.684,1.763-1.481.341-1.553.983a3.464,3.464,0,0,0,.216,1.7c.21.531,1.442.747,1.442.747a22.9,22.9,0,0,0,.452,5.242C326.273,595.063,325.638,592.8,323.626,593.137Z" transform="translate(-255.998 -423.386)" fill="#b28e4d"/>
          <path id="Path_118" data-name="Path 118" d="M314.443,592.53s-.865,5.294-1.12,7.909a18.294,18.294,0,0,0-.013,4.168,53.891,53.891,0,0,0,1.127-6.193c-.111-.747.74.5.642,1.173s.033,3.506-1.291,5.583a14.54,14.54,0,0,1-2.458,3.034s1.075,1.231,2.261.812,4.489-7.274,3.978-10.825A9.642,9.642,0,0,0,314.443,592.53Z" transform="translate(-262.961 -428.075)" fill="#b28e4d"/>
          <path id="Path_119" data-name="Path 119" d="M301.869,607.4c.708,1.567,3.335,2.045,3.335,2.045s-.865-1.474-.262-2.471,1.933-2.568,2.182-3.512.334-2.5.55-4.083,2.012-6.671,1.874-6.671a8.37,8.37,0,0,0-6.441,3.355c-.564.82-2.359,4.567-2.431,5.819A15.337,15.337,0,0,0,301.869,607.4Zm2.851-7.68a6.567,6.567,0,0,1,1.153-3.048c.551,1,.859,3.467.36,3.683S304.851,600.384,304.72,599.722Zm-3.146,1.7a11.566,11.566,0,0,1,1.474-2.719s1.232,2.123.872,3.191a20.716,20.716,0,0,1-1.428,2.89S301.43,602.244,301.574,601.419Z" transform="translate(-259.286 -428.136)" fill="#b28e4d"/>
          <path id="Path_120" data-name="Path 120" d="M333.621,594.188s-4.4-.727-4.987-1.01-.479.983.1,1.567a9.47,9.47,0,0,0,4.135,1.081A5.933,5.933,0,0,0,333.621,594.188Z" transform="translate(-268.791 -428.284)" fill="#b28e4d"/>
          <path id="Path_121" data-name="Path 121" d="M335.306,591.87c-.419,0-4.214.662-4.954,0s-.511-1.37.826-1.37,4.069.249,4.069.249Z" transform="translate(-269.375 -427.375)" fill="#b28e4d"/>
          <path id="Path_122" data-name="Path 122" d="M306.722,581.54a4.785,4.785,0,0,1-1.14,2.254c-.767.583-1.54.466-1.383,1.953a6.433,6.433,0,0,0,1.645,3.041s1.343-.663,1.206-1.691-.439-1.436-.242-2.077S308.524,584.226,306.722,581.54Z" transform="translate(-260.496 -424.286)" fill="#b28e4d"/>
          <path id="Path_123" data-name="Path 123" d="M302.087,593.32a22.445,22.445,0,0,0-2.89,3.224c-.826,1.179-1.212,3.138-.6,3.355s1.8-.851,1.9-1.618a5.33,5.33,0,0,1,.55-1.815C301.327,595.9,302.087,593.32,302.087,593.32Z" transform="translate(-258.469 -428.347)" fill="#b28e4d"/>
          <path id="Path_124" data-name="Path 124" d="M295.425,613.056c-.137.059-3.892-1.37-4.58-1.18s-1.894.859-2.136.308.642-2.058,1.559-2.2a20.987,20.987,0,0,1,5.374,1.042C296.081,611.273,297.168,612.3,295.425,613.056Z" transform="translate(-255.149 -434.085)" fill="#b28e4d"/>
          <path id="Path_125" data-name="Path 125" d="M257.849,606.55a6.924,6.924,0,0,0,1.769,4.05c1.658,1.7,6.048,3.276,6.048,3.276s-1.52.577-8.617,3.053-8.768,3.8-9.81,4.522-1.625,1.062-2.261.308a2.659,2.659,0,0,1-.5-1.835s1.579,1.049,2.333.413.616-2.7-.577-2.556a1.859,1.859,0,0,0-1.533,1.16,6.834,6.834,0,0,1,1.114-2.916C246.656,615.042,257.849,606.55,257.849,606.55Z" transform="translate(-239.911 -432.907)" fill="#b28e4d"/>
          <path id="Path_126" data-name="Path 126" d="M244.56,654.38s.865,5.413,2.208,8.067,4.443,5.013,6.147,5.354,5.747-2.255,7.077-4.594l1.337-2.34s-4.155,5.334-6.946,5.052-6.048-3.158-6.854-4.974S244.56,654.38,244.56,654.38Z" transform="translate(-239.945 -449.394)" fill="#b28e4d"/>
          <path id="Path_127" data-name="Path 127" d="M257.014,657.058a19.062,19.062,0,0,1-2.51,3.217c-1.225,1.14-.858.479-1.861,1.311s-1.4,1.868-2.641,2.077a9.834,9.834,0,0,1-4.063-.183c-1.022-.341-1.809-.74-1.933-1.2s.99-2.923.125-2.254-.518,1.5-1.134,1.048a10.48,10.48,0,0,1-2.189-3.041c-.157-.576,1.2-1.933.885-2.4s-1.324-.315-1.75-.754.249-1.795.249-2.477-1.075-1.252-1.56-2.1,1.225-1.141.518-1.933a4.375,4.375,0,0,1-1.094-1.527c-.1-.367.754-.852.655-1.441s-1.153-1.966-1.193-2.326.55-13.768.55-13.768,2.346,10.819,2.857,14.5a57.952,57.952,0,0,0,3.152,11.291C244.793,656.58,249.839,663.283,257.014,657.058Z" transform="translate(-237.517 -440.749)" fill="#b28e4d"/>
          <path id="Path_128" data-name="Path 128" d="M249.107,650.75s2.648,6.448,3.984,8.119,2.936,3.964,5.832,3.217a3.327,3.327,0,0,1-2.706,1.39,8.675,8.675,0,0,1-5.583-2.405C249.35,659.571,248.282,652.644,249.107,650.75Z" transform="translate(-241.412 -448.143)" fill="#b28e4d"/>
          <path id="Path_129" data-name="Path 129" d="M243.29,643.13a6.3,6.3,0,0,0,1.638,2.746,7.856,7.856,0,0,0,.144,2.136,30,30,0,0,0,.9,3.27,35.845,35.845,0,0,1-2.293-4.554C243.46,645.771,243.29,643.13,243.29,643.13Z" transform="translate(-239.507 -445.516)" fill="#b28e4d"/>
          <path id="Path_130" data-name="Path 130" d="M245.765,639.894a4.511,4.511,0,0,0,4.306,1.691c1.553-.242,4.928-2.968,5.675-3.774s2.182-4.751,2.051-5.806-1.16-1.422-1.33-1.285-4.9,1.986-4.9,1.986a6.3,6.3,0,0,1-3.283-1.179c-1.37-1.107-1.782-.531-1.782-.531a9.877,9.877,0,0,1-2.438-1.881l-.426-.714a29.946,29.946,0,0,0-.052,5.059A17.667,17.667,0,0,0,245.765,639.894Zm8.041-2.385s.039-1.212.013-2.32,1.887-2.457,1.887-2.457C256.283,635.445,253.806,637.508,253.806,637.508Zm-3.63,2.89s.223-.99.622-2.9a9.106,9.106,0,0,1,2.005-3.65,23.028,23.028,0,0,1,.144,3.893A29.34,29.34,0,0,1,250.175,640.4Zm-1.193-2.261c.006-.144.649-1.514,1.219-2.8a10.415,10.415,0,0,1,1.566-2.4,15.087,15.087,0,0,1-.9,2.791A23.582,23.582,0,0,1,248.983,638.138Zm-.8-.99c-.609.026-.19-.6-.321-1.179s1.121-1.4,1.121-1.4C250.018,636.506,248.8,637.122,248.183,637.148Zm-.826,2.5a8.725,8.725,0,0,1,.793-1.606,4.054,4.054,0,0,1,.78,1.822C248.937,640.647,247.4,639.815,247.358,639.645Zm-2-3.755a3.549,3.549,0,0,1,.262-2.34,11.037,11.037,0,0,1,1.625,2.307,3.509,3.509,0,0,1-.223,2.811A8.024,8.024,0,0,1,245.359,635.89Z" transform="translate(-239.577 -440.439)" fill="#b28e4d"/>
          <path id="Path_131" data-name="Path 131" d="M244.656,615.233c.131.472.393.079.99-.269.288-.17,2.3-1.77,4.312-3.395a7.652,7.652,0,0,1-.118-.976,3.285,3.285,0,0,1,.308-1.494,1.5,1.5,0,0,1,.616,1.245,1.6,1.6,0,0,1-.21.747c.42-.341.832-.675,1.225-.989a3.742,3.742,0,0,1-.157-.616,9.825,9.825,0,0,1,.039-1.455,1.265,1.265,0,0,1,.413,1.835c1.3-1.048,2.28-1.848,2.28-1.848s-2.516-3.4-2.969-3.368a8.771,8.771,0,0,0-4.122,2.2C246.058,608.182,244.525,614.754,244.656,615.233Zm6.114-7.667a6.074,6.074,0,0,1-.2-1.638c.072-.577.793-1.074.865-.813A3.529,3.529,0,0,1,250.77,607.566Zm-3.395,1.114a4.633,4.633,0,0,1,1.783-2.2,9.281,9.281,0,0,1,.334,2.248,12.659,12.659,0,0,1-1.887,2.647A5.828,5.828,0,0,1,247.375,608.68Zm-1.979,3.761c-.236-.682.609-1.828.609-1.828a9.614,9.614,0,0,1,.577,2.1,4.073,4.073,0,0,1-.138,1.1A4,4,0,0,1,245.4,612.442Z" transform="translate(-239.975 -432.252)" fill="#b28e4d"/>
          <path id="Path_132" data-name="Path 132" d="M272.576,568.509l-.695,2.32s-.262-1.92-.917-1.553-.852.557-1.442.072-1.16-1.4-1.756-1.552-2.366-.708-2.366-.708a13.908,13.908,0,0,1,2.765-.373,5.294,5.294,0,0,1,1.658.609c.419.21.74-.308,1.33-.026A7.1,7.1,0,0,1,272.576,568.509Z" transform="translate(-247.128 -419.171)" fill="#b28e4d"/>
          <path id="Path_133" data-name="Path 133" d="M266.011,572.065s-.236,3.027,1.035,3.788a18.116,18.116,0,0,1,2.575,1.979A28.088,28.088,0,0,0,268,574.621a13.07,13.07,0,0,1-1-1.763,25.755,25.755,0,0,1,2.189,2.4,12.926,12.926,0,0,0,1.179,1.435,4.953,4.953,0,0,0,.944-1.789,23.687,23.687,0,0,1,.754-2.982,11.1,11.1,0,0,0-1.559,1.441c-.289.446.419-1.363-.144-1.907s-1.153-.839-1.4-.544-.164,1.107-.164,1.107-.741-.026-.911-.629-.059-1.56-.413-1.508A4.066,4.066,0,0,0,266.011,572.065Z" transform="translate(-247.333 -420.269)" fill="#b28e4d"/>
          <path id="Path_134" data-name="Path 134" d="M246.64,580.6a61.736,61.736,0,0,1,3.565-6.068,18.239,18.239,0,0,1,3.984-3.591c.57-.387,1.4.812.419,1.52a40.709,40.709,0,0,0-4.141,3.015A52.055,52.055,0,0,0,246.64,580.6Z" transform="translate(-240.662 -420.607)" fill="#b28e4d"/>
          <path id="Path_135" data-name="Path 135" d="M259.83,572.92s1.213.02,1.488.871a3.479,3.479,0,0,0,1.12,1.959l.577.354a14.347,14.347,0,0,1-3.263-.59,2.558,2.558,0,0,1-.662-1.625C259.083,573.569,259.83,572.92,259.83,572.92Z" transform="translate(-244.953 -421.315)" fill="#b28e4d"/>
          <path id="Path_136" data-name="Path 136" d="M264.766,568.907a7.593,7.593,0,0,0-2.051-.891c-.721-.085-1.068.662-1.488.642s-.976-.334-1.389.242a3.432,3.432,0,0,1-.708.773,2.229,2.229,0,0,0,1.245,1.186c.825.216,1.251.609,1.756.235a1.506,1.506,0,0,0,.472-1.146S265.25,569.956,264.766,568.907Z" transform="translate(-244.967 -419.622)" fill="#b28e4d"/>
          <path id="Path_137" data-name="Path 137" d="M255.068,576.626s-2.182,2.169-2.208,2.6.426,1.042.813.609.826-.688,1.383-1.212S256.595,576.115,255.068,576.626Z" transform="translate(-242.806 -422.563)" fill="#b28e4d"/>
          <path id="Path_138" data-name="Path 138" d="M250.932,580.635c-.38.177-1.252,1.593-1,2.077s.5,1.854,1.343.976S251.64,580.307,250.932,580.635Z" transform="translate(-241.782 -423.964)" fill="#b28e4d"/>
          <path id="Path_139" data-name="Path 139" d="M243.91,586.161s-1.12,1.095-1.016,1.344a7.642,7.642,0,0,1,.38,1.376c.079.485-.518.328-.983.825a3.925,3.925,0,0,0-.878,2.2c.1.374,1.3.23,1.048.714s-1.579,1.4-1.933,2.058a10.166,10.166,0,0,0-1.094,3.7c.125.787,1.33.452,1.4,1.036s1.92-4.148,1.94-4.915a5.711,5.711,0,0,1,1.035-2.241,23.613,23.613,0,0,0,1.311-3.041c.079-.393,1.311-2.988,1.278-3.283s-.74-.518-1.147-.131A2.275,2.275,0,0,1,243.91,586.161Z" transform="translate(-238.174 -425.684)" fill="#b28e4d"/>
          <path id="Path_140" data-name="Path 140" d="M240.152,607.255l-1.822,6.389s.577-4.882.6-5.694a5.113,5.113,0,0,1,.544-1.789Z" transform="translate(-237.797 -432.773)" fill="#b28e4d"/>
          <path id="Path_141" data-name="Path 141" d="M258.377,598.652l-.806.878s-8.565,1.848-10.131,2.772-3.211,3.722-4.253,8.7a19.808,19.808,0,0,0-.36,7.857l.007,4.318s-1.527-3.3-1.514-4.98a65.907,65.907,0,0,1,1.442-10.144,19.171,19.171,0,0,1,2.47-5.341,10.414,10.414,0,0,1,2.667-2.444C248.246,600.179,256.208,598.18,258.377,598.652Z" transform="translate(-238.828 -430.16)" fill="#b28e4d"/>
          <path id="Path_142" data-name="Path 142" d="M256.868,636.911s-3.545,3.906-5.773,4.351-6.107-.82-6.514-1.684-2.687-8.624-2.687-8.624l-.524-1.265s.026,5.236.976,7.261,1.933,4.712,3.23,4.947a9.027,9.027,0,0,0,6.324-.157A8.126,8.126,0,0,0,256.868,636.911Z" transform="translate(-238.845 -440.884)" fill="#b28e4d"/>
          <path id="Path_143" data-name="Path 143" d="M273.432,621.01s-6.73,1.8-7.018,1.92,4.8.629,5.354,1.632a4.6,4.6,0,0,1,.583,1.278l.38-2a13.224,13.224,0,0,0-2.248-1c-.917-.255-1.422-.4-1.422-.4Z" transform="translate(-247.474 -437.892)" fill="#b28e4d"/>
          <path id="Path_144" data-name="Path 144" d="M370.416,637.806s-1.114-4.875-2.044-5.334-2.1-.2-1.645,2.025a11.159,11.159,0,0,0,.747,2.719,16.737,16.737,0,0,0,.092-2.149,7.332,7.332,0,0,1,.688,1.933C368.516,638.2,370.416,637.806,370.416,637.806Z" transform="translate(-282.022 -441.778)" fill="#b28e4d"/>
          <path id="Path_145" data-name="Path 145" d="M363.49,613.43s2.018,5.557,1.946,7.116-.321,4.345-.321,4.345a6.98,6.98,0,0,0-1.035,2.2c-.288,1.192-1.73-3.847-1.651-6.029s1-5.262,1.029-4.751.538,3.827.491,5.072a2.092,2.092,0,0,0,.459,1.665S363.287,614.472,363.49,613.43Z" transform="translate(-280.574 -435.279)" fill="#b28e4d"/>
          <path id="Path_146" data-name="Path 146" d="M362.764,587.437s-1.664.458-1.605,1.8a39.783,39.783,0,0,0,.675,4.5,5.767,5.767,0,0,0,.459,1.671,33.426,33.426,0,0,0,.2-4.561c-.157-1.127,1.114-1.906,1.114-1.906S363.63,587,362.764,587.437Z" transform="translate(-280.137 -426.297)" fill="#b28e4d"/>
          <path id="Path_147" data-name="Path 147" d="M381.938,571.79l-1.488,1.829.38,1.376s1.887-.269,1.691-1.082S381.938,571.79,381.938,571.79Z" transform="translate(-286.787 -420.925)" fill="#b28e4d"/>
          <path id="Path_148" data-name="Path 148" d="M373.948,572.8s1.134.086,1.357.892-.393,1.271-1.3.9S372.618,573.141,373.948,572.8Z" transform="translate(-284.263 -421.273)" fill="#b28e4d"/>
          <path id="Path_149" data-name="Path 149" d="M370.157,572.39a1.068,1.068,0,0,1-.046,1.075,2.475,2.475,0,0,1-1.8.852C367.844,574.2,368.434,572.744,370.157,572.39Z" transform="translate(-282.549 -421.132)" fill="#b28e4d"/>
          <path id="Path_150" data-name="Path 150" d="M368.193,575.944s.76.216,1.337.314a2.992,2.992,0,0,1,1.461.766,1.935,1.935,0,0,0,1.363.276c.413-.007.223.878-.118.878a10.764,10.764,0,0,1-1.389-.465c-.5-.125-.537-.164-.931-.053a.907.907,0,0,1-.97-.472c-.072-.256-.682-.793-.97-.5a.981.981,0,0,0-.262,1.238c.288.538,1.107.452,1.219.7s-.183.878-.092,1.206.308.911.635.773.806-1.658.976-1.009-.557.708-.183,1.717.118,1.448.819,1.3,1.114-.229,1.239-.74a7.036,7.036,0,0,0-.616-2.254s.295-.681.852-.281,1.081.445,1.428.026-.459-2.006-.695-2.543-1.166-.97-1.763-1.252S369.064,574.711,368.193,575.944Z" transform="translate(-282.354 -422.097)" fill="#b28e4d"/>
          <path id="Path_151" data-name="Path 151" d="M364.11,576.871a5.525,5.525,0,0,0,2.123-.256c.544-.334.459-1.3.393-1.383s1.252-1,.878-1.186a2.321,2.321,0,0,0-2.116.885C364.975,575.639,364.11,576.871,364.11,576.871Z" transform="translate(-281.154 -421.688)" fill="#b28e4d"/>
          <path id="Path_152" data-name="Path 152" d="M365.855,579.729s-1.225-.918-2.025-.466-1.238,1.284-.924,1.625a1.323,1.323,0,0,0,1.252.413c.636-.033,1.258.2,1.645.1S367.047,580.273,365.855,579.729Z" transform="translate(-280.704 -423.458)" fill="#b28e4d"/>
          <path id="Path_153" data-name="Path 153" d="M364.962,586.531c-.04-.15-.675-2.477-.249-3.106s1.127-1.284,2.09-.825a2.842,2.842,0,0,1,1.619,1.527c.066.4-.21.412-.813,1.258s-1.337,1.369-1.533,1.841l-.2.472s-1.167-1.206-.557-2.025,1.343-1,1.206-1.5-.832-.164-1.324.564A2.6,2.6,0,0,0,364.962,586.531Z" transform="translate(-281.312 -424.598)" fill="#b28e4d"/>
          <path id="Path_154" data-name="Path 154" d="M366.973,592.343c.183.3,1.494.38,1.619-.256a2.865,2.865,0,0,0-.276-1.592c-.125-.288-.97-1.167-1.18-.419S366.4,591.438,366.973,592.343Z" transform="translate(-282.052 -427.127)" fill="#b28e4d"/>
          <path id="Path_155" data-name="Path 155" d="M369.617,585.15s-.767,1.6-.531,2.274.616.806,1.074.675,1.409-1.062.977-1.625S370.344,585.275,369.617,585.15Z" transform="translate(-282.854 -425.53)" fill="#b28e4d"/>
          <path id="Path_156" data-name="Path 156" d="M373.793,583.256c-.852.335.452,1.488,1.081,1.927s1.868.563,1.861-.308A2.35,2.35,0,0,0,373.793,583.256Z" transform="translate(-284.395 -424.836)" fill="#b28e4d"/>
          <path id="Path_157" data-name="Path 157" d="M371.02,586.292c.354.112,1.035,1.54,1.841,1.14s.635-2.241.635-2.241.341-.9.931.007.393,1.14.734,1.369,1.134-.216,1.4.4.5,1.16-.4,1.4-1.33-.282-1.291.354,1.029,1.382,1.409,1.422a2.565,2.565,0,0,1,1.75.308c.93.531,1.71,1.521.485,1.77s-1.658-.321-2.372-.57-1.625-1.861-2.031-2.091-.747.275-1.258.419-1.54.007-1.6-.485S371.02,586.292,371.02,586.292Z" transform="translate(-283.536 -425.408)" fill="#b28e4d"/>
          <path id="Path_158" data-name="Path 158" d="M370.423,590.53a16.321,16.321,0,0,0-1.2,2.549c-.026.426-.918.7-1.127.623s-.826,1.035-.5,1.54,1.108.492,1.179.072,1.042.563,1.3.675,1.455-.4,1.284-.767-.21-3.453-.361-3.643S370.423,590.53,370.423,590.53Z" transform="translate(-282.324 -427.385)" fill="#b28e4d"/>
          <path id="Path_159" data-name="Path 159" d="M372.271,593.565a10.543,10.543,0,0,1,.839.708c.295.295.878,1.075.963.026s.78-2.543,1.068-2.549,1.12,1.4,1.6,1.815a4.534,4.534,0,0,0,1.474.839c.57.216,1.461.76.727.773a10.541,10.541,0,0,0-2.005-.046c-.564.151-1.35.826-1.842.872a6.1,6.1,0,0,0-1.691.412c-.321.183-1.042-.072-1.474-1.14A1.49,1.49,0,0,1,372.271,593.565Z" transform="translate(-283.805 -427.806)" fill="#b28e4d"/>
          <path id="Path_160" data-name="Path 160" d="M378.44,595.11a8.865,8.865,0,0,0,.839,3.053c.616.9.472,1.54.832,2.182a3.168,3.168,0,0,0,1.547,1.428c.432.066,1.4.079,1.147-.963a9.257,9.257,0,0,0-2.438-3.5A14.82,14.82,0,0,1,378.44,595.11Z" transform="translate(-286.094 -428.964)" fill="#b28e4d"/>
          <path id="Path_161" data-name="Path 161" d="M371.4,596.82c0,.249,1.088,1.8.439,2.673s-.452-.144-1.363-.57-2.045-.354-2.222.275-.341,1.867.059,2.156.7-.635,1.422-.386,1.114,1.022,1.435,1.258,1.409-.432,1.691-.695a4.246,4.246,0,0,1,1.586-.76c.688-.19,1.35.138,1.265-.485s-.432-1.763-1.153-1.592-1.107-.046-1.245-.544S371.4,596.82,371.4,596.82Z" transform="translate(-282.518 -429.554)" fill="#b28e4d"/>
          <path id="Path_162" data-name="Path 162" d="M372.034,603.15a9.4,9.4,0,0,0-1.527,1.7c-.295.6-1.094,1.33-.825,2.09s1.2,1.291,1.369.734,1.239-.047,1.37.439-.216,1.232.891.884,2.136-.478,2.208-1.73-.249-2.09-.76-1.763-.983.917-1.815.17S373,603.628,372.034,603.15Z" transform="translate(-283.056 -431.735)" fill="#b28e4d"/>
          <path id="Path_163" data-name="Path 163" d="M379.246,606.81s1.553.426,1.762,1.029.57,1.245.026,1.717-.944.859-1.435.577a4.345,4.345,0,0,1-1.4-1.226C378.007,608.54,378.99,607.065,379.246,606.81Z" transform="translate(-286.002 -432.996)" fill="#b28e4d"/>
          <path id="Path_164" data-name="Path 164" d="M370.443,609a6.957,6.957,0,0,1,.262,2.392c-.138,1.009-.944,1.881-.708,2.693s.354,1.291.354,1.291a7.686,7.686,0,0,1,.845-1.3c.433-.491,1.573-.616,1.546-1.442s-.164-2.044-.164-2.012-.367.858-.852.439A10.025,10.025,0,0,1,370.443,609Z" transform="translate(-283.169 -433.752)" fill="#b28e4d"/>
          <path id="Path_165" data-name="Path 165" d="M375.07,610.41a27.156,27.156,0,0,1,1.016,3.716c.039.819-.511,1.16-.433,1.782s-.072,1.593.629,1.449,1.973-1.232,1.684-1.8a14,14,0,0,1-1.311-2.766,18.94,18.94,0,0,0-.885-2.267Z" transform="translate(-284.932 -434.238)" fill="#b28e4d"/>
          <path id="Path_166" data-name="Path 166" d="M370.337,616.31s-.059,2.988-.131,3.905a15.47,15.47,0,0,1-.334,2.169c-.19,1-.786,1.718-.55,2.49s.36,2.077.858,1.848a1.49,1.49,0,0,0,.786-1.926,3.459,3.459,0,0,1-.026-2.4c.151-.642,1.311-1.377,1.035-2.091S370.337,616.31,370.337,616.31Z" transform="translate(-282.932 -436.272)" fill="#b28e4d"/>
          <path id="Path_167" data-name="Path 167" d="M373.33,617.309a27.427,27.427,0,0,0-.033,3.945,1.439,1.439,0,0,1-.354,1.573c-.478.453-.9.341-1.193,1.16s.236,1.906.072,2.2.675,1.166.656.472.059-1.5.328-1.573a5.327,5.327,0,0,0,1.645-1.468c.282-.492,1.3-.865.97-1.888S374.411,617.2,373.33,617.309Z" transform="translate(-283.756 -436.615)" fill="#b28e4d"/>
          <path id="Path_168" data-name="Path 168" d="M380.077,612.965s-.878,1.907-.164,2.451,1.265.858,1.743.589a.943.943,0,0,0,.6-1C382.226,614.551,381.931,612.3,380.077,612.965Z" transform="translate(-286.505 -435.076)" fill="#b28e4d"/>
          <path id="Path_169" data-name="Path 169" d="M379.665,622.76a5.608,5.608,0,0,1,1.049,1.979,1.12,1.12,0,0,1-1.16,1.52c-.531-.085-1.134-1.448-1.206-1.887S379.167,623.127,379.665,622.76Z" transform="translate(-286.061 -438.495)" fill="#b28e4d"/>
          <path id="Path_170" data-name="Path 170" d="M379.861,629.98s1.5.511,1.717,1.475-.773,1.6-1.245,1.219a2.574,2.574,0,0,1-.819-1.488A2.242,2.242,0,0,1,379.861,629.98Z" transform="translate(-286.46 -440.983)" fill="#b28e4d"/>
          <path id="Path_171" data-name="Path 171" d="M373.81,632.54a28.693,28.693,0,0,1,.315,3.932c-.131.531-.977.373-1.219-.289S372.827,632.619,373.81,632.54Z" transform="translate(-284.151 -441.866)" fill="#b28e4d"/>
          <path id="Path_172" data-name="Path 172" d="M373.742,639.84a3.429,3.429,0,0,1,.95,2.575,7.266,7.266,0,0,1-.871,3.2,7,7,0,0,1-.374-2.8A19.822,19.822,0,0,1,373.742,639.84Z" transform="translate(-284.371 -444.382)" fill="#b28e4d"/>
          <path id="Path_173" data-name="Path 173" d="M374.416,649.46a9.205,9.205,0,0,1,.6,2.182c-.033.563-1.337.3-1.415-.321S374.416,649.46,374.416,649.46Z" transform="translate(-284.423 -447.699)" fill="#b28e4d"/>
          <path id="Path_174" data-name="Path 174" d="M375.712,656.79s1.088,2.169.695,2.523-.518.02-.931-.426S375.712,656.79,375.712,656.79Z" transform="translate(-285.024 -450.225)" fill="#b28e4d"/>
          <path id="Path_175" data-name="Path 175" d="M376.161,664.505a11.176,11.176,0,0,1,.275,2.575c-.118.708-.9.99-1.225.026S375.289,663.824,376.161,664.505Z" transform="translate(-284.942 -452.842)" fill="#b28e4d"/>
          <path id="Path_176" data-name="Path 176" d="M376.732,672.43s.5,2.392-.111,2.621-1.625.138-1.533-.878S376.732,672.43,376.732,672.43Z" transform="translate(-284.936 -455.616)" fill="#b28e4d"/>
          <path id="Path_177" data-name="Path 177" d="M376.844,679.47s.21,2.72-.138,2.261a3.13,3.13,0,0,1-.767-1.521C375.94,679.784,376.844,679.47,376.844,679.47Z" transform="translate(-285.232 -458.043)" fill="#b28e4d"/>
          <path id="Path_178" data-name="Path 178" d="M377.258,684.587s.491,1.468-.125,1.638-1.14-.9-1.022-1.324S377.153,684.175,377.258,684.587Z" transform="translate(-285.286 -459.74)" fill="#b28e4d"/>
          <path id="Path_179" data-name="Path 179" d="M376.08,690.91a6.436,6.436,0,0,1-1.16,1.7c-.472.315-1.73-1.933-1.73-1.933a24.719,24.719,0,0,0,.419,4.745,38.9,38.9,0,0,0,1.691,4.305,8.893,8.893,0,0,1-.354-2.635,5.5,5.5,0,0,1,.446-1.926,3.765,3.765,0,0,0,.295-1.8C375.687,693.052,377,691.906,376.08,690.91Z" transform="translate(-284.284 -461.907)" fill="#b28e4d"/>
          <path id="Path_180" data-name="Path 180" d="M377.256,574.638s3.794-.144,4.109,1.343.537,2.975.78,4.541-.177,2.182.485,3.7a9.978,9.978,0,0,1,1.068,3.9c-.118.681-.419,2.778.177,3.873a10.858,10.858,0,0,1,1.14,4.607,28.038,28.038,0,0,0,.524,4.875c.216,1.724-.845,5.065-.872,5.9s.085,4.233.151,5.511a8.919,8.919,0,0,1-1.042,3.355s-1.946-2.732-1.52-3.538,1.7-1.926,1.37-3.807-.216-4.318-.321-5.124.891-2.156.282-4.273-1.16-4.371-1.429-5.223-.269-3.905-.485-4.862-.989-3.794-1.376-5.033-.472-3.25-.708-3.932-2.2-1.081-2.648-2.215S375.52,574.677,377.256,574.638Z" transform="translate(-285.343 -421.905)" fill="#b28e4d"/>
          <path id="Path_181" data-name="Path 181" d="M334.337,516.676s-7.149-1.468-7.575-1.349-3.067,2.673-.2,2.5,7.359.557,7.5.275S335.661,517.515,334.337,516.676Z" transform="translate(-267.758 -401.46)" fill="#b28e4d"/>
          <path id="Path_182" data-name="Path 182" d="M356.9,631.25s-2.674,1.258-3.978-.125A5.885,5.885,0,0,1,351.45,628s.033,3.041.138,4.784.459,2.136.459,2.136,1.861-1.927,2.726-2.065S356.9,631.25,356.9,631.25Z" transform="translate(-276.79 -440.301)" fill="#b28e4d"/>
          <path id="Path_183" data-name="Path 183" d="M345.779,618.3s-1.317,4.017-2.208,5.138-2.811,3.27-2.811,3.27a2.32,2.32,0,0,0,2.313-.354c.957-.911,3.788-4.089,3.788-4.089Z" transform="translate(-273.106 -436.957)" fill="#b28e4d"/>
          <path id="Path_184" data-name="Path 184" d="M391.34,522.32s1.808,3.44,2.116,4.358,1.756,5.052,2.175,5.911-3.178,6.657-3.178,6.657,2.359-5.583,1.73-7.877S391.34,522.32,391.34,522.32Z" transform="translate(-290.541 -403.873)" fill="#b28e4d"/>
          <path id="Path_185" data-name="Path 185" d="M383.046,513.48s1.953.269,2.182.865a19.658,19.658,0,0,1,.76,2.208,11.056,11.056,0,0,0,.321,1.154s-1.147-1.258-1.461-1.481a1.342,1.342,0,0,0-.766-.19,11.018,11.018,0,0,1,1.14,1.566l.125.367a9.184,9.184,0,0,0-2.359-2.411c-.983-.439-2.077-.819-2.077-.819Z" transform="translate(-286.945 -400.825)" fill="#b28e4d"/>
          <path id="Path_186" data-name="Path 186" d="M312.814,414.18s-6.828,2.49-8.676,3.427-6.448,3.742-6.448,3.742,4.607-.275,6.061-.609,2.929-.8,2.929-.8-4.653.347-5.374.426,5.537-2.877,7.077-3.6S312.814,414.18,312.814,414.18Z" transform="translate(-258.259 -366.596)" fill="#b28e4d"/>
          <path id="Path_187" data-name="Path 187" d="M293.345,434.67s-1.986,1.468-1.868,3.381,4.115,7.2,4.148,7.333-3.178-5.006-3.034-6.016,2.2-3.146,2.025-3.748S293.345,434.67,293.345,434.67Z" transform="translate(-256.116 -373.659)" fill="#b28e4d"/>
          <path id="Path_188" data-name="Path 188" d="M289.153,442.2a3.269,3.269,0,0,0,1.153,4.2,35.6,35.6,0,0,0,4.43,3.106s-4.233-1.2-4.522-1.4-1.357.282-1.357.282-.57-.557-.413-2.281A29.8,29.8,0,0,1,289.153,442.2Z" transform="translate(-255.063 -376.255)" fill="#b28e4d"/>
        </g>
      </g>
    </g>
  </g>
</svg>
