<svg xmlns="http://www.w3.org/2000/svg" width="141" height="89.686" viewBox="0 0 141 89.686">
  <g id="الشعار_بصيغة_SVG_ابيض" data-name="الشعار بصيغة SVG ابيض" transform="translate(-157.51 -278.1)">
    <path id="Path_191" data-name="Path 191" d="M348.92,302.492s4.635-3.234,6.814-6.275,4.98-7.16,3.655-14.273a7.356,7.356,0,0,1,1.127,7.788s4.476-6.4,5.391-11.632c0,0,2.1,3.113-3.236,13.2a16.277,16.277,0,0,0,7.685-9.434,16.165,16.165,0,0,1-6.471,12.76l-.781,1.461s.806-.669,1.636-1.373l.829-.706a9.447,9.447,0,0,1-3.057,2.949s4.424,1.34,8.982-6.744c0,0,1.873,6.61-7.765,10.015l-1.009.8a2.719,2.719,0,0,0,1.936-.275,14.865,14.865,0,0,0,2.021-1.48,3.362,3.362,0,0,1-.871,1.248l-.465.283a9.421,9.421,0,0,0,2.44-1.707c.969-1.017,1.044-1.084,1.044-1.084s-1.894,2.707-2.661,3.109l-.838.438a9.775,9.775,0,0,0,1.892-.615c.465-.288.556-.361.556-.361a6.158,6.158,0,0,1-2.4,1.6,13.056,13.056,0,0,1-3.62.369,6.613,6.613,0,0,0,2.917.336c2.192-.042,6.5-1.876,6.5-1.876a20.388,20.388,0,0,1-1.642,1.232,4.453,4.453,0,0,0,1.319-.665l.7-.479a14.014,14.014,0,0,1-1.773,2.451,10,10,0,0,1-2.742,1.709,5.8,5.8,0,0,0,2.267-.525c.7-.465.7-.465.7-.465a5.278,5.278,0,0,1-3.382,1.469,15.682,15.682,0,0,1-4.455-.233,3.361,3.361,0,0,0,1.863.736c.863-.06,1.275-.125,1.275-.125l-.975.35s.308.423,2.221.123a5.924,5.924,0,0,0,2.978-1.311,2.619,2.619,0,0,1-1.311,1.334,6.617,6.617,0,0,0,1.719-1.013l.652-.594a5.389,5.389,0,0,1-3.572,3.165c-2.663.65-3.038-.19-3.038-.19a6.562,6.562,0,0,0,4.432,1.9s-.179.16-.677.09c0,0,1.867,1.63,5.643,1.361,0,0-1.884,1.634-5.641.746a18.769,18.769,0,0,1-5.012-1.678,17.871,17.871,0,0,0,2.692,1.721l.761.271-1.753-.511a10.213,10.213,0,0,0,2.417,1.365l.932.256-2.084-.436s-.377.2,2.048.892,2.6.694,2.6.694-3.13.7-4.4.248-6.333-4.349-6.333-4.349,2.574,3.772,3.265,4.695a14.171,14.171,0,0,0,2.08,2.288l1.7,1.259-1.746-.081a5.991,5.991,0,0,1-4.287-2.707c-1.886-2.63-2.672-4.395-3.472-5.564s-1.325-1.282-1.325-1.282,1.828,4.4,2.092,5.3a9.627,9.627,0,0,0,2.83,4.095l1.236.779s-1.725-.006-3.914-2.282-2.765-4.849-3.193-5.593-1.184-1.815-1.184-1.815a28.583,28.583,0,0,0,1.415,4.291,11.677,11.677,0,0,0,1.115,2.09,18.4,18.4,0,0,1-2.507-2.619c-.9-1.254-2.088-3.484-2.847-3.868S348.321,304.4,348.92,302.492Z" transform="translate(-151.807 0)" fill="#4d3c1c"/>
    <path id="Path_192" data-name="Path 192" d="M184.119,326.645s-5.389-1.7-8.375-3.957-6.889-5.352-7.744-12.533a7.356,7.356,0,0,0,1.246,7.771s-6.181-4.774-8.613-9.5c0,0-1.075,3.6,7.025,11.634a16.279,16.279,0,0,1-10.149-6.714,16.167,16.167,0,0,0,9.98,10.251l1.182,1.161s-.969-.4-1.971-.823l-1-.427a9.419,9.419,0,0,0,3.8,1.9s-3.822,2.6-10.582-3.759c0,0,.181,6.866,10.4,7.246l1.2.467a2.721,2.721,0,0,1-1.932.315,14.93,14.93,0,0,1-2.371-.811,3.349,3.349,0,0,0,1.2.932l.529.131a9.449,9.449,0,0,1-2.836-.9c-1.225-.681-1.321-.723-1.321-.723s2.615,2.019,3.468,2.173.931.167.931.167a9.8,9.8,0,0,1-1.988-.023c-.529-.135-.638-.177-.638-.177a6.153,6.153,0,0,0,2.772.811,13.077,13.077,0,0,0,3.566-.727,6.667,6.667,0,0,1-2.686,1.19c-2.1.615-6.76.148-6.76.148a20.1,20.1,0,0,0,1.936.686,4.355,4.355,0,0,1-1.457-.242l-.811-.248a13.947,13.947,0,0,0,2.421,1.809,10.011,10.011,0,0,0,3.126.815,5.815,5.815,0,0,1-2.321.175l-.811-.233a5.276,5.276,0,0,0,3.668.394,15.732,15.732,0,0,0,4.182-1.55,3.349,3.349,0,0,1-1.559,1.257c-.84.2-1.255.261-1.255.261l1.034.044s-.167.5-2.084.779a5.934,5.934,0,0,1-3.234-.363,2.616,2.616,0,0,0,1.65.881,6.657,6.657,0,0,1-1.942-.454l-.8-.373a5.384,5.384,0,0,0,4.353,1.957c2.738-.175,2.844-1.088,2.844-1.088a6.562,6.562,0,0,1-3.666,3.136s.219.1.673-.117c0,0-1.3,2.111-4.981,2.982,0,0,2.286,1,5.606-.969a18.731,18.731,0,0,0,4.282-3.095,18.211,18.211,0,0,1-2.055,2.446l-.646.486,1.521-1.009a10.3,10.3,0,0,1-1.9,2.026l-.813.523,1.859-1.038s.419.077-1.69,1.463-2.276,1.438-2.276,1.438,3.2-.267,4.278-1.075,4.749-6.041,4.749-6.041-1.332,4.368-1.717,5.456a14.335,14.335,0,0,1-1.3,2.8l-1.25,1.709,1.644-.6a5.989,5.989,0,0,0,3.284-3.861c1.017-3.072,1.242-4.991,1.655-6.348s.884-1.619.884-1.619-.433,4.747-.415,5.687a9.6,9.6,0,0,1-1.482,4.753l-.946,1.113s1.646-.521,3.057-3.345a16.9,16.9,0,0,0,1.38-6.291c.185-.84.59-2.086.59-2.086a28.55,28.55,0,0,1-.071,4.518,11.558,11.558,0,0,1-.442,2.328,18.53,18.53,0,0,0,1.611-3.247c.488-1.467.954-3.949,1.565-4.541S185.257,328.285,184.119,326.645Z" transform="translate(0 -24.01)" fill="#4d3c1c"/>
    <g id="Group_24" data-name="Group 24" transform="translate(174.183 305.036)">
      <g id="Group_23" data-name="Group 23">
        <g id="Group_21" data-name="Group 21">
          <path id="Path_193" data-name="Path 193" d="M279.674,410.79l-4.774,4.762,1.834,4.545,5.2.45-.231-7.96Z" transform="translate(-267.11 -410.79)" fill="#1d1d1b"/>
          <path id="Path_194" data-name="Path 194" d="M242.225,576.88l-3.245,4.645-1.461,9.188,2.086,5.3,4.114.619,3.086-2.249,1.49-5.228-1.817-10.393Z" transform="translate(-237.52 -542.269)" fill="#1d1d1b"/>
          <path id="Path_195" data-name="Path 195" d="M430.377,464.515l-4.141-11.022,2.006-2.647V439.84l-4.59-6.06h-.087l-.072-.1h-.087l-.072-.1h-.087l-.072-.1h-.087l-.072-.1h-.087l-.072-.1h-.087l-.072-.1h-.087l-.074-.1h-.085l-.074-.1H422.3l-.074-.1h-.085l-.074-.1h-.085l-.074-.1h-.085l-.074-.1h-.085l-.074-.1H421.5l-.074-.1h-.087l-.072-.1h-.087l-.072-.1h-.087l-.072-.1h-.087l-.072-.1h-.087l-.072-.1h-.087l-.072-.1h-.087l-.072-.1h-.087l-.072-.1h-.087l-.072-.1h-.087l-.072-.1h-.087l-.072-.1h-.087l-.072-.1h-.087l-.072-.1h-.087l-.072-.1h-.087l-.072-.1h-.087l-.074-.1H418.8l-.074-.1h-.084l-.074-.1h-.085l-.074-.1h-.085l-.074-.1h-.085l-.074-.1H418l-.072-.1h-.087l-.072-.1h-.087l-.072-.1h-.087l-.072-.1h-.087l-.072-.1H378.459l-.544,1.446h-.146v-.1h-.159v-.1h-.159v-.1h-.159v-.1h-.159v-.1h-.159v-.1h-.159v-.1h-.161v-.1H376.5v-.1h-.159v-.1h-.159v-.1h-.159v-.1h-.159v-.1H375.7v-.1h-.159v-.1h-6.935v0l-.052,0h-.107v-.1l-.159.01v-.106l-.159.011v-.106l-7.052.438-7.05-.438v1.926l-.07-.092h-.087l-.072-.1h-.087l-.072-.1h-.087l-.072-.1H353.4l-.072-.1h-.087l-.074-.1h-.085l-.074-.1h-.085l-.074-.1h-.085l-.074-.1H352.6l-.074-.1h-.085l-.074-.1h-.085l-.074-.1h-.085l-.074-.1h-.085l-.074-.1h-.087l-.072-.1h-.087l-.072-.1h-.087l-.072-.1H335.6V431.5l-2.99-2.384-5.056,6.491,3.784,5.818,4.262.959v18.274h.159v.1h.161v.1h.159v.1h.159v.1h.159v.1h.025L324.09,464.65H347.6l-.146-.135h10.886l.511-.675.1-.006v.106l.159-.01v.106l.159-.01v.106l.159-.008v.106l.159-.01v.106l.159-.01v.106l.159-.01v.106l.159-.008v.106l.159-.01v.106l.159-.01v.106l7.052-.438,7.052.438v-.292H381.9v-2.023h.07l.037.1h.122l.037.1h.122l.037.1h.122l.037.1h.122l.037.1h.122l.037.1h.122l.037.1h.124l.035.1h.124l.035.1h.124l.035.1h.124l.035.1h.124l.035.1h.124l.035.1h.124l.035.1h.124l.035.1h.124l.035.1h.124l.035.1h.124l.035.1h.124l.037.1h.122l.037.1h.122l.037.1H416.94v-2.023h.078l.033.1h.126l.033.1h.126l.033.1h.126l.033.1h.126l.033.1h.126l.033.1h.126l.033.1h.126l.033.1h.126l.033.1h.126l.033.1h.126l.033.1h.126l.033.1h.126l.033.1h.126l.033.1h.126l.033.1h.128l.031.1h.128l.031.1h.128l.033.1h.126l.033.1h.126l.033.1h.126l.033.1Z" transform="translate(-306.05 -425.3)" fill="#4d3c1c"/>
        </g>
        <g id="Group_22" data-name="Group 22" transform="translate(30.797 6.727)">
          <path id="Path_196" data-name="Path 196" d="M406.654,448.127v6.185l-1.692,1.836,2.267,2.474v7.048q-1.663,2.176-3.328,4.349H390.7V443.78h12.626Q404.989,445.952,406.654,448.127Zm-11.134,6.26h6.227V448.8H395.52Zm0,10.609h6.714v-6.26H395.52Z" transform="translate(-390.7 -443.632)" fill="#fff"/>
          <path id="Path_197" data-name="Path 197" d="M480.06,469.606V464.7l2.467-.187V448.167l-2.467-.188v-4.91l4.878.3,4.878-.3v4.91l-2.467.188v16.342l2.467.188v4.91l-4.878-.3Z" transform="translate(-461.438 -443.07)" fill="#fff"/>
          <path id="Path_198" data-name="Path 198" d="M539.69,470.018V443.78h4.82v10.194h2.87q1.938-5.1,3.874-10.194h5.337q-2.5,6.186-4.993,12.37,2.713,6.933,5.424,13.868h-5.4q-2.01-5.286-4.018-10.57h-3.1v10.57Z" transform="translate(-508.642 -443.632)" fill="#fff"/>
          <path id="Path_199" data-name="Path 199" d="M629.75,470.018V443.78h14.118v5.247h-9.3v5.1h7.862v5.022H634.57v5.622h9.584v5.247Q636.955,470.019,629.75,470.018Z" transform="translate(-579.934 -443.632)" fill="#fff"/>
          <path id="Path_200" data-name="Path 200" d="M725.854,448.352v9.484l-2.325,3.036q1.735,4.573,3.472,9.146h-5.4q-1.278-3.71-2.555-7.421h-4.62v7.421h-4.82V443.78h12.741Q724.1,446.065,725.854,448.352Zm-11.422,9.221h6.6V448.8h-6.6Z" transform="translate(-643.152 -443.632)" fill="#fff"/>
        </g>
      </g>
    </g>
    <g id="Group_26" data-name="Group 26" transform="translate(173.805 290.842)">
      <path id="Path_201" data-name="Path 201" d="M240.137,411.614c2.9,1.547,5.435-1.6,6.32-3.114,1.1-1.889,2.742-6.052,2.386-8.4,0,0,.769.3,1.819-.727,0,0,3.861.411,4.507.547a13.456,13.456,0,0,0,3.013-.1,9.65,9.65,0,0,0,1.127-1.1,18.4,18.4,0,0,1,.273,2.765.76.76,0,0,0,.225.813c.14.079.477.163.527.343s.277.508.333.706a4.038,4.038,0,0,0,.227.677c.077.134.113.553.213.7s.365.252.5.467a4.867,4.867,0,0,0,.4.593,7.586,7.586,0,0,0,1.257-.283s.315,2.773.523,4.309a38.781,38.781,0,0,0,.809,4.914c.271.626,1.427,1.615,2.167,1.454s1.65-.273,1.69-2.616-.448-8.723-.448-8.723l-.031-2.383a2.78,2.78,0,0,1,.552.434,1.415,1.415,0,0,0,.952.324c.279-.056.7-.111.708-.347s.071-.952.071-.952.231-.083.24-.2,0-.487,0-.487.283.176.346.043a3.454,3.454,0,0,0-.037-.844s-.35-2.257-.438-3.361-1.229-9.134-1.229-9.134-.115-.415-.315-.5l-.556-3.719,1.765-2.988s.348-.231,0-.8-1.3-2.777-1.3-2.777A8.134,8.134,0,0,0,268,376.4a6.315,6.315,0,0,0-.354-1.284,1.622,1.622,0,0,0-.621-.26s.544-1.937.54-2.168-.7-1.831-.723-2.118a16.77,16.77,0,0,1,.269-3.145c.2-.5.438-.76-.254-.923a5.9,5.9,0,0,1,1.371-.723,2.8,2.8,0,0,1,1.094.054c.521.111,1.271.413,1.507.485s.511.074.625.2a5.255,5.255,0,0,0,1.78-.093c.329-.089.857-.661,1.355-.64a1.725,1.725,0,0,0,.942-.138c.15-.1.423-.543.558-.638s.027.1.275.145.771.025.721-.372-.108-.5-.4-.533c0,0,0-.089.292-.167A4.812,4.812,0,0,1,277.7,364c.069-.018.3-.357.1-.9a2.825,2.825,0,0,0-.89-1.3,2.545,2.545,0,0,0-1.182-.014,2.982,2.982,0,0,1-.938-.037.938.938,0,0,0-.74.2c-.04.068-.327.57-.465.607a1.067,1.067,0,0,1-.575,0c-.181-.068-.8-.293-.859-.337s-1.073-.743-1.259-.884-1.15-.913-1.207-.956a6.042,6.042,0,0,1-1-1.288c-.09-.326-1.394-3.5-1.515-3.933s-.844-.923-1.1-1.365a9.132,9.132,0,0,0-1.732-2.591c-.811-.64-1.83-1.458-1.83-1.458a10.623,10.623,0,0,0,.573-2.4,8.162,8.162,0,0,1,.454-1.815,3.224,3.224,0,0,0-.085-1.216c-.144-.31-.471-1.652-.592-2.085a4.879,4.879,0,0,0-2.061-2.24,8.669,8.669,0,0,0-2.874-.708,3.521,3.521,0,0,0-2.659.867,7.478,7.478,0,0,0-1.773,2.639c-.142.71-.217,1.72-.227,1.84s-.1.929-.171,1.3a4.489,4.489,0,0,0,.1,1.52,4.43,4.43,0,0,0,.142.516s-3.132.865-3.795,1.175a19.17,19.17,0,0,0-2.732,2.257c-.469.434-2.271,2.22-2.471,2.449a16.719,16.719,0,0,1-1.682,1.156,3.242,3.242,0,0,0-.629,1.076c-.148.318-.129.807-.263,1.02s-.356.417-.288.661a7.725,7.725,0,0,1-.067,1.142,15.061,15.061,0,0,0,.319,1.633c.113.407.436,1.951.467,2.061s.14.5.192.692.769.33.877.462a2.573,2.573,0,0,0,.729.56c.229.083.452.037.558.213a1.435,1.435,0,0,0,.244.3,2.345,2.345,0,0,0-.185.6.734.734,0,0,0,.073.374s-.248.111-.279.266.125.929.254.923a4.343,4.343,0,0,0,.527-.114s.2.194.09.268-.821.223-.731.708.746.25.806.2.806-.277.806-.277-.181,1.633-.244,2.079a16.741,16.741,0,0,0,.16,3.952s-3.032-.432-4.164-.475a6.785,6.785,0,0,0-2.9.467c-.065.192.9.716,1.3.987a12.113,12.113,0,0,1,1.123.979,10.913,10.913,0,0,0-.369,4.094,46.751,46.751,0,0,0,1.915,5.866,4.9,4.9,0,0,0-3.682,1.8c-1.834,1.955-3.843,6.545-3.566,13.293S237.239,410.068,240.137,411.614ZM266.6,364.462c-.11.167-1.015.023-1.015.023s-.292-.349-.15-.543.923-.349.923-.349S266.715,364.3,266.6,364.462Zm-.956.551a1.312,1.312,0,0,1,.629-.171,1.428,1.428,0,0,1,.763.415,1.8,1.8,0,0,1-.352.289,1.537,1.537,0,0,1-.879.043C265.542,365.509,265.648,365.014,265.648,365.014Zm-5.11-.985s.631-1.018.771-1.259.8-1.792.936-2.149a7.334,7.334,0,0,1,.477-1.47,1.208,1.208,0,0,1,.629-.171,5.805,5.805,0,0,0,.354,1.07,3.06,3.06,0,0,0,.442.638c.163.161.683.661.852.849a4.544,4.544,0,0,0,.715.886,1.547,1.547,0,0,1,.444.434,6.916,6.916,0,0,1-.667.677c-.081.023-.715.076-1.148.107S260.539,364.029,260.539,364.029Zm-15.079-3.8a2.419,2.419,0,0,1,.073-.875c.019-.142.154-.081.3-.256s.281-.543.463-.669.74-.591,1.15-.876a2.143,2.143,0,0,0,.634-.832s-.2,1.278-.265,1.53a9.809,9.809,0,0,1-.509,1c-.073.165-.431.283-.6.522a3.883,3.883,0,0,0-.258,1.121,2.216,2.216,0,0,0-.113.944l-.142-.157A7.954,7.954,0,0,1,245.46,360.226Zm-3.916,33.335-.592,1.268-.813-1.024C240.571,393.728,241.544,393.56,241.544,393.56Zm.74-2.864a.518.518,0,0,0-.075.37,3.8,3.8,0,0,1,.26.727c-.021.142-.163.764-.163.764l-1.248.242A10.342,10.342,0,0,1,242.284,390.7Zm-3.407,12.8a3.707,3.707,0,0,0,3.643-1.941,2.156,2.156,0,0,0,1.946-2.471s.394-.417.45-.006-.675,4.869-1.6,6.13-1.575,1.613-2.1,1.406A7.792,7.792,0,0,1,238.877,403.5Z" transform="translate(-235.706 -339.248)" fill="#4d3c1c"/>
      <g id="Group_25" data-name="Group 25" transform="translate(0.377 0.483)">
        <path id="Path_202" data-name="Path 202" d="M327.027,385.756a12.141,12.141,0,0,0,1.707,1.573,2.554,2.554,0,0,0,1.853.425c.669-.1.923-1.175,1.327-1.423a2.449,2.449,0,0,0,.686-.717s-.567.154-.913.25a1.544,1.544,0,0,1-.871-.173,16.206,16.206,0,0,0,1.715-.254,5.561,5.561,0,0,0,.942-1.436,3.567,3.567,0,0,0,.431-1.434l-.046.19a.435.435,0,0,1-.26.267l.092-.242a5.367,5.367,0,0,0,.1-1.052,8.987,8.987,0,0,1-.736,1.755,1.841,1.841,0,0,1-1.2.329c-.577.04-.627-.142-.99-.317s-.767-.006-1.207.035a5.332,5.332,0,0,1-2.159-.213,3.348,3.348,0,0,1-1.448-1.134s.379,2,1.382,2.682a6.118,6.118,0,0,0,2.811.7,3.654,3.654,0,0,1-3.057-.419,5.816,5.816,0,0,0,.892.786,7.143,7.143,0,0,1,1.14,1.365A11.005,11.005,0,0,1,327.027,385.756Zm2.751-.592a4,4,0,0,1-1.177-.269,2.209,2.209,0,0,1-.654-.511s1.19.263,1.538.4S329.778,385.164,329.778,385.164Zm1.48-.081a1.243,1.243,0,0,1,.663-.431,3.456,3.456,0,0,1,.775.038,4.109,4.109,0,0,1-.611.3A1.322,1.322,0,0,1,331.258,385.083Zm-1.836,1.415a2.267,2.267,0,0,0-.192-.433s.611-.079.842-.1.84.006.84.006a3.051,3.051,0,0,1-.4.994,1.929,1.929,0,0,1-.842.04C329.516,386.944,329.476,386.69,329.422,386.5Z" transform="translate(-307.601 -373.36)" fill="#fff"/>
        <path id="Path_203" data-name="Path 203" d="M322.287,381.52s.438,1.219.577,1.682a1.637,1.637,0,0,0,.483.854,6.224,6.224,0,0,0,.811.7,1.975,1.975,0,0,1-1.017-.383,4.165,4.165,0,0,1-1.038-1.636C321.939,382.343,322.357,381.722,322.287,381.52Z" transform="translate(-304.446 -373.194)" fill="#fff"/>
        <path id="Path_204" data-name="Path 204" d="M345.467,373.8s-.033,1.465-.1,1.719-.283.15-.342.152a2.2,2.2,0,0,0-.29.079s.242-1.921.219-2A1.485,1.485,0,0,1,345.467,373.8Z" transform="translate(-322.396 -367.034)" fill="#fff"/>
        <path id="Path_205" data-name="Path 205" d="M351.936,375.33a14.229,14.229,0,0,1-.415,1.761,8.161,8.161,0,0,1-.331.886l.356-.1A7.186,7.186,0,0,0,351.936,375.33Z" transform="translate(-327.502 -368.294)" fill="#fff"/>
        <path id="Path_206" data-name="Path 206" d="M348.86,376.1s.279-1.179.313-1.542a3.253,3.253,0,0,0,.019-.521l.431.015a4.657,4.657,0,0,1-.271.84C349.223,375.122,348.86,376.1,348.86,376.1Z" transform="translate(-325.657 -367.273)" fill="#fff"/>
        <path id="Path_207" data-name="Path 207" d="M332.736,373.595l-.448-.025a4.49,4.49,0,0,0-.117,1.3,2.888,2.888,0,0,0,.361.725,2.952,2.952,0,0,1-.252-.975A3.652,3.652,0,0,1,332.736,373.595Z" transform="translate(-312.428 -366.901)" fill="#fff"/>
        <path id="Path_208" data-name="Path 208" d="M321.84,347.243s.54-.663.9-.35.765.321,1.828.442,3.295.423,4.71.594,1.882-.221,1.882-.221a3.086,3.086,0,0,0,.119-.648,2.671,2.671,0,0,1-.611.252l.444.115a4.64,4.64,0,0,1-1.492.085,2.005,2.005,0,0,1-1.15-.333,2.129,2.129,0,0,0,1.586-.067,6.312,6.312,0,0,1-.959-.06c-.388-.071-3.107-.488-3.107-.488s1.255.069,1.984.206,3.261.283,3.305.286a1.781,1.781,0,0,0-.052-.661c-.1-.3-.211-.988-.361-1.534a12.3,12.3,0,0,0-.417-1.2s-.017.961-.177,1.123-.44.165-1.015.219-.573.275-.573.275.252.329.461.55a1.345,1.345,0,0,0,.975.335c.365-.013.6-.534.6-.534s-.25.8-.527.865a1.052,1.052,0,0,1-.713-.115,4.731,4.731,0,0,0-1.067-.208,1.67,1.67,0,0,0-.921.075,7.9,7.9,0,0,0-.831-1.207c-.2-.129-1.269-.175-1.582-.34s-.263-.325-.263-.325a6.347,6.347,0,0,1,.7.2,1.7,1.7,0,0,0,.8.046s-1.192-.454-1.419-.584-.2-.725-.2-.725.934.392,1.34.59a4.108,4.108,0,0,0,1.409.144s-.917-.073-1.182-.442a1.8,1.8,0,0,1-.313-.767c-.1-.3-.515-.861-.621-1.14s-.706-.056-.706-.056.579.932.346.994a5.851,5.851,0,0,0-1.39.19c-.488.206-.9.967-1.188,1.415a5.454,5.454,0,0,0-.463,1.8C321.871,346.5,321.84,347.243,321.84,347.243Zm3-2.219c.35.523,1.35.69,1.8.744.317.037.333-.119.317-.217l-.019-.071a.363.363,0,0,1,.019.071l.244.888a3.856,3.856,0,0,1-1.217-.2A16.282,16.282,0,0,1,324.837,345.024Zm-1.757,1.967s.06-.1.64-.19a2.076,2.076,0,0,1,.806-.015l-.563-.494a6.418,6.418,0,0,0,.646.294c.473.194,1.686.54,1.686.54a6.765,6.765,0,0,1-1.807-.152A5.8,5.8,0,0,0,323.08,346.991Zm-.761-1.438c-.1-.517.671-1.419.671-1.419a4.027,4.027,0,0,0-.148,1.557c.163.381.692.215.692.215a6.051,6.051,0,0,1-.917.252C322.438,346.151,322.415,346.07,322.319,345.553Z" transform="translate(-304.268 -341.565)" fill="#fff"/>
        <path id="Path_209" data-name="Path 209" d="M342.83,346.449a5.933,5.933,0,0,0,1.711.311c.463-.083.946-.363.961-.792a6.827,6.827,0,0,0-.436-1.588s.519.065.573.211a9.324,9.324,0,0,1,.408,1.492c.025.361-.048.69.2.606s.5-.577.5-.577.035.667-.2.775a2.29,2.29,0,0,1-.852.233c-.123-.04-.425.175-.6.269a3.9,3.9,0,0,1-1.728-.365A4.033,4.033,0,0,1,342.83,346.449Z" transform="translate(-320.884 -343.793)" fill="#fff"/>
        <path id="Path_210" data-name="Path 210" d="M353.538,374.173a4.022,4.022,0,0,1,1.144.1,3.459,3.459,0,0,1-.39,1.657,4.167,4.167,0,0,1-1.084,1.061l-.369.229a15.483,15.483,0,0,0,1.411-1.621A1.441,1.441,0,0,0,353.538,374.173Z" transform="translate(-328.808 -367.377)" fill="#fff"/>
        <path id="Path_211" data-name="Path 211" d="M336.619,385.617s-.16-.623-.281-.6-.354.283-.6.39a2.184,2.184,0,0,1-1.363,0,4.807,4.807,0,0,1-.915-.406,3.88,3.88,0,0,0,.792.577,2.442,2.442,0,0,0,1.219.069,1.244,1.244,0,0,1,.548.135C336.094,385.809,336.532,385.944,336.619,385.617Z" transform="translate(-313.466 -375.949)" fill="#fff"/>
        <path id="Path_212" data-name="Path 212" d="M322.577,368.49a2.728,2.728,0,0,0-.121,1.063c.075.465.279,1.182.279,1.182s-.475-1.092-.542-1.332A.634.634,0,0,1,322.577,368.49Z" transform="translate(-304.494 -362.879)" fill="#fff"/>
        <path id="Path_213" data-name="Path 213" d="M324.888,370.03a2.812,2.812,0,0,0-.065.679,7.7,7.7,0,0,0,.181,1.04l-.058-.859s.086.579.171.946a4.36,4.36,0,0,0,.308.806,5.672,5.672,0,0,1-.352-1.611A2.224,2.224,0,0,0,324.888,370.03Z" transform="translate(-306.628 -364.098)" fill="#fff"/>
        <path id="Path_214" data-name="Path 214" d="M410.69,458.88s1.342.119,1.915.225,2.219.1,2.482.248.458.331.269.442-.144.173-.471,0a2.965,2.965,0,0,0-1.161-.154c-.283-.01-1.728-.129-1.853-.154S410.69,458.88,410.69,458.88Z" transform="translate(-374.602 -434.667)" fill="#fff"/>
        <path id="Path_215" data-name="Path 215" d="M396.531,453.28s-1.734.336-2.084.4a.582.582,0,0,0-.467.713c.083.3.227.454-.021.573s-.59.05-.565.352a1.409,1.409,0,0,0,.188.684.74.74,0,0,0,.717.311c.1-.063.327-.419.367-.431s1.115-.231,1.275-.29.194-.69.142-.769a2.953,2.953,0,0,1,.067-.671c0-.1.067-.563.067-.563S396.554,453.466,396.531,453.28Z" transform="translate(-360.911 -430.229)" fill="#fff"/>
        <path id="Path_216" data-name="Path 216" d="M383.834,421.245s-1.6-1.211-1.923-1.49-1.1-1.346-1.319-1.6-.865-1.169-.865-1.169l.852.8s-.329-.984-.488-1.294-.523-1.7-.69-2.034a3.172,3.172,0,0,0-.279-.484,3.641,3.641,0,0,1,.113,1.219c-.1.323-.369.1-.629-.313s-.836-1.169-.836-1.169.967,1.971,1.079,2.382a1.759,1.759,0,0,1-.11,1.155c-.1.052-.89.886-.89.886s.765-.592,1.175-.381a1.98,1.98,0,0,1,.938.788c.188.361.588.913.661,1.069s-.644,1.192-.644,1.192a5.267,5.267,0,0,1,.929-.638c.233-.065.185.465-.142.717a3.016,3.016,0,0,0-.611.727,13.2,13.2,0,0,0,1.232-.986c.188-.227.25-.583.452-.329s.213.4.461.713a1.37,1.37,0,0,0,.644.471C382.986,421.476,383.834,421.245,383.834,421.245Z" transform="translate(-348.543 -398.842)" fill="#fff"/>
        <path id="Path_217" data-name="Path 217" d="M363.4,393.2a15.245,15.245,0,0,1,1.744,1.267,1.3,1.3,0,0,1,.163,1.236c-.165.31-.715,1.58-.727,1.538s1.027-1.517,1.132-1.619.15.548.071.906-.59,1.765-.59,1.765a6.662,6.662,0,0,0,.852-1.352c.16-.486.085.256-.044.7s-1.109,2.349-1.109,2.349a17.969,17.969,0,0,0,1.271-1.8c.1-.292.4-1.611.4-1.611a7.058,7.058,0,0,0-.4-.773,6.554,6.554,0,0,1-.452-.848A4.917,4.917,0,0,0,363.4,393.2Z" transform="translate(-337.167 -382.44)" fill="#fff"/>
        <path id="Path_218" data-name="Path 218" d="M371.694,425.51s-.029,1.186-.413,1.467a8.061,8.061,0,0,1-.681.452,8.566,8.566,0,0,0,.417.946,10.5,10.5,0,0,0,.794,1.107c.229.26.936.871,1.071,1.079a2.379,2.379,0,0,0,.367.411,3.029,3.029,0,0,1,.156-.936,2.523,2.523,0,0,1,.529-.752s-.49.361-.715.579a.473.473,0,0,1-.519.073,2.845,2.845,0,0,1,.533-.771c.265-.213.344-.283.344-.283a12.31,12.31,0,0,0-1.415-.083l-.365.031a.7.7,0,0,1,.221-.846,4.685,4.685,0,0,1,.561-.39,9.577,9.577,0,0,0-.99.467c-.215.146-.215.148-.215.148a5.758,5.758,0,0,0,.642-1.667,6.228,6.228,0,0,0-.075-.99,3.432,3.432,0,0,1-.131,1.134l-.15.238A4.332,4.332,0,0,0,371.694,425.51Z" transform="translate(-342.867 -408.195)" fill="#fff"/>
        <path id="Path_219" data-name="Path 219" d="M360,397.98a6.308,6.308,0,0,0-.056,1.138c.046.379.786.825,1.129.952s.821.26.821.26a3.066,3.066,0,0,1-1.338-1.179C360.228,398.432,360,397.98,360,397.98Z" transform="translate(-334.423 -386.224)" fill="#fff"/>
        <path id="Path_220" data-name="Path 220" d="M429.5,451.389s.463-.494.477-.763a1.092,1.092,0,0,0-.679-.815c-.254-.019-.513-.1-.452.123s.185.406.3.817S429.321,451.6,429.5,451.389Z" transform="translate(-388.968 -427.45)" fill="#fff"/>
        <path id="Path_221" data-name="Path 221" d="M416.659,449.749s.469.21.544.483a10,10,0,0,1,.24,1.2c.01.2-.217.34-.508.346s-.4-.186-.486-.471-.215-.369-.3-.352-.427.371-.569.448-.3.077-.333-.031-.056-.471.044-.542a2.574,2.574,0,0,0,.606-.471C416.084,450.126,416.444,449.628,416.659,449.749Z" transform="translate(-378.19 -427.409)" fill="#fff"/>
        <path id="Path_222" data-name="Path 222" d="M424.28,450.47a2.433,2.433,0,0,1,.369.7,5.04,5.04,0,0,1,.108,1.038c0,.1.417.231.552.081a1.73,1.73,0,0,0-.017-1.294A1.074,1.074,0,0,0,424.28,450.47Z" transform="translate(-385.361 -427.995)" fill="#fff"/>
        <path id="Path_223" data-name="Path 223" d="M348.969,458.92s-4.4.273-5.153.313-2.026.123-2.026.123l.415.652,6.681-.577Z" transform="translate(-320.061 -434.699)" fill="#fff"/>
        <path id="Path_224" data-name="Path 224" d="M350.665,462.74l-6.725.525s.01.469.331.567,6.35-.673,6.35-.673Z" transform="translate(-321.763 -437.731)" fill="#fff"/>
        <path id="Path_225" data-name="Path 225" d="M332.43,464.205a9.531,9.531,0,0,1,1.271-1.7,9.691,9.691,0,0,1,2.278-.771,1.853,1.853,0,0,1-1-.286c-.413-.3-.517-1.33-.788-1.669s-1.561.1-1.561.1a4.836,4.836,0,0,1,.021,1.261C332.58,461.957,332.443,463.82,332.43,464.205Z" transform="translate(-312.651 -435.29)" fill="#fff"/>
        <path id="Path_226" data-name="Path 226" d="M366.7,487.37a5.552,5.552,0,0,0,2.021-1.142,8.453,8.453,0,0,0,1.246-2.4,25.2,25.2,0,0,0-.008-2.607,15.716,15.716,0,0,0,.31,2.642,15.747,15.747,0,0,1,.542,1.617,6.3,6.3,0,0,1-.583,2.2,8.019,8.019,0,0,1-.829.521C369.255,488.241,366.7,487.37,366.7,487.37Z" transform="translate(-339.78 -452.42)" fill="#fff"/>
        <path id="Path_227" data-name="Path 227" d="M339.529,487.035s-2.3-1.234-2.865-1.648-1.48-1.107-1.513-1.155a2.47,2.47,0,0,0,.242-1.263A19.488,19.488,0,0,0,334.1,480.4a22.931,22.931,0,0,1,.825,2.149,5.177,5.177,0,0,1-.044,1.7c.035.127.648,1.648.746,1.934a1.986,1.986,0,0,0,.854.825,2,2,0,0,1,.8.859c.071.256.129.475.129.475A8.276,8.276,0,0,1,339.529,487.035Z" transform="translate(-313.973 -451.774)" fill="#fff"/>
        <path id="Path_228" data-name="Path 228" d="M385.8,527.08l-.8,2.455.665,6.616s.488-.3,1.025.377Z" transform="translate(-354.266 -488.838)" fill="#fff"/>
        <path id="Path_229" data-name="Path 229" d="M381.86,543.4l.5,5.966.64-.392-.708-4.947.04,1.932Z" transform="translate(-351.78 -501.771)" fill="#fff"/>
        <path id="Path_230" data-name="Path 230" d="M393.525,589.563a.758.758,0,0,0-.55.533,3.924,3.924,0,0,0,.106,1.354l.333-.019s-.085-.742-.11-.89.283-.467.427-.536S393.7,589.494,393.525,589.563Z" transform="translate(-360.553 -538.378)" fill="#fff"/>
        <path id="Path_231" data-name="Path 231" d="M393.867,610.89c-.029.052-.711,1.327-1,1.878a4.816,4.816,0,0,0-.4,1.317s.711-1.165.911-1.515A10.74,10.74,0,0,0,393.867,610.89Z" transform="translate(-360.171 -555.319)" fill="#fff"/>
        <path id="Path_232" data-name="Path 232" d="M391.328,599.98s.358,1.844.371,2.43.029,1.4.029,1.4a1.307,1.307,0,0,1-.723-.383,3.965,3.965,0,0,1-.521-.99,6.71,6.71,0,0,0,.5.6c.092.063-.167-.4-.062-.763s.323-.221.3-.523-.546.1-.594.25a1.572,1.572,0,0,1-.175.327,2.05,2.05,0,0,1,.063-.636c.09-.423.156-.719.3-.817a1.265,1.265,0,0,1,.379-.148S391.037,600.149,391.328,599.98Z" transform="translate(-358.579 -546.665)" fill="#fff"/>
        <path id="Path_233" data-name="Path 233" d="M389.01,571.592a16.6,16.6,0,0,0,.108,1.942c.108.721.354,2.419.354,2.419s-.117-1.175.177-1.344a2.1,2.1,0,0,0,.677-.7c0-.073-.329-1.794-.329-1.794l-.085,1.334-.279-1.68A.445.445,0,0,0,389.01,571.592Z" transform="translate(-357.44 -524.08)" fill="#fff"/>
        <path id="Path_234" data-name="Path 234" d="M359.477,521.619s.025,3.172-.052,3.822,0,2-.05,2.113-.29.158-.34-.025-.067-5.045.015-5.322a3.121,3.121,0,0,0,.05-.8s-.894.225-1.09.3a7.815,7.815,0,0,1-1.969-.383,2.523,2.523,0,0,1-1.357-.727,6.355,6.355,0,0,1-.554-.948,9,9,0,0,0,1.221,1.236,13.609,13.609,0,0,0,2.738.467c.225-.042.5-.117.5-.254s-.206-1.042-.254-1.932a18.214,18.214,0,0,1,.492-3.509,2.925,2.925,0,0,1,.15-.315s.317.4.519.406.215,2.63.217,3.138a8.466,8.466,0,0,0,.235,1.5c.025.092.336.006.421-.252s.871-3.124.871-3.124-.258,1.563-.431,2.08a4.673,4.673,0,0,1-.742,1.734C359.7,521.146,359.477,521.406,359.477,521.619Z" transform="translate(-329.829 -479.536)" fill="#fff"/>
        <path id="Path_235" data-name="Path 235" d="M381.014,517.341l.112-.342s.7.309.75.486a10.523,10.523,0,0,1-.158,1.411c-.04.394-.129.873-.129.873a8.673,8.673,0,0,0,.542-1.354,1.554,1.554,0,0,1,.323-.648,4.014,4.014,0,0,0-.892-.89c-.317-.133-.692-.267-.692-.267Z" transform="translate(-350.997 -480.492)" fill="#fff"/>
        <path id="Path_236" data-name="Path 236" d="M350,517.017s1.011-.5,1.384,0a15.255,15.255,0,0,1,1.077,3.236c.038.3.133.992.133.992l1.688.394a31.827,31.827,0,0,0-.986-3.6,5.419,5.419,0,0,0-2.253-2.369C350.293,515.392,349.854,516.1,350,517.017Z" transform="translate(-326.538 -479.714)" fill="#fff"/>
        <path id="Path_237" data-name="Path 237" d="M350.02,523.3a9.258,9.258,0,0,0,.227,1.2,10.354,10.354,0,0,0,.646,1.5s-.709-1.567-.571-1.653.536.617.536.617a2.062,2.062,0,0,0-.348-.788A2.049,2.049,0,0,1,350.02,523.3Z" transform="translate(-326.576 -485.8)" fill="#fff"/>
        <path id="Path_238" data-name="Path 238" d="M360.8,511.606a5.814,5.814,0,0,0-1.323-.927c-.5-.177-.759-.3-.759-.3a1.951,1.951,0,0,0,.89-.3,2.28,2.28,0,0,0,.415-.673,1.482,1.482,0,0,0,.267.475,2.348,2.348,0,0,0,1.052.477,1.438,1.438,0,0,0,.327-.2,3.033,3.033,0,0,1-.235.606C361.319,510.95,360.8,511.606,360.8,511.606Z" transform="translate(-333.463 -474.773)" fill="#fff"/>
        <path id="Path_239" data-name="Path 239" d="M336.3,471.131c.019,0-.271-.49-.271-.49s3.678-1.046,4.393-1.086,4.237-.081,4.287.179a5.01,5.01,0,0,1,.01.861s.529-1.111.659-1.35l.131-.24a4.77,4.77,0,0,0-1.257-.932c-.4-.088-.723-.133-.873-.181s-2.317.781-2.919.8-2.4-.04-2.669-.075a5.873,5.873,0,0,0-2.192,1.023c-.454.419-.515.552-.456.694A2.75,2.75,0,0,0,336.3,471.131Z" transform="translate(-314.781 -441.826)" fill="#fff"/>
        <path id="Path_240" data-name="Path 240" d="M370.331,480.36s.5,3.2.206,4.122-.748,1.421-.64,1.392a3.523,3.523,0,0,0,1.142-.7C371.135,484.947,370.331,480.36,370.331,480.36Z" transform="translate(-342.298 -451.732)" fill="#fff"/>
        <path id="Path_241" data-name="Path 241" d="M355.416,480.87a31.883,31.883,0,0,0,1.19,4.345,3.84,3.84,0,0,0,1.24,1.23s-.89.106-1.688-1.442A10.53,10.53,0,0,1,355.416,480.87Z" transform="translate(-330.847 -452.137)" fill="#fff"/>
        <path id="Path_242" data-name="Path 242" d="M343.71,477.858s3.168-.761,3.943-.8,3.407.265,3.407.265a13.866,13.866,0,0,0-2.626-.5A13.367,13.367,0,0,0,343.71,477.858Z" transform="translate(-321.581 -448.91)" fill="#fff"/>
        <path id="Path_243" data-name="Path 243" d="M341.883,406.72a2.665,2.665,0,0,1-1.009.888,4.255,4.255,0,0,1-2.044-.265s1.876,1.046,2.211,1.146,1.517.7,1.517.7-.886-.654-1.023-.779S342.064,407.545,341.883,406.72Z" transform="translate(-317.717 -393.275)" fill="#fff"/>
        <path id="Path_244" data-name="Path 244" d="M352.911,413.51s-.123.784-.813.738a3.458,3.458,0,0,1-1.386-.49,11.235,11.235,0,0,1,.986,1.232c.335.527,1.044,1.773,1.044,1.773a5.682,5.682,0,0,1-1.448-.884,13.57,13.57,0,0,0-1.884-1.236,18.954,18.954,0,0,1,2.378,2.071c.315.5-.019,2.4-.019,2.4s.185-1.257.581-1.528a2.307,2.307,0,0,1,1.327-.2c.169.027.613-.285.613-.285s-.533.2-.761.017.331-.886.331-.886a2.879,2.879,0,0,0-.483.442l-.079.14a10.8,10.8,0,0,1-.381-1.928A3.9,3.9,0,0,1,352.911,413.51Z" transform="translate(-326.093 -398.671)" fill="#fff"/>
        <path id="Path_245" data-name="Path 245" d="M309.935,384.5a17.388,17.388,0,0,0,.556,2.034,8.029,8.029,0,0,0,.892.948c.2.208.406.419.406.419a1.7,1.7,0,0,0-1.24-.4,9.774,9.774,0,0,0-1.74.579,1.388,1.388,0,0,1,.717-.771,2.444,2.444,0,0,0,.661-.327s-.781-.331-1.144-.04a10.969,10.969,0,0,0-1.167,1.115,3.238,3.238,0,0,1,.515-1.348c.3-.231.8-.554.869-.817s.017-.515-.559-.356a9.83,9.83,0,0,0-1.582.727,3.437,3.437,0,0,1,.754-1.011A7.212,7.212,0,0,1,309.935,384.5Z" transform="translate(-292.616 -375.553)" fill="#fff"/>
        <path id="Path_246" data-name="Path 246" d="M332.928,416.487a2.124,2.124,0,0,1-1.507.413,13.584,13.584,0,0,1-2.311-1.13,10.423,10.423,0,0,0,1.138,1.077,2.849,2.849,0,0,0,1.6.258A2.269,2.269,0,0,0,332.928,416.487Z" transform="translate(-310.023 -400.455)" fill="#fff"/>
        <path id="Path_247" data-name="Path 247" d="M294.688,388.836a5.091,5.091,0,0,0-.538,1.619,2.781,2.781,0,0,0,.088,1.252s.24-1.277.348-1.809a3.1,3.1,0,0,1,.546-1.084,8.364,8.364,0,0,0-.35,1.157c-.035.3-.058.44-.058.44a11.44,11.44,0,0,1,.781-1.6A5.821,5.821,0,0,1,296.7,387.8,7.1,7.1,0,0,0,294.688,388.836Z" transform="translate(-282.328 -378.165)" fill="#fff"/>
        <path id="Path_248" data-name="Path 248" d="M272.333,405.741a8.208,8.208,0,0,1,.152,1.578,6,6,0,0,1-.148,1.071s-.31-.917-.429-1.355a6.906,6.906,0,0,0-.308-.857,12.859,12.859,0,0,1,.158,1.546,5.831,5.831,0,0,1-.108,1s-.192-.919-.3-1.315a1.236,1.236,0,0,0-.19-.477s.188,1.332.171,1.646l-.017.315a3.509,3.509,0,0,0-.431-1.25,2.828,2.828,0,0,1-.531-.738,12.617,12.617,0,0,1,.621-1.936s-.865,1.3-.815,1.694a8.327,8.327,0,0,0,.446,1.63,4.988,4.988,0,0,1,.26,1.115,2.435,2.435,0,0,1-.148.267,6.3,6.3,0,0,1-.458-1.14,7.885,7.885,0,0,0-.5-1.246s.4,1.419.521,1.9a3.763,3.763,0,0,1,.113.838,4.026,4.026,0,0,0-1.013-1.223,13.957,13.957,0,0,0-1.292-.852l1.282-1.557s-1.423,1.465-1.671,1.8-.646.869-.646.869a5.824,5.824,0,0,1,1.915.652c.525.415,1.167,1.034,1.167,1.034a15.18,15.18,0,0,0-1.894-1.763,4.647,4.647,0,0,1-.513-.256s.836-.229,1.171.033a14.2,14.2,0,0,1,1.357,1.409c.015.054-.09.746-.4.652s-1.33-1.092-1.692-1.184-1.361-.187-1.361-.187a7.319,7.319,0,0,1,1.848.729,5.538,5.538,0,0,1,.979,1.263,3.265,3.265,0,0,0,.7-.5c.165-.206.156-.4.525-.717s1.254-.9,1.39-1.1a6.438,6.438,0,0,0,.477-1.323A18.561,18.561,0,0,0,272.333,405.741Z" transform="translate(-260.698 -391.894)" fill="#fff"/>
        <path id="Path_249" data-name="Path 249" d="M265.505,429.849a6.038,6.038,0,0,1,1.357-.15,5.24,5.24,0,0,1,.834.463,5.573,5.573,0,0,0-1.494-.135,3.505,3.505,0,0,0-.813.313,3.834,3.834,0,0,1,1.63-.123,6.04,6.04,0,0,1,.967.471,4.283,4.283,0,0,0-1.507-.236,4.617,4.617,0,0,0-1.013.167,7.693,7.693,0,0,1,1.955.15,1.432,1.432,0,0,0,.411.21,4.79,4.79,0,0,0-1.067.027,7.613,7.613,0,0,0-1.121.263,10.252,10.252,0,0,1,1.844.069.9.9,0,0,0,.519.065s-.736.054-1.207.11a5.578,5.578,0,0,0-.69.115,14.636,14.636,0,0,1,1.64.023,1.141,1.141,0,0,1,.608.392,8.228,8.228,0,0,1-.331-1.69c.054-.338-.49-.925-.973-1.19a3.329,3.329,0,0,0-1.534-.492,3.434,3.434,0,0,1-.681.04,3.23,3.23,0,0,0-.083.773l.046.165a.518.518,0,0,1,.342-.363,1.982,1.982,0,0,1,1.392-.127,3.691,3.691,0,0,1,.821.525A2.954,2.954,0,0,0,265.505,429.849Z" transform="translate(-259.072 -410.691)" fill="#fff"/>
        <path id="Path_250" data-name="Path 250" d="M269.5,444.84a5.744,5.744,0,0,0-.938.713,1.373,1.373,0,0,0-.306.658,2.966,2.966,0,0,0,.363.681c.1.046.185-.346.558-.594s.707-.429.707-.429a1.169,1.169,0,0,0-.65.148c-.29.181-.456.375-.508.079A1.849,1.849,0,0,1,269.5,444.84Z" transform="translate(-261.854 -423.528)" fill="#fff"/>
        <path id="Path_251" data-name="Path 251" d="M272.6,450.32a3.848,3.848,0,0,0-.871.421,2.675,2.675,0,0,0-.4.531s.248.315.388.129S271.957,450.556,272.6,450.32Z" transform="translate(-264.284 -427.874)" fill="#fff"/>
        <path id="Path_252" data-name="Path 252" d="M279.733,455.807a3.457,3.457,0,0,1,.823-1.019,1.641,1.641,0,0,1,1.469-.006,6.535,6.535,0,0,1,1.011,1c.073.156.208.208.313.517s.4.419.225.821a4.858,4.858,0,0,1-.567.979.936.936,0,0,1-.34.21s.013-.385.038-.8a9.2,9.2,0,0,0-.023-1.023,4.684,4.684,0,0,0-.2,1c.01.306.083.625-.046.69s-.187.183-.279-.1a4.019,4.019,0,0,1-.077-1.038c-.012-.423-.748-.973-.748-.973a1.866,1.866,0,0,1,.519.888c.046.429.208,1.061.21,1.209s-.292.154-.292.154.079-.2-.244-.727a2.043,2.043,0,0,0-1.015-.748,4.037,4.037,0,0,1,.588.746c.225.394.5.819.325.867a.364.364,0,0,1-.479-.192,1.487,1.487,0,0,0-.481-.471s.333.571.273.675-.154.071-.267.044a2.281,2.281,0,0,1-.675-.846,2.6,2.6,0,0,1-.067-.673c-.006-.234.09-.26.113-.5A2.328,2.328,0,0,0,279.733,455.807Z" transform="translate(-270.932 -431.289)" fill="#fff"/>
        <path id="Path_253" data-name="Path 253" d="M283.22,470.87s-1.117.2-1.542.319-1.4.279-1.669.354a3.415,3.415,0,0,0-.906.454c-.1.1-.238.477.038.431s1.2-.431,1.427-.508,1.521-.3,1.757-.358S283.148,471.641,283.22,470.87Z" transform="translate(-270.337 -444.184)" fill="#fff"/>
        <path id="Path_254" data-name="Path 254" d="M296.22,463.435l.975-.09a3.314,3.314,0,0,0,.319-.911c0-.265-.271-.092-.329.09s-.117.473-.285.519S296.228,463.137,296.22,463.435Z" transform="translate(-283.987 -437.38)" fill="#fff"/>
        <path id="Path_255" data-name="Path 255" d="M298.336,462.787s.467-.55.358-.736-.788-.4-.827.021.017.888-.015,1.023-.744.45-.971.571-.654.344-.3.386,1.163.194,1.427-.09.381-.473.281-.588S298.336,462.787,298.336,462.787Z" transform="translate(-284.167 -437.011)" fill="#fff"/>
        <path id="Path_256" data-name="Path 256" d="M306.157,462.634a1.473,1.473,0,0,0,.877.015c.236-.1.361-.511.233-.613s-.377-.192-.258-.331,1.146-.079,1.457-.158.606-.081.565-.227-.667-.356-1.375-.26-.819.127-.827.344.083.3-.177.5S306.012,462.133,306.157,462.634Z" transform="translate(-291.828 -436.379)" fill="#fff"/>
        <path id="Path_257" data-name="Path 257" d="M317.714,465.679a9.781,9.781,0,0,0,1.361.775,5.148,5.148,0,0,0,.961.14s-.052-.479-.413-.536a1.424,1.424,0,0,1-.5-.146s.448-.044.367-.2a1.568,1.568,0,0,0-.93-.423,4.6,4.6,0,0,1-.9-.242,1.234,1.234,0,0,0,.469.527l.327.194A2.13,2.13,0,0,0,317.714,465.679Z" transform="translate(-300.959 -439.565)" fill="#fff"/>
        <path id="Path_258" data-name="Path 258" d="M327.823,472.816c-.158-.079.456.452.877.373s.594-.629.594-.629A7.632,7.632,0,0,1,327.823,472.816Z" transform="translate(-308.984 -445.522)" fill="#fff"/>
        <path id="Path_259" data-name="Path 259" d="M332.051,460.64c-.123.048-.492.206-.452.5s.125.529.048.531.4.7.4.7Z" transform="translate(-311.991 -436.066)" fill="#fff"/>
        <path id="Path_260" data-name="Path 260" d="M326.87,465.01s-.6.181-.661.317a1.023,1.023,0,0,1-.323.317.862.862,0,0,0,.127.465.894.894,0,0,0,.411.446,4.023,4.023,0,0,0,1.142.031,2.3,2.3,0,0,0-.446-.408c-.213-.129-.077-.135-.071-.333S327.307,465.175,326.87,465.01Z" transform="translate(-307.464 -439.534)" fill="#fff"/>
        <path id="Path_261" data-name="Path 261" d="M295.25,441.471s1.332,1.625,1.738,2.1a3.209,3.209,0,0,0,1.052.85c.129.025.925-.436.671-1.58a18.057,18.057,0,0,0-.519-1.894,13.381,13.381,0,0,1,.217,2.294c-.085.475-.481.5-1.09-.019S295.25,441.471,295.25,441.471Z" transform="translate(-283.219 -420.444)" fill="#fff"/>
        <path id="Path_262" data-name="Path 262" d="M301.489,404.76a12.193,12.193,0,0,0-1.082,1.569,5.882,5.882,0,0,1-.838,1.19,6.011,6.011,0,0,0,1.307-.906c.308-.379.9-1.225.9-1.225s-.761.754-1.094,1.1l-.333.346Z" transform="translate(-286.639 -391.72)" fill="#fff"/>
        <path id="Path_263" data-name="Path 263" d="M304.031,411.91s-1.388.6-2.08.786l-2.611.715a12.355,12.355,0,0,1,2.611-1.069A12.287,12.287,0,0,0,304.031,411.91Z" transform="translate(-286.457 -397.392)" fill="#fff"/>
        <path id="Path_264" data-name="Path 264" d="M298.021,429.263s-.2-1.061.654-.892,2.253.919,2.68,1.023a5.591,5.591,0,0,0,.8.133s-2.109-.394-2.584-.573S298.069,428.529,298.021,429.263Z" transform="translate(-285.396 -410.441)" fill="#fff"/>
        <path id="Path_265" data-name="Path 265" d="M308.514,438.312s-1.1-.365-1.734-.525a11.464,11.464,0,0,0-1.555-.373c-.171.023.04.592.04.592l1.334.694a4.161,4.161,0,0,1-1.073-.694c-.123-.233.125-.4.329-.3A11.356,11.356,0,0,0,308.514,438.312Z" transform="translate(-291.063 -417.631)" fill="#fff"/>
        <path id="Path_266" data-name="Path 266" d="M314.44,450.522a1.526,1.526,0,0,0,1.127.692,7.1,7.1,0,0,0,1.546-.008s-1.317-.511-2.174-.894a5.626,5.626,0,0,1-1.3-.771,3.515,3.515,0,0,0,.323,1.45,10.635,10.635,0,0,0,.863.842A1.464,1.464,0,0,1,314.44,450.522Z" transform="translate(-297.777 -427.258)" fill="#fff"/>
        <path id="Path_267" data-name="Path 267" d="M322.939,459.537a4.517,4.517,0,0,1-1.455-.475l-.365-.292a6.05,6.05,0,0,1,.113.8l-.01.179A5.44,5.44,0,0,1,322.939,459.537Z" transform="translate(-303.698 -434.58)" fill="#fff"/>
        <path id="Path_268" data-name="Path 268" d="M339.034,432.259a9.3,9.3,0,0,0,.123-2.7,2.1,2.1,0,0,0-1.367-1.371,17.393,17.393,0,0,1-2.276-.554l-.644-.275s1.294.352,1.765.067.94-.513,1.336-.248,1.728,1.019,1.9,1.53A8.348,8.348,0,0,1,339.034,432.259Z" transform="translate(-314.583 -409.422)" fill="#fff"/>
        <path id="Path_269" data-name="Path 269" d="M331.151,438.5a7.566,7.566,0,0,1-2.13-.006,12.606,12.606,0,0,1-2.461-1.8,10.83,10.83,0,0,0,1.688,2.011,15.821,15.821,0,0,0,2.1.448c.4.1.873-.035.984.654a11.083,11.083,0,0,1,.077,1.7,1.356,1.356,0,0,0,.581-.94C332.032,439.988,331.949,438.717,331.151,438.5Z" transform="translate(-308.004 -417.075)" fill="#fff"/>
        <path id="Path_270" data-name="Path 270" d="M312.507,403.664a3.118,3.118,0,0,1,.227-1.107c.2-.3.961-.792,1.027-.281a.884.884,0,0,1-.179.746s.056-.652-.129-.631S312.475,403.23,312.507,403.664Z" transform="translate(-296.879 -389.448)" fill="#fff"/>
        <path id="Path_271" data-name="Path 271" d="M270.032,411.366s-.271.3-.19.494.242.129.556-.152,1.234-1.338,1.234-1.338-1.254,1.188-1.34,1.229S270.009,411.608,270.032,411.366Z" transform="translate(-263.094 -396.17)" fill="#fff"/>
        <path id="Path_272" data-name="Path 272" d="M316.76,477.043s-1.067-.021-1.842-.1a4.985,4.985,0,0,1-1.238-.269L315.8,478.4S315.9,477.07,316.76,477.043Z" transform="translate(-297.808 -448.788)" fill="#fff"/>
        <path id="Path_273" data-name="Path 273" d="M297.578,478.855a4.4,4.4,0,0,1-2.18-.579c-.6-.542-.867-1.019-1.48-1.321a4.673,4.673,0,0,0-2.23-.156,9.572,9.572,0,0,0-2.459,1.521,13.107,13.107,0,0,1,2.834-1.309c.7-.054,1.663-.037,1.955.313s1.236,1.071,1.457,1.3A7.144,7.144,0,0,0,297.578,478.855Z" transform="translate(-278.454 -448.845)" fill="#fff"/>
        <path id="Path_274" data-name="Path 274" d="M288.674,487.223a5.686,5.686,0,0,1,.477-1.484,2.722,2.722,0,0,1,.488-.727,2.927,2.927,0,0,0-1.315.934,4.24,4.24,0,0,0-.934,1.138s.952-2.144,1.573-2.315a10.9,10.9,0,0,1,3.422.5c.348.16,1.163.623,1.163.623a6.173,6.173,0,0,0-2.534-.386A4.229,4.229,0,0,0,288.674,487.223Z" transform="translate(-276.997 -455.19)" fill="#fff"/>
        <path id="Path_275" data-name="Path 275" d="M291.994,490.65a12.085,12.085,0,0,0-2.917,1.938,6.735,6.735,0,0,0-.846,1.133,6.082,6.082,0,0,1,2.34-.915,23.371,23.371,0,0,1,2.788.434,6.571,6.571,0,0,0-2.4-.823,4.69,4.69,0,0,0-1.5.263A20.586,20.586,0,0,1,291.994,490.65Z" transform="translate(-277.662 -459.888)" fill="#fff"/>
        <path id="Path_276" data-name="Path 276" d="M287.94,505.021a1.158,1.158,0,0,1,.444.761l0,.413s.829-1.484,1.788-1.784a6.229,6.229,0,0,1,1.1-.3S288.8,504.156,287.94,505.021Z" transform="translate(-277.432 -470.567)" fill="#fff"/>
        <path id="Path_277" data-name="Path 277" d="M321.06,488.39s.811.74.886,1.23a4.067,4.067,0,0,1-.529,1.6l.227,1.742a26.793,26.793,0,0,1,1.394-2.58,5.839,5.839,0,0,0,.742-1.655l-1.113,1.086-.348.452a5.116,5.116,0,0,0,.456-1.6c-.065-.415-.129-.475-.129-.475a3.429,3.429,0,0,1-.408,1.486S322.25,488.867,321.06,488.39Z" transform="translate(-303.651 -457.943)" fill="#fff"/>
        <path id="Path_278" data-name="Path 278" d="M297.171,505.28a8.815,8.815,0,0,0-2.407.579,5.7,5.7,0,0,0-.954,1.048,3.021,3.021,0,0,1,.523.621l.215.354-.1-1.15a2.056,2.056,0,0,1,.427,1.061l.013.546s.125-.329.392-.931a3.164,3.164,0,0,1,.5-.842s-.765.113-.836-.056A7.538,7.538,0,0,1,297.171,505.28Z" transform="translate(-282.079 -471.5)" fill="#fff"/>
        <path id="Path_279" data-name="Path 279" d="M292.474,516.829a3.193,3.193,0,0,1,1.446-.161,7.7,7.7,0,0,1,1.107.463,19.964,19.964,0,0,0-.8,2.221c-.081.492-.087,1.182-.2,1.565a6.516,6.516,0,0,1-.865,2,2.876,2.876,0,0,1-1.3.769,4.3,4.3,0,0,1-2.49-.927,4.158,4.158,0,0,1-.867-1.588,4.2,4.2,0,0,0,1.182,1.3,2.349,2.349,0,0,0,1.9.638c.411-.152,1.138-.469,1.138-.469s-1-.177-1.144-.492l-.144-.313a2.259,2.259,0,0,0,1.148.04c.465-.167.4-.619.133-1.017a12.276,12.276,0,0,0-1.073-1.2,7.925,7.925,0,0,0,1.8.686.8.8,0,0,0,.408-.877,5.128,5.128,0,0,0-.854-1.257,8.157,8.157,0,0,1-.452-.719,2.321,2.321,0,0,0,1.194.2l.456-.125A2.651,2.651,0,0,0,292.474,516.829Z" transform="translate(-277.876 -480.525)" fill="#fff"/>
        <path id="Path_280" data-name="Path 280" d="M310.28,504.5a1.184,1.184,0,0,0,.821,1.025,3.9,3.9,0,0,0,1.761-.056,3.43,3.43,0,0,1-1.159-.611,3.112,3.112,0,0,1-.419-.886,5.639,5.639,0,0,0,1.082.1l.492-.031s-.167.354-.456.375-.361.029-.361.029-.213.083.3.348.838.425.838.425a.856.856,0,0,1-.665.652C311.937,506,310.39,506.5,310.28,504.5Z" transform="translate(-295.117 -470.455)" fill="#fff"/>
        <path id="Path_281" data-name="Path 281" d="M342.348,524.47l1.682,10.292a6.04,6.04,0,0,0-.875.711c-.344.359-.456.8-.515.7s.031-1.392-.021-1.907-.4-5.424-.4-5.424-.327-3.559-.323-3.974S342.348,524.47,342.348,524.47Z" transform="translate(-320.147 -486.78)" fill="#fff"/>
        <path id="Path_282" data-name="Path 282" d="M346.338,523.65s-.619.031-.64.175.792,3.393.829,3.678.448,4.076.5,4.63.342,2.1.342,2.1.573.373.773.534.375.077.369-.013-1.494-7.175-1.646-8.017S346.338,523.65,346.338,523.65Z" transform="translate(-323.155 -486.127)" fill="#fff"/>
        <path id="Path_283" data-name="Path 283" d="M344.647,581.75a6.7,6.7,0,0,0-.438,2.2c.044.95.577,4.257.646,4.866s.265,1.894.265,1.894l.311-.085s-.877-5.141-.954-5.885A24.207,24.207,0,0,1,344.647,581.75Z" transform="translate(-321.974 -532.235)" fill="#fff"/>
        <path id="Path_284" data-name="Path 284" d="M356.343,592.531a19.64,19.64,0,0,0-.817-2.263,3.981,3.981,0,0,1-.377-.877s.367,2.628.354,2.728a14.738,14.738,0,0,1-.5-2.276c-.06-.65-.119-1.3-.119-1.3A9.916,9.916,0,0,1,356.343,592.531Z" transform="translate(-330.423 -537.587)" fill="#fff"/>
        <path id="Path_285" data-name="Path 285" d="M345.855,597.565a5.609,5.609,0,0,0,.223-1.836,14.025,14.025,0,0,1-.154-1.782s.59.29.675.6.354,1.59.4,1.911.123,1.419.246,1.915a13.854,13.854,0,0,0,.4,1.478c.1.19,1.073,1.394,1.073,1.394l-.01-.609a5.523,5.523,0,0,1-1.227-1.978c-.146-.823-.4-3.526-.511-3.945s-.135-.784-.229-.838-1.309-.456-1.309-.456Z" transform="translate(-322.95 -541.489)" fill="#fff"/>
        <path id="Path_286" data-name="Path 286" d="M352.96,638.692s.16-.444.406-.982.646-.863.811-.731.013.656.013.656a5.817,5.817,0,0,1,.542-.317c.258-.129.671.229.569.571a1.776,1.776,0,0,0-.113.738c.038.069-.417.271-.65.277s-.494.056-.631.056A.756.756,0,0,1,352.96,638.692Z" transform="translate(-328.903 -576.11)" fill="#fff"/>
        <path id="Path_287" data-name="Path 287" d="M365.274,640.851s-.194.348-.381.1a.538.538,0,0,1,.031-.636c.071-.058.311-.4.519-.142a2.651,2.651,0,0,1,.229,1.252C365.658,641.609,365.431,641.711,365.274,640.851Z" transform="translate(-338.277 -578.589)" fill="#fff"/>
        <path id="Path_288" data-name="Path 288" d="M393.38,633.805s.042,1.284.094,1.578.3.254.594.235.642.354.642.354.027-.494.058-.648.242-.081.248-.333.008-1.209-.586-1.386a.531.531,0,0,0-.732.288C393.636,633.938,393.38,633.805,393.38,633.805Z" transform="translate(-360.9 -573.427)" fill="#fff"/>
        <ellipse id="Ellipse_2" data-name="Ellipse 2" cx="0.363" cy="0.292" rx="0.363" ry="0.292" transform="translate(31.97 59.893) rotate(-15.313)" fill="#fff"/>
        <path id="Path_289" data-name="Path 289" d="M350.446,573.037c.021.073.167.721-.017.781s-.1.429-.1.429-.254.146-.3.258.363-.04.454.152-.06.6.038.617.513.233.619-.052a1.312,1.312,0,0,0,.106-.717c-.048-.1.081-.279-.025-.446a11.635,11.635,0,0,1-.646-1.352l-.065-.238Z" transform="translate(-326.577 -524.825)" fill="#fff"/>
        <path id="Path_290" data-name="Path 290" d="M289.848,521.52s-.717,1.094-.994,1.582a4.341,4.341,0,0,0-.4,1.157s.938.36,1.034-.15.006-1.1.079-1.538A7.937,7.937,0,0,1,289.848,521.52Z" transform="translate(-277.836 -484.388)" fill="#fff"/>
        <path id="Path_291" data-name="Path 291" d="M276.628,537.527a24.239,24.239,0,0,0-.606,2.624,26.732,26.732,0,0,1-1.071,3.34,6.069,6.069,0,0,1-.269.956c-.144.333-.513,1.73-.554,1.844a13.459,13.459,0,0,0,1.8.759,3.616,3.616,0,0,0,.909.177,8.066,8.066,0,0,1-1.967-1.036c-.21-.34.267-1.119.29-1.359a8.243,8.243,0,0,1,.231-.932,5.882,5.882,0,0,0,1.55.988,6.252,6.252,0,0,0,1.1-.067s-1.659-.575-1.911-1.067a2.725,2.725,0,0,1-.121-1.673c.1-.484.571-1.834.571-1.834a9.247,9.247,0,0,0,1.7,1.271,7.672,7.672,0,0,0,1.63-.013,13.607,13.607,0,0,1-.813,1.5,4.008,4.008,0,0,1-.913,1.073s.834-.023.973-.208a16.676,16.676,0,0,0,1.676-3.343,13,13,0,0,1-2.582-.294,1.911,1.911,0,0,1-1.244-1C276.888,538.854,277.245,537.417,276.628,537.527Z" transform="translate(-266.497 -497.129)" fill="#fff"/>
        <path id="Path_292" data-name="Path 292" d="M286.172,557.47s1.267.271,1.344.5-.321.765-.483.869a1.182,1.182,0,0,1-.967-.25c-.173-.2-.238-.6.065-.519s.615.154.615.154a2.642,2.642,0,0,1-.621-.448A.254.254,0,0,1,286.172,557.47Z" transform="translate(-275.833 -512.911)" fill="#fff"/>
        <path id="Path_293" data-name="Path 293" d="M285.2,577.243a9.472,9.472,0,0,1-2.232-.36c-.329-.233-.421-.031-.342.094s.361.24.4.537-.042.336-.042.336a2.132,2.132,0,0,1,.969.206,2.266,2.266,0,0,1,.571.477A3.232,3.232,0,0,0,285.2,577.243Z" transform="translate(-273.206 -528.235)" fill="#fff"/>
        <path id="Path_294" data-name="Path 294" d="M280.33,584.784a7.846,7.846,0,0,1-.3,1.584c-.15.2-.571-.525-1.077-.761S277.49,585,277.49,585a2.46,2.46,0,0,0,.975.013c.277-.119.554-.181.477-.411s-.613-.3-.838-.536-.327-.338-.327-.338a6.021,6.021,0,0,1,.961.281C279.057,584.164,280.33,584.784,280.33,584.784Z" transform="translate(-269.16 -533.76)" fill="#fff"/>
        <path id="Path_295" data-name="Path 295" d="M271.056,580.86s-.479.765-.615,1.021l-.281.533s.413-.054.863-.075.971.161,1.177.1.338-.431.119-.533a2.7,2.7,0,0,1-.711-.5C271.458,581.25,271.056,580.86,271.056,580.86Z" transform="translate(-263.358 -531.475)" fill="#fff"/>
        <path id="Path_296" data-name="Path 296" d="M276.516,597.2a2.957,2.957,0,0,1-.075,1.713c-.292.39-.906.292-1.225.144a2.924,2.924,0,0,1-1.175-1.18c-.127-.406-.386-.925.015-1.077a3.614,3.614,0,0,1,2-.063c.546.219.665.275.665.275s-.408-.04-.8-.083-1.169-.025-1.169-.025a5.214,5.214,0,0,1,.786.129C275.832,597.123,276.343,597,276.516,597.2Z" transform="translate(-266.271 -543.99)" fill="#fff"/>
        <path id="Path_297" data-name="Path 297" d="M266.445,589.458a8.907,8.907,0,0,0-.233,1.079,2.8,2.8,0,0,1-.469,1.188,1.11,1.11,0,0,0-.356.794,4.722,4.722,0,0,0,.265.967,2.277,2.277,0,0,0,.984,1.069,9.217,9.217,0,0,0,1.982.738,1.169,1.169,0,0,0,.877-.515,10.827,10.827,0,0,1-1.692-.367,3.915,3.915,0,0,1-1.34-.648,3.271,3.271,0,0,1-.717-1.344c-.006-.327.359-.927.554-.863a1.192,1.192,0,0,1,.413.379,2.045,2.045,0,0,1,.094-.546c.1-.321.934-.811.934-.811s-.763.027-.85.052-.588.235-.588.235.492-.517.815-.517a5.075,5.075,0,0,0,.508-.021S266.912,589.33,266.445,589.458Z" transform="translate(-259.576 -538.32)" fill="#fff"/>
        <path id="Path_298" data-name="Path 298" d="M270.2,604.37a5.951,5.951,0,0,1-1.307-.779,3.275,3.275,0,0,1-.415-.761,5.439,5.439,0,0,1,.859.558A4.191,4.191,0,0,1,270.2,604.37Z" transform="translate(-262.028 -548.91)" fill="#fff"/>
        <path id="Path_299" data-name="Path 299" d="M284.014,607.92s-.017.623-.21.773l-.194.152s.536-.156.569-.323.158-1.142.158-1.142Z" transform="translate(-274.005 -552.521)" fill="#fff"/>
        <path id="Path_300" data-name="Path 300" d="M292.051,569.92a7.45,7.45,0,0,1-.483,1.369,1.039,1.039,0,0,1-.848.233c-.073-.054.594-.515.746-.771S292.051,569.92,292.051,569.92Z" transform="translate(-279.628 -522.793)" fill="#fff"/>
        <path id="Path_301" data-name="Path 301" d="M336.96,505.27a14.893,14.893,0,0,1,.813,2.117c.188.788.467,1.7.467,1.7l.575-.158A28.98,28.98,0,0,0,336.96,505.27Z" transform="translate(-316.237 -471.495)" fill="#fff"/>
        <path id="Path_302" data-name="Path 302" d="M315.547,504.64a2.766,2.766,0,0,0-1.948,1.255,11.215,11.215,0,0,0-1.632,3.6c-.529,1.938-.7,4.737-.975,5.9s-.731,3.939-.731,4.262.809-.058.907-.4,1.663-6.181,1.965-6.852a9.468,9.468,0,0,1,1.469-1.83s-.377-2.34-.452-2.672a7.267,7.267,0,0,1,.052-1.8A8.508,8.508,0,0,1,315.547,504.64Z" transform="translate(-295.101 -471.059)" fill="#fff"/>
        <path id="Path_303" data-name="Path 303" d="M281.574,509.8s-.446.594-.4.817a5.439,5.439,0,0,0,1.325,1.54,3.585,3.585,0,0,0,.827.519s-1.59-2.017-1.64-2.2A6.678,6.678,0,0,1,281.574,509.8Z" transform="translate(-272.071 -475.086)" fill="#fff"/>
        <path id="Path_304" data-name="Path 304" d="M258.719,506.325a22.818,22.818,0,0,0-2.784-.277c-.917.017-1.8.121-1.8.121l2.086,1.625s-.279,1.561-.306,2.1a4.484,4.484,0,0,0,.486,1.557,8.761,8.761,0,0,1-.135-2.14c.11-.815.308-.884.308-.884s1.511.936,1.846,1.157a16.673,16.673,0,0,1,2.357,1.73c.09.252.2.713.2.713a8.441,8.441,0,0,1,.927-1.707,30.3,30.3,0,0,1-3.209-2.657A1.607,1.607,0,0,1,258.719,506.325Z" transform="translate(-250.668 -472.122)" fill="#fff"/>
        <path id="Path_305" data-name="Path 305" d="M266.282,522.76a14.419,14.419,0,0,1,2.219,1.609,5.558,5.558,0,0,1,.436,2.313,47.423,47.423,0,0,1-1.375,4.91l-.183.4s-.7-1.4-1.094-2.349-1.2-3.613-1.2-3.613,1.05,2.4,1.54,3.188a11.2,11.2,0,0,1,.7,1.279,33.682,33.682,0,0,0,.948-3.911A5.461,5.461,0,0,0,266.282,522.76Z" transform="translate(-259.336 -485.407)" fill="#fff"/>
        <path id="Path_306" data-name="Path 306" d="M316.1,575.974a4.394,4.394,0,0,1-2.315.359,17.657,17.657,0,0,1-3.566-.773c-.123.056.079.5.242.884s.06.725.49.863a13.914,13.914,0,0,0,3.238.506,2.159,2.159,0,0,0,.988-.623C315.32,576.932,316.1,575.974,316.1,575.974Z" transform="translate(-295.036 -527.27)" fill="#fff"/>
        <path id="Path_307" data-name="Path 307" d="M301.464,583.448a3.923,3.923,0,0,0-1.734,1.161,18.247,18.247,0,0,0-1.138,2.655,12.193,12.193,0,0,1-.8,1.742c-.217.354-.563.665-1.453.575s-3.705-.634-4.078-.709a4.44,4.44,0,0,1-1.134-.671,9.25,9.25,0,0,0,1.857.017c.756-.1,1.6.39,2.124.3a2.086,2.086,0,0,0,1.259-.992c.194-.367.719-2.749.825-3.149s1.671-1.065,2.4-1.265,1.19-1.194,1.313-1.7.06-1.386.379-1.8.554-.694.554-.694-.156,1.438-.248,1.817.536.561.536.561-.471.108-.494.313a1.1,1.1,0,0,0,.069.54c.067.169.458.238.458.238a7.281,7.281,0,0,0,.144,1.667S302.1,583.342,301.464,583.448Z" transform="translate(-279.958 -530.01)" fill="#fff"/>
        <path id="Path_308" data-name="Path 308" d="M312.32,592.53s-.275,1.684-.356,2.515a5.818,5.818,0,0,0,0,1.325,17.138,17.138,0,0,0,.358-1.969c-.035-.238.236.158.2.373a3.811,3.811,0,0,1-.411,1.775,4.624,4.624,0,0,1-.781.965s.342.392.719.258a5.329,5.329,0,0,0,1.265-3.443A3.066,3.066,0,0,0,312.32,592.53Z" transform="translate(-295.948 -540.763)" fill="#fff"/>
        <path id="Path_309" data-name="Path 309" d="M301.052,597.382c.225.5,1.061.65,1.061.65s-.275-.469-.083-.786a6.636,6.636,0,0,0,.694-1.117c.079-.3.106-.794.175-1.3s.64-2.121.6-2.121a2.662,2.662,0,0,0-2.048,1.067,6.828,6.828,0,0,0-.773,1.85A4.879,4.879,0,0,0,301.052,597.382Zm.907-2.443a2.085,2.085,0,0,1,.367-.969c.175.319.273,1.1.115,1.171S302,595.15,301.958,594.94Zm-1,.54a3.682,3.682,0,0,1,.469-.865s.392.675.277,1.015a6.594,6.594,0,0,1-.454.919A3.538,3.538,0,0,1,300.958,595.48Z" transform="translate(-287.51 -540.906)" fill="#fff"/>
        <path id="Path_310" data-name="Path 310" d="M329.953,593.472s-1.4-.231-1.586-.321-.152.313.031.5a3.012,3.012,0,0,0,1.315.344A1.888,1.888,0,0,0,329.953,593.472Z" transform="translate(-309.336 -541.214)" fill="#fff"/>
        <path id="Path_311" data-name="Path 311" d="M331.646,590.936c-.133,0-1.34.21-1.575,0s-.163-.436.263-.436,1.294.079,1.294.079Z" transform="translate(-310.679 -539.118)" fill="#fff"/>
        <path id="Path_312" data-name="Path 312" d="M304.988,581.54a1.521,1.521,0,0,1-.363.717c-.244.185-.49.148-.44.621a2.046,2.046,0,0,0,.523.967s.427-.21.383-.538-.14-.456-.077-.661S305.561,582.394,304.988,581.54Z" transform="translate(-290.287 -532.019)" fill="#fff"/>
        <path id="Path_313" data-name="Path 313" d="M299.5,593.32a7.119,7.119,0,0,0-.919,1.025c-.263.375-.386,1-.19,1.067s.573-.271.6-.515a1.693,1.693,0,0,1,.175-.577C299.261,594.139,299.5,593.32,299.5,593.32Z" transform="translate(-285.632 -541.367)" fill="#fff"/>
        <path id="Path_314" data-name="Path 314" d="M290.817,610.949a8.928,8.928,0,0,0-1.457-.375c-.219.06-.6.273-.679.1s.2-.654.5-.7a6.665,6.665,0,0,1,1.709.331C291.025,610.382,291.371,610.71,290.817,610.949Z" transform="translate(-278.009 -554.57)" fill="#fff"/>
        <path id="Path_315" data-name="Path 315" d="M248.72,606.55a2.2,2.2,0,0,0,.563,1.288,6.7,6.7,0,0,0,1.923,1.042s-.483.183-2.74.971a10.842,10.842,0,0,0-3.12,1.438c-.329.227-.517.338-.719.1a.845.845,0,0,1-.16-.583s.5.333.742.131.2-.859-.183-.813a.591.591,0,0,0-.488.369,2.173,2.173,0,0,1,.354-.927C245.161,609.251,248.72,606.55,248.72,606.55Z" transform="translate(-243.016 -551.888)" fill="#fff"/>
        <path id="Path_316" data-name="Path 316" d="M244.56,654.38a11.652,11.652,0,0,0,.7,2.565,3.63,3.63,0,0,0,1.955,1.7,3.2,3.2,0,0,0,2.251-1.461l.425-.744s-1.321,1.7-2.209,1.607a3.29,3.29,0,0,1-2.18-1.582C245.248,655.891,244.56,654.38,244.56,654.38Z" transform="translate(-243.092 -589.907)" fill="#fff"/>
        <path id="Path_317" data-name="Path 317" d="M243.717,638.127a6.072,6.072,0,0,1-.8,1.023c-.39.362-.273.152-.592.417s-.446.594-.84.661a3.129,3.129,0,0,1-1.292-.058c-.325-.109-.575-.236-.615-.381s.315-.93.04-.717-.165.477-.361.333a3.336,3.336,0,0,1-.7-.967c-.05-.183.381-.615.281-.765s-.421-.1-.556-.24.079-.571.079-.788-.342-.4-.5-.669.39-.363.165-.615a1.391,1.391,0,0,1-.348-.486c-.031-.117.24-.271.208-.458s-.367-.625-.379-.74.175-4.378.175-4.378.746,3.44.909,4.612a18.417,18.417,0,0,0,1,3.59A2.513,2.513,0,0,0,243.717,638.127Z" transform="translate(-237.517 -570.054)" fill="#fff"/>
        <path id="Path_318" data-name="Path 318" d="M248.909,650.75a18.152,18.152,0,0,0,1.267,2.582c.425.531.934,1.261,1.855,1.023a1.058,1.058,0,0,1-.861.442,2.759,2.759,0,0,1-1.775-.765A5.507,5.507,0,0,1,248.909,650.75Z" transform="translate(-246.462 -587.034)" fill="#fff"/>
        <path id="Path_319" data-name="Path 319" d="M243.29,643.13a2,2,0,0,0,.521.873,2.5,2.5,0,0,0,.046.679,9.541,9.541,0,0,0,.285,1.04,11.409,11.409,0,0,1-.729-1.448C243.344,643.97,243.29,643.13,243.29,643.13Z" transform="translate(-242.087 -581.002)" fill="#fff"/>
        <path id="Path_320" data-name="Path 320" d="M244.216,632.055a1.434,1.434,0,0,0,1.369.538,5.425,5.425,0,0,0,1.8-1.2,4.438,4.438,0,0,0,.652-1.846c-.044-.336-.369-.452-.423-.408s-1.557.631-1.557.631a2,2,0,0,1-1.044-.375c-.436-.352-.567-.169-.567-.169a3.141,3.141,0,0,1-.775-.6l-.135-.227a9.527,9.527,0,0,0-.017,1.609A5.618,5.618,0,0,0,244.216,632.055Zm2.557-.759s.012-.385,0-.738.6-.782.6-.782A1.728,1.728,0,0,1,246.773,631.3Zm-1.155.919s.071-.315.2-.923a2.9,2.9,0,0,1,.638-1.161,7.314,7.314,0,0,1,.046,1.238A9.315,9.315,0,0,1,245.619,632.216Zm-.379-.719c0-.046.206-.481.388-.892a3.318,3.318,0,0,1,.5-.763,4.8,4.8,0,0,1-.288.888A7.49,7.49,0,0,1,245.24,631.5Zm-.254-.315c-.194.008-.06-.19-.1-.375s.356-.444.356-.444C245.569,630.978,245.181,631.174,244.985,631.182Zm-.263.794a2.774,2.774,0,0,1,.252-.511,1.29,1.29,0,0,1,.248.579C245.225,632.295,244.737,632.03,244.723,631.976Zm-.636-1.194a1.129,1.129,0,0,1,.083-.744,3.509,3.509,0,0,1,.517.734,1.116,1.116,0,0,1-.071.894A2.55,2.55,0,0,1,244.087,630.782Z" transform="translate(-242.249 -569.225)" fill="#fff"/>
        <path id="Path_321" data-name="Path 321" d="M244.65,608.015c.042.15.125.025.315-.086.092-.054.731-.563,1.371-1.079a2.435,2.435,0,0,1-.037-.311,1.045,1.045,0,0,1,.1-.475.477.477,0,0,1,.2.4.509.509,0,0,1-.067.237l.39-.315a1.194,1.194,0,0,1-.05-.2,3.127,3.127,0,0,1,.013-.463.4.4,0,0,1,.131.584l.725-.588s-.8-1.082-.944-1.071a2.79,2.79,0,0,0-1.311.7A7.982,7.982,0,0,0,244.65,608.015Zm1.944-2.438a1.932,1.932,0,0,1-.063-.521c.023-.183.252-.342.275-.258A1.122,1.122,0,0,1,246.595,605.577Zm-1.079.354a1.472,1.472,0,0,1,.567-.7,2.949,2.949,0,0,1,.106.715,4.023,4.023,0,0,1-.6.842A1.852,1.852,0,0,1,245.515,605.931Zm-.629,1.2c-.075-.217.194-.581.194-.581a3.057,3.057,0,0,1,.183.669,1.291,1.291,0,0,1-.044.35A1.273,1.273,0,0,1,244.886,607.128Z" transform="translate(-243.162 -550.368)" fill="#fff"/>
        <path id="Path_322" data-name="Path 322" d="M267.682,567.277l-.221.738s-.083-.611-.292-.494-.271.177-.458.023-.369-.444-.558-.494-.752-.225-.752-.225a4.423,4.423,0,0,1,.879-.119,1.686,1.686,0,0,1,.527.194c.133.067.235-.1.423-.008A2.255,2.255,0,0,1,267.682,567.277Z" transform="translate(-259.59 -520.237)" fill="#fff"/>
        <path id="Path_323" data-name="Path 323" d="M266,570.579s-.075.963.329,1.2a5.772,5.772,0,0,1,.819.629,8.925,8.925,0,0,0-.515-1.021,4.152,4.152,0,0,1-.317-.561,8.2,8.2,0,0,1,.7.765,4.1,4.1,0,0,0,.375.456,1.574,1.574,0,0,0,.3-.569,7.54,7.54,0,0,1,.24-.948,3.522,3.522,0,0,0-.5.458c-.092.142.133-.433-.046-.606s-.367-.267-.444-.173-.052.352-.052.352-.235-.008-.29-.2-.019-.5-.131-.479A1.293,1.293,0,0,0,266,570.579Z" transform="translate(-260.059 -522.772)" fill="#fff"/>
        <path id="Path_324" data-name="Path 324" d="M246.64,573.961a19.614,19.614,0,0,1,1.134-1.93,5.807,5.807,0,0,1,1.267-1.142c.181-.123.444.258.133.484a12.933,12.933,0,0,0-1.317.959A16.555,16.555,0,0,0,246.64,573.961Z" transform="translate(-244.739 -523.553)" fill="#fff"/>
        <path id="Path_325" data-name="Path 325" d="M259.325,572.92s.385.006.473.277a1.1,1.1,0,0,0,.356.623l.183.113a4.566,4.566,0,0,1-1.038-.188.813.813,0,0,1-.21-.517C259.088,573.126,259.325,572.92,259.325,572.92Z" transform="translate(-254.594 -525.17)" fill="#fff"/>
        <path id="Path_326" data-name="Path 326" d="M260.922,568.3a2.412,2.412,0,0,0-.652-.283c-.229-.027-.34.21-.473.2s-.311-.106-.442.077a1.089,1.089,0,0,1-.225.246.709.709,0,0,0,.4.377c.263.069.4.194.558.075a.479.479,0,0,0,.15-.365S261.076,568.629,260.922,568.3Z" transform="translate(-254.626 -521.273)" fill="#fff"/>
        <path id="Path_327" data-name="Path 327" d="M253.562,576.569a4.8,4.8,0,0,0-.7.825c-.006.135.135.331.258.194s.263-.219.44-.386S254.047,576.407,253.562,576.569Z" transform="translate(-249.662 -528.045)" fill="#fff"/>
        <path id="Path_328" data-name="Path 328" d="M250.221,580.615c-.121.056-.4.506-.317.661s.16.59.427.311S250.446,580.51,250.221,580.615Z" transform="translate(-247.311 -531.269)" fill="#fff"/>
        <path id="Path_329" data-name="Path 329" d="M240.85,585.775s-.356.348-.323.427a2.423,2.423,0,0,1,.121.438c.025.154-.165.1-.313.263a1.249,1.249,0,0,0-.279.7c.033.119.415.073.333.227s-.5.446-.615.654a3.235,3.235,0,0,0-.348,1.175c.04.25.423.144.444.329a5.362,5.362,0,0,0,.617-1.563,1.814,1.814,0,0,1,.329-.713,7.537,7.537,0,0,0,.417-.967c.025-.125.417-.95.406-1.044s-.236-.165-.365-.042A.723.723,0,0,1,240.85,585.775Z" transform="translate(-239.026 -535.252)" fill="#fff"/>
        <path id="Path_330" data-name="Path 330" d="M238.909,606.508l-.579,2.032s.183-1.552.192-1.811a1.623,1.623,0,0,1,.173-.569Z" transform="translate(-238.161 -551.559)" fill="#fff"/>
        <path id="Path_331" data-name="Path 331" d="M246.744,598.6l-.256.279a24.117,24.117,0,0,0-3.222.881c-.5.294-1.021,1.184-1.352,2.765a6.3,6.3,0,0,0-.115,2.5l0,1.373a5.443,5.443,0,0,1-.481-1.584,20.954,20.954,0,0,1,.458-3.226,6.1,6.1,0,0,1,.786-1.7,3.309,3.309,0,0,1,.848-.777A14.232,14.232,0,0,1,246.744,598.6Z" transform="translate(-240.527 -545.585)" fill="#fff"/>
        <path id="Path_332" data-name="Path 332" d="M246.3,631.987s-1.127,1.242-1.836,1.384a2.819,2.819,0,0,1-2.071-.536c-.127-.275-.854-2.742-.854-2.742l-.167-.4a8.109,8.109,0,0,0,.31,2.309c.3.644.615,1.5,1.027,1.573a2.87,2.87,0,0,0,2.011-.05A2.585,2.585,0,0,0,246.3,631.987Z" transform="translate(-240.567 -570.247)" fill="#fff"/>
        <path id="Path_333" data-name="Path 333" d="M268.638,621.01s-2.14.571-2.232.611,1.525.2,1.7.519a1.461,1.461,0,0,1,.185.406l.121-.636a4.207,4.207,0,0,0-.715-.319l-.452-.127Z" transform="translate(-260.383 -563.338)" fill="#fff"/>
        <path id="Path_334" data-name="Path 334" d="M367.832,634.04s-.354-1.55-.65-1.7-.667-.063-.523.644a3.55,3.55,0,0,0,.238.865,5.315,5.315,0,0,0,.029-.684,2.33,2.33,0,0,1,.219.615C367.227,634.165,367.832,634.04,367.832,634.04Z" transform="translate(-339.721 -572.416)" fill="#fff"/>
        <path id="Path_335" data-name="Path 335" d="M362.764,613.43a11.75,11.75,0,0,1,.619,2.263c-.023.5-.1,1.382-.1,1.382a2.218,2.218,0,0,0-.329.7c-.092.379-.55-1.223-.525-1.917a4.021,4.021,0,0,1,.327-1.511c.01.163.171,1.217.156,1.613a.665.665,0,0,0,.146.529S362.7,613.761,362.764,613.43Z" transform="translate(-336.396 -557.345)" fill="#fff"/>
        <path id="Path_336" data-name="Path 336" d="M361.669,587.394s-.529.146-.511.573a12.641,12.641,0,0,0,.215,1.43,1.835,1.835,0,0,0,.146.531,10.625,10.625,0,0,0,.065-1.45c-.05-.358.354-.606.354-.606S361.944,587.256,361.669,587.394Z" transform="translate(-335.392 -536.651)" fill="#fff"/>
        <path id="Path_337" data-name="Path 337" d="M380.923,571.79l-.473.581.121.438s.6-.085.538-.344S380.923,571.79,380.923,571.79Z" transform="translate(-350.664 -524.273)" fill="#fff"/>
        <path id="Path_338" data-name="Path 338" d="M373.389,572.8s.361.027.431.283-.125.4-.413.288S372.966,572.908,373.389,572.8Z" transform="translate(-344.868 -525.072)" fill="#fff"/>
        <path id="Path_339" data-name="Path 339" d="M368.793,572.39a.34.34,0,0,1-.015.342.787.787,0,0,1-.573.271C368.057,572.965,368.245,572.5,368.793,572.39Z" transform="translate(-340.932 -524.747)" fill="#fff"/>
        <path id="Path_340" data-name="Path 340" d="M367.781,575.429s.242.069.425.1a.952.952,0,0,1,.465.244.615.615,0,0,0,.433.088c.131,0,.071.279-.037.279a3.422,3.422,0,0,1-.442-.148c-.158-.04-.171-.052-.3-.017a.288.288,0,0,1-.308-.15c-.023-.081-.217-.252-.308-.158a.312.312,0,0,0-.083.394c.092.171.352.144.388.223s-.058.279-.029.383.1.29.2.246.256-.527.311-.321-.177.225-.058.546.038.461.26.415.354-.073.394-.235a2.239,2.239,0,0,0-.2-.717s.094-.217.271-.09.344.142.454.008-.146-.638-.221-.809-.371-.308-.561-.4S368.058,575.038,367.781,575.429Z" transform="translate(-340.484 -526.98)" fill="#fff"/>
        <path id="Path_341" data-name="Path 341" d="M364.11,574.914a1.756,1.756,0,0,0,.675-.081c.173-.106.146-.415.125-.44s.4-.319.279-.377a.738.738,0,0,0-.673.281C364.385,574.523,364.11,574.914,364.11,574.914Z" transform="translate(-337.729 -526.028)" fill="#fff"/>
        <path id="Path_342" data-name="Path 342" d="M363.774,579.327s-.39-.292-.644-.148-.394.408-.294.517a.421.421,0,0,0,.4.131c.2-.01.4.062.523.031S364.153,579.5,363.774,579.327Z" transform="translate(-336.695 -530.103)" fill="#fff"/>
        <path id="Path_343" data-name="Path 343" d="M364.693,583.745c-.013-.048-.215-.788-.079-.988s.358-.408.665-.263a.9.9,0,0,1,.515.486c.021.127-.067.131-.258.4s-.425.436-.488.586l-.062.15s-.371-.383-.177-.644.427-.319.383-.477-.265-.052-.421.179A.827.827,0,0,0,364.693,583.745Z" transform="translate(-338.091 -532.734)" fill="#fff"/>
        <path id="Path_344" data-name="Path 344" d="M366.8,590.6c.058.094.475.121.515-.081a.909.909,0,0,0-.088-.506c-.04-.092-.308-.371-.375-.133S366.612,590.308,366.8,590.6Z" transform="translate(-339.79 -538.55)" fill="#fff"/>
        <path id="Path_345" data-name="Path 345" d="M369.224,585.15s-.244.509-.169.723.2.256.342.215.448-.338.31-.517S369.456,585.19,369.224,585.15Z" transform="translate(-341.633 -534.875)" fill="#fff"/>
        <path id="Path_346" data-name="Path 346" d="M373.6,583.174c-.271.106.144.473.344.613s.594.179.592-.1A.747.747,0,0,0,373.6,583.174Z" transform="translate(-345.172 -533.275)" fill="#fff"/>
        <path id="Path_347" data-name="Path 347" d="M371.02,585.271c.113.035.329.49.586.363s.2-.713.2-.713.108-.285.3,0,.125.363.233.436.361-.069.446.127.16.369-.127.446-.423-.09-.411.112.327.44.448.452a.813.813,0,0,1,.556.1c.3.169.544.483.154.563s-.527-.1-.754-.181-.517-.592-.646-.665-.238.088-.4.133-.49,0-.508-.154S371.02,585.271,371.02,585.271Z" transform="translate(-343.199 -534.602)" fill="#fff"/>
        <path id="Path_348" data-name="Path 348" d="M368.431,590.53a5.187,5.187,0,0,0-.381.811c-.008.135-.292.223-.358.2s-.263.329-.16.49.352.156.375.023.331.179.413.215.463-.127.408-.244-.067-1.1-.115-1.159S368.431,590.53,368.431,590.53Z" transform="translate(-340.415 -539.15)" fill="#fff"/>
        <path id="Path_349" data-name="Path 349" d="M371.95,592.327a3.353,3.353,0,0,1,.267.225c.094.094.279.342.306.008s.248-.809.34-.811.356.446.509.577a1.444,1.444,0,0,0,.469.267c.181.069.465.242.231.246a3.351,3.351,0,0,0-.638-.015c-.179.048-.429.263-.586.277a1.931,1.931,0,0,0-.538.131c-.1.058-.331-.023-.469-.363A.474.474,0,0,1,371.95,592.327Z" transform="translate(-343.816 -540.117)" fill="#fff"/>
        <path id="Path_350" data-name="Path 350" d="M378.44,595.11a2.819,2.819,0,0,0,.267.971c.2.286.15.49.265.694a1.009,1.009,0,0,0,.492.454c.138.021.446.025.365-.306a2.946,2.946,0,0,0-.775-1.113A4.7,4.7,0,0,1,378.44,595.11Z" transform="translate(-349.073 -542.788)" fill="#fff"/>
        <path id="Path_351" data-name="Path 351" d="M369.125,596.82c0,.079.346.573.14.85s-.144-.046-.433-.181-.65-.113-.706.088-.108.594.019.686.223-.2.452-.123.354.325.456.4.448-.138.538-.221a1.35,1.35,0,0,1,.5-.242c.219-.06.429.044.4-.154s-.138-.561-.367-.506-.352-.015-.4-.173S369.125,596.82,369.125,596.82Z" transform="translate(-340.861 -544.142)" fill="#fff"/>
        <path id="Path_352" data-name="Path 352" d="M370.392,603.15a2.987,2.987,0,0,0-.485.542c-.094.192-.348.423-.263.665s.381.41.436.233.394-.015.435.14-.069.392.283.281.679-.152.7-.55-.079-.665-.242-.561-.313.292-.577.054S370.7,603.3,370.392,603.15Z" transform="translate(-342.097 -549.167)" fill="#fff"/>
        <path id="Path_353" data-name="Path 353" d="M378.514,606.81s.494.135.561.327.181.4.008.546-.3.273-.456.183a1.383,1.383,0,0,1-.446-.39C378.12,607.36,378.433,606.891,378.514,606.81Z" transform="translate(-348.862 -552.066)" fill="#fff"/>
        <path id="Path_354" data-name="Path 354" d="M370.11,609a2.213,2.213,0,0,1,.083.761c-.044.321-.3.6-.225.856s.113.411.113.411a2.444,2.444,0,0,1,.269-.413c.138-.156.5-.2.492-.458s-.052-.65-.052-.64-.117.273-.271.14A3.188,3.188,0,0,1,370.11,609Z" transform="translate(-342.356 -553.811)" fill="#fff"/>
        <path id="Path_355" data-name="Path 355" d="M375.07,610.41a8.631,8.631,0,0,1,.323,1.182c.013.26-.163.369-.138.567s-.023.506.2.461.627-.392.536-.573a4.443,4.443,0,0,1-.417-.879,6.007,6.007,0,0,0-.281-.721Z" transform="translate(-346.405 -554.931)" fill="#fff"/>
        <path id="Path_356" data-name="Path 356" d="M369.607,616.31s-.019.95-.042,1.242a4.937,4.937,0,0,1-.106.69c-.06.319-.25.546-.175.792s.115.661.273.588a.474.474,0,0,0,.25-.613,1.1,1.1,0,0,1-.008-.763c.048-.2.417-.438.329-.665S369.607,616.31,369.607,616.31Z" transform="translate(-341.812 -559.622)" fill="#fff"/>
        <path id="Path_357" data-name="Path 357" d="M372.189,617.307a8.719,8.719,0,0,0-.01,1.255.458.458,0,0,1-.113.5c-.152.144-.286.108-.379.369s.075.606.023.7.215.371.208.15.019-.477.1-.5a1.694,1.694,0,0,0,.523-.467c.09-.156.413-.275.308-.6S372.533,617.271,372.189,617.307Z" transform="translate(-343.704 -560.41)" fill="#fff"/>
        <path id="Path_358" data-name="Path 358" d="M379.774,612.881s-.279.606-.052.779.4.273.554.188a.3.3,0,0,0,.19-.317C380.458,613.386,380.364,612.669,379.774,612.881Z" transform="translate(-350.017 -556.853)" fill="#fff"/>
        <path id="Path_359" data-name="Path 359" d="M378.764,622.76a1.783,1.783,0,0,1,.333.629.356.356,0,0,1-.369.483c-.169-.027-.36-.461-.383-.6S378.605,622.877,378.764,622.76Z" transform="translate(-348.997 -564.724)" fill="#fff"/>
        <path id="Path_360" data-name="Path 360" d="M379.615,629.98s.477.163.546.469-.246.508-.4.388a.819.819,0,0,1-.261-.473A.714.714,0,0,1,379.615,629.98Z" transform="translate(-349.913 -570.452)" fill="#fff"/>
        <path id="Path_361" data-name="Path 361" d="M373.124,632.54a9.1,9.1,0,0,1,.1,1.25c-.042.169-.31.119-.388-.092S372.811,632.565,373.124,632.54Z" transform="translate(-344.612 -572.619)" fill="#fff"/>
        <path id="Path_362" data-name="Path 362" d="M373.537,639.84a1.091,1.091,0,0,1,.3.819,2.311,2.311,0,0,1-.277,1.017,2.228,2.228,0,0,1-.119-.89A6.3,6.3,0,0,1,373.537,639.84Z" transform="translate(-345.116 -578.398)" fill="#fff"/>
        <path id="Path_363" data-name="Path 363" d="M373.854,649.46a2.929,2.929,0,0,1,.19.694c-.01.179-.425.1-.45-.1S373.854,649.46,373.854,649.46Z" transform="translate(-345.235 -586.013)" fill="#fff"/>
        <path id="Path_364" data-name="Path 364" d="M375.456,656.79s.346.69.221.8-.165.006-.3-.135S375.456,656.79,375.456,656.79Z" transform="translate(-346.616 -591.815)" fill="#fff"/>
        <path id="Path_365" data-name="Path 365" d="M375.436,664.421a3.559,3.559,0,0,1,.087.819c-.037.225-.288.315-.39.008S375.159,664.2,375.436,664.421Z" transform="translate(-346.427 -597.825)" fill="#fff"/>
        <path id="Path_366" data-name="Path 366" d="M375.606,672.43s.158.761-.036.834-.517.044-.488-.279S375.606,672.43,375.606,672.43Z" transform="translate(-346.414 -604.196)" fill="#fff"/>
        <path id="Path_367" data-name="Path 367" d="M376.228,679.47s.067.865-.044.719a1,1,0,0,1-.244-.484C375.94,679.57,376.228,679.47,376.228,679.47Z" transform="translate(-347.094 -609.769)" fill="#fff"/>
        <path id="Path_368" data-name="Path 368" d="M376.465,684.454s.156.467-.04.521-.363-.288-.325-.421S376.431,684.323,376.465,684.454Z" transform="translate(-347.216 -613.666)" fill="#fff"/>
        <path id="Path_369" data-name="Path 369" d="M374.109,690.753a2.051,2.051,0,0,1-.369.542c-.15.1-.55-.615-.55-.615a7.856,7.856,0,0,0,.133,1.509,12.362,12.362,0,0,0,.538,1.369,2.827,2.827,0,0,1-.113-.838,1.749,1.749,0,0,1,.142-.613,1.2,1.2,0,0,0,.094-.571C373.984,691.434,374.4,691.07,374.109,690.753Z" transform="translate(-344.917 -618.643)" fill="#fff"/>
        <path id="Path_370" data-name="Path 370" d="M376.578,574.635s1.207-.046,1.307.427.171.946.248,1.444-.056.694.154,1.175a3.176,3.176,0,0,1,.34,1.24,2.318,2.318,0,0,0,.056,1.232,3.454,3.454,0,0,1,.363,1.465,8.918,8.918,0,0,0,.167,1.55,10.149,10.149,0,0,1-.277,1.878c-.008.267.027,1.346.048,1.753a2.837,2.837,0,0,1-.331,1.067s-.619-.869-.483-1.125a1.635,1.635,0,0,0,.436-1.211c-.106-.6-.069-1.373-.1-1.63s.283-.685.09-1.359-.369-1.39-.454-1.661-.085-1.242-.154-1.546-.315-1.207-.438-1.6-.15-1.034-.225-1.25-.7-.344-.842-.7S376.026,574.648,376.578,574.635Z" transform="translate(-347.348 -526.622)" fill="#fff"/>
        <path id="Path_371" data-name="Path 371" d="M328.137,515.751s-2.274-.467-2.409-.429-.975.85-.062.794,2.34.177,2.384.088S328.558,516.018,328.137,515.751Z" transform="translate(-306.964 -479.457)" fill="#fff"/>
        <path id="Path_372" data-name="Path 372" d="M353.184,629.034s-.85.4-1.265-.04a1.872,1.872,0,0,1-.469-.994s.01.967.044,1.521.146.679.146.679.592-.613.867-.656S353.184,629.034,353.184,629.034Z" transform="translate(-327.708 -568.891)" fill="#fff"/>
        <path id="Path_373" data-name="Path 373" d="M342.356,618.3a8.538,8.538,0,0,1-.7,1.634c-.283.356-.894,1.04-.894,1.04a.738.738,0,0,0,.736-.112c.3-.29,1.2-1.3,1.2-1.3Z" transform="translate(-319.245 -561.197)" fill="#fff"/>
        <path id="Path_374" data-name="Path 374" d="M391.34,522.32s.575,1.094.673,1.386.558,1.607.692,1.88-1.011,2.117-1.011,2.117a6.063,6.063,0,0,0,.55-2.5C392.046,524.466,391.34,522.32,391.34,522.32Z" transform="translate(-359.285 -485.036)" fill="#fff"/>
        <path id="Path_375" data-name="Path 375" d="M381.589,513.48s.621.085.694.275a6.253,6.253,0,0,1,.242.7,3.537,3.537,0,0,0,.1.367s-.365-.4-.465-.471a.426.426,0,0,0-.244-.06,3.509,3.509,0,0,1,.363.5l.04.117a2.92,2.92,0,0,0-.75-.767c-.313-.14-.661-.261-.661-.261Z" transform="translate(-351.028 -478)" fill="#fff"/>
        <path id="Path_376" data-name="Path 376" d="M302.5,414.18s-2.171.792-2.759,1.09-2.051,1.19-2.051,1.19,1.465-.087,1.928-.194.932-.254.932-.254-1.48.11-1.709.135A20.277,20.277,0,0,1,301.091,415C301.581,414.766,302.5,414.18,302.5,414.18Z" transform="translate(-285.151 -399.195)" fill="#fff"/>
        <path id="Path_377" data-name="Path 377" d="M292.068,434.67a1.46,1.46,0,0,0-.594,1.075,9.224,9.224,0,0,0,1.319,2.332,7.792,7.792,0,0,1-.965-1.913c.046-.321.7-1,.644-1.192S292.068,434.67,292.068,434.67Z" transform="translate(-280.229 -415.46)" fill="#fff"/>
        <path id="Path_378" data-name="Path 378" d="M288.652,442.2a1.04,1.04,0,0,0,.367,1.336,11.321,11.321,0,0,0,1.409.988s-1.346-.381-1.438-.446-.431.09-.431.09-.181-.177-.131-.725A9.481,9.481,0,0,1,288.652,442.2Z" transform="translate(-277.811 -421.433)" fill="#fff"/>
      </g>
    </g>
    <g id="Group_27" data-name="Group 27" transform="translate(292.083 305.648)">
      <path id="Path_379" data-name="Path 379" d="M810.4,411.42v.054a.036.036,0,0,1-.038.04h-.752v2.53a.036.036,0,0,1-.04.04h-.065a.035.035,0,0,1-.038-.04v-2.53h-.752a.036.036,0,0,1-.04-.04v-.054a.036.036,0,0,1,.04-.04h1.646A.036.036,0,0,1,810.4,411.42Z" transform="translate(-808.68 -411.38)" fill="#1d1d1b"/>
      <path id="Path_380" data-name="Path 380" d="M821.587,411.42v2.624a.035.035,0,0,1-.038.04h-.065a.035.035,0,0,1-.04-.04v-2.438l-.986,1.955a.044.044,0,0,1-.044.029h-.075a.042.042,0,0,1-.044-.029l-.986-1.955v2.438a.036.036,0,0,1-.04.04h-.065c-.025,0-.038-.013-.038-.04V411.42a.035.035,0,0,1,.038-.04h.111a.042.042,0,0,1,.044.029l1.015,2.013,1.015-2.013a.044.044,0,0,1,.044-.029h.111A.037.037,0,0,1,821.587,411.42Z" transform="translate(-816.984 -411.38)" fill="#1d1d1b"/>
    </g>
  </g>
</svg>
