<svg xmlns="http://www.w3.org/2000/svg" width="60.285" height="19.079" viewBox="0 0 60.285 19.079">
  <g id="Group_4" data-name="Group 4" transform="translate(-22.951 -4.836)">
    <g id="Group_3" data-name="Group 3" transform="translate(0 0)">
      <g id="Group_2" data-name="Group 2" transform="translate(22.951 4.836)">
        <path id="Path_6" data-name="Path 6" d="M402.171,446.905v4.447l-1.217,1.32,1.63,1.779v5.067q-1.2,1.564-2.393,3.127H390.7V443.78h9.078Q400.974,445.342,402.171,446.905Zm-8.005,4.5h4.477v-4.015h-4.477Zm0,7.628h4.827v-4.5h-4.827Z" transform="translate(-390.7 -443.674)" fill="#b28e4d"/>
        <path id="Path_7" data-name="Path 7" d="M480.06,462.149v-3.53l1.774-.135v-11.75l-1.774-.135v-3.53l3.507.216,3.507-.216v3.53l-1.774.135v11.75l1.774.135v3.53l-3.507-.216Z" transform="translate(-466.671 -443.07)" fill="#b28e4d"/>
        <path id="Path_8" data-name="Path 8" d="M539.69,462.645V443.78h3.466v7.33h2.063q1.393-3.666,2.785-7.33h3.837l-3.59,8.894q1.951,4.985,3.9,9.971h-3.879q-1.445-3.8-2.889-7.6h-2.228v7.6Z" transform="translate(-517.367 -443.674)" fill="#b28e4d"/>
        <path id="Path_9" data-name="Path 9" d="M629.75,462.645V443.78H639.9v3.773h-6.685v3.665h5.653v3.611h-5.653v4.042h6.891v3.773Q634.93,462.646,629.75,462.645Z" transform="translate(-593.933 -443.674)" fill="#b28e4d"/>
        <path id="Path_10" data-name="Path 10" d="M721.289,447.067v6.819l-1.672,2.183q1.247,3.288,2.5,6.576h-3.879q-.919-2.668-1.837-5.335h-3.322v5.335H709.61V443.78h9.161Q720.031,445.423,721.289,447.067Zm-8.212,6.63h4.745v-6.306h-4.745Z" transform="translate(-661.828 -443.674)" fill="#b28e4d"/>
      </g>
    </g>
  </g>
</svg>
