<svg id="money-send_bulk" data-name="money-send/bulk" xmlns="http://www.w3.org/2000/svg" width="90" height="90" viewBox="0 0 90 90">
  <g id="vuesax_bulk_money-send" data-name="vuesax/bulk/money-send">
    <g id="money-send">
      <path id="Vector" d="M0,0H90V90H0Z" fill="none" opacity="0"/>
      <g id="Group" transform="translate(7.403 7.403)">
        <path id="Vector-2" data-name="Vector" d="M56.4,21.619a2.789,2.789,0,0,1-1.993-.827,2.837,2.837,0,0,1,0-3.985L62.111,9.1A37.613,37.613,0,1,0,66.1,13.084l-7.707,7.707A2.789,2.789,0,0,1,56.4,21.619Z" fill="#b28e4d" opacity="0.4"/>
      </g>
      <path id="Vector-3" data-name="Vector" d="M18.506,18.765l-3.7-1.3V9.253h.3a3.563,3.563,0,0,1,3.405,3.7,2.776,2.776,0,1,0,5.552,0A9.1,9.1,0,0,0,15.1,3.7h-.3V2.776a2.776,2.776,0,1,0-5.552,0V3.7H8.143A8.305,8.305,0,0,0,0,12.14c0,5.4,3.146,7.143,5.552,7.995l3.7,1.3v8.217h-.3a3.563,3.563,0,0,1-3.405-3.7A2.8,2.8,0,0,0,2.776,23.17,2.8,2.8,0,0,0,0,25.946,9.1,9.1,0,0,0,8.957,35.2h.3v.925a2.776,2.776,0,0,0,5.552,0V35.2h1.11a8.305,8.305,0,0,0,8.143-8.439C24.058,21.319,20.912,19.58,18.506,18.765ZM7.366,14.842c-1.258-.444-1.814-.7-1.814-2.739A2.769,2.769,0,0,1,8.143,9.216h1.11v6.255Zm8.55,14.768h-1.11V23.355l1.888.666c1.258.444,1.814.7,1.814,2.739A2.759,2.759,0,0,1,15.915,29.61Z" transform="translate(32.971 25.569)" fill="#b28e4d"/>
      <path id="Vector-4" data-name="Vector" d="M20.172,1.74A2.9,2.9,0,0,0,18.654.222,2.655,2.655,0,0,0,17.581,0H2.776A2.8,2.8,0,0,0,0,2.776,2.8,2.8,0,0,0,2.776,5.552h8.106L4.7,11.733a39.258,39.258,0,0,1,3.923,3.923l6.181-6.181v8.143a2.776,2.776,0,1,0,5.552,0V2.813A2.2,2.2,0,0,0,20.172,1.74Z" transform="translate(64.979 4.59)" fill="#b28e4d"/>
    </g>
  </g>
</svg>
