<svg id="vuesax_bulk_refresh-left-square" data-name="vuesax/bulk/refresh-left-square" xmlns="http://www.w3.org/2000/svg" width="24" height="24" viewBox="0 0 24 24">
  <g id="refresh-left-square">
    <path id="Vector" d="M0,0H24V24H0Z" fill="none" opacity="0"/>
    <path id="Vector-2" data-name="Vector" d="M14.19,0H5.82C2.17,0,0,2.17,0,5.81v8.37c0,3.64,2.17,5.81,5.81,5.81h8.37c3.64,0,5.81-2.17,5.81-5.81V5.81C20,2.17,17.83,0,14.19,0Z" transform="translate(2 2)" fill="#4d3c1c" opacity="0.4"/>
    <path id="Vector-3" data-name="Vector" d="M5.76,1.534c-.14,0-.29.02-.43.03l.28-.32A.751.751,0,0,0,4.48.254L2.81,2.164c-.01.01-.01.02-.02.03s-.02.01-.02.02a1.173,1.173,0,0,0-.05.11.843.843,0,0,0-.06.14c-.01.05-.01.09-.02.14s-.01.09-.01.14a.371.371,0,0,0,.04.14.5.5,0,0,0,.05.13.938.938,0,0,0,.09.12c.03.03.04.07.07.09.01.01.02.01.03.02s.01.02.02.02l1.94,1.42a.72.72,0,0,0,.44.14.754.754,0,0,0,.45-1.36l-.56-.41a5.088,5.088,0,0,1,.56-.04A4.238,4.238,0,1,1,2.22,4.9a.75.75,0,0,0-1.25-.83,5.756,5.756,0,1,0,4.79-2.54Z" transform="translate(6.24 4.976)" fill="#4d3c1c"/>
  </g>
</svg>
