<svg xmlns="http://www.w3.org/2000/svg" width="76.021" height="70" viewBox="0 0 76.021 70">
  <g id="Group_57" data-name="Group 57" opacity="0.06">
    <g id="Group_28" data-name="Group 28" transform="translate(61.76)">
      <g id="Group_27" data-name="Group 27">
        <g id="Group_18" data-name="Group 18" transform="translate(0.001)">
          <g id="Group_17" data-name="Group 17">
            <g id="Group_16" data-name="Group 16">
              <g id="Group_15" data-name="Group 15">
                <circle id="Ellipse_7" data-name="Ellipse 7" cx="7.13" cy="7.13" r="7.13" fill="#1d1d1b"/>
              </g>
            </g>
          </g>
        </g>
        <g id="Group_22" data-name="Group 22" transform="translate(0 27.87)">
          <g id="Group_21" data-name="Group 21">
            <g id="Group_20" data-name="Group 20">
              <g id="Group_19" data-name="Group 19">
                <path id="Path_37" data-name="Path 37" d="M561.143,369.416a7.131,7.131,0,1,1,7.13-7.13A7.131,7.131,0,0,1,561.143,369.416Z" transform="translate(-554.011 -355.155)" fill="#1d1d1b"/>
              </g>
            </g>
          </g>
        </g>
        <g id="Group_26" data-name="Group 26" transform="translate(0 55.74)">
          <g id="Group_25" data-name="Group 25">
            <g id="Group_24" data-name="Group 24">
              <g id="Group_23" data-name="Group 23">
                <path id="Path_38" data-name="Path 38" d="M561.143,385.932a7.13,7.13,0,1,1,7.13-7.13A7.131,7.131,0,0,1,561.143,385.932Z" transform="translate(-554.011 -371.672)" fill="#1d1d1b"/>
              </g>
            </g>
          </g>
        </g>
      </g>
    </g>
    <g id="Group_42" data-name="Group 42" transform="translate(30.881 0)">
      <g id="Group_41" data-name="Group 41">
        <g id="Group_32" data-name="Group 32">
          <g id="Group_31" data-name="Group 31">
            <g id="Group_30" data-name="Group 30">
              <g id="Group_29" data-name="Group 29">
                <path id="Path_39" data-name="Path 39" d="M542.843,352.9a7.13,7.13,0,1,1,7.13-7.13A7.129,7.129,0,0,1,542.843,352.9Z" transform="translate(-535.713 -338.639)" fill="#1d1d1b"/>
              </g>
            </g>
          </g>
        </g>
        <g id="Group_36" data-name="Group 36" transform="translate(0 27.869)">
          <g id="Group_35" data-name="Group 35">
            <g id="Group_34" data-name="Group 34">
              <g id="Group_33" data-name="Group 33">
                <path id="Path_40" data-name="Path 40" d="M542.843,369.416a7.131,7.131,0,1,1,7.13-7.13A7.129,7.129,0,0,1,542.843,369.416Z" transform="translate(-535.713 -355.155)" fill="#1d1d1b"/>
              </g>
            </g>
          </g>
        </g>
        <g id="Group_40" data-name="Group 40" transform="translate(0 55.74)">
          <g id="Group_39" data-name="Group 39">
            <g id="Group_38" data-name="Group 38">
              <g id="Group_37" data-name="Group 37">
                <path id="Path_41" data-name="Path 41" d="M542.843,385.932a7.13,7.13,0,1,1,7.13-7.13A7.129,7.129,0,0,1,542.843,385.932Z" transform="translate(-535.713 -371.672)" fill="#1d1d1b"/>
              </g>
            </g>
          </g>
        </g>
      </g>
    </g>
    <g id="Group_56" data-name="Group 56" transform="translate(0 0)">
      <g id="Group_55" data-name="Group 55">
        <g id="Group_46" data-name="Group 46">
          <g id="Group_45" data-name="Group 45">
            <g id="Group_44" data-name="Group 44">
              <g id="Group_43" data-name="Group 43">
                <path id="Path_42" data-name="Path 42" d="M524.544,352.9a7.13,7.13,0,1,1,7.13-7.13A7.129,7.129,0,0,1,524.544,352.9Z" transform="translate(-517.414 -338.639)" fill="#1d1d1b"/>
              </g>
            </g>
          </g>
        </g>
        <g id="Group_50" data-name="Group 50" transform="translate(0 27.869)">
          <g id="Group_49" data-name="Group 49">
            <g id="Group_48" data-name="Group 48">
              <g id="Group_47" data-name="Group 47">
                <path id="Path_43" data-name="Path 43" d="M524.544,369.416a7.131,7.131,0,1,1,7.13-7.13A7.129,7.129,0,0,1,524.544,369.416Z" transform="translate(-517.414 -355.155)" fill="#1d1d1b"/>
              </g>
            </g>
          </g>
        </g>
        <g id="Group_54" data-name="Group 54" transform="translate(0 55.74)">
          <g id="Group_53" data-name="Group 53">
            <g id="Group_52" data-name="Group 52">
              <g id="Group_51" data-name="Group 51">
                <path id="Path_44" data-name="Path 44" d="M524.544,385.932a7.13,7.13,0,1,1,7.13-7.13A7.129,7.129,0,0,1,524.544,385.932Z" transform="translate(-517.414 -371.672)" fill="#1d1d1b"/>
              </g>
            </g>
          </g>
        </g>
      </g>
    </g>
  </g>
</svg>
