<svg xmlns="http://www.w3.org/2000/svg" width="90" height="90" viewBox="0 0 90 90">
  <g id="Group_56" data-name="Group 56" transform="translate(-1206 -844)">
    <g id="eye_security_bulk" data-name="eye/security/bulk" transform="translate(1206 844)">
      <g id="vuesax_bulk_security" data-name="vuesax/bulk/security">
        <g id="security">
          <path id="Vector" d="M0,0H90V90H0Z" transform="translate(90 90) rotate(180)" fill="none" opacity="0"/>
          <path id="Vector-2" data-name="Vector" d="M57.188,13.762,13.163,57.787a3.78,3.78,0,0,1-5.775-.525A41.017,41.017,0,0,1,0,34.2V17.737a9.04,9.04,0,0,1,5.175-7.725l20.888-8.55a19.2,19.2,0,0,1,14.7,0L55.913,7.65A3.745,3.745,0,0,1,57.188,13.762Z" transform="translate(11.55 7.5)" fill="#b28e4d" opacity="0.4"/>
          <path id="Vector-3" data-name="Vector" d="M45.207.888a3.744,3.744,0,0,1,6.15,2.887V16.188c0,18.338-13.312,35.512-31.5,40.537a7.493,7.493,0,0,1-3.862,0A42.373,42.373,0,0,1,1.482,49.413a3.769,3.769,0,0,1-.412-5.625C9.244,35.426,33.169,11.051,45.207.888Z" transform="translate(27.056 25.512)" fill="#b28e4d"/>
        </g>
      </g>
    </g>
  </g>
</svg>
