<svg xmlns="http://www.w3.org/2000/svg" width="60" height="60" viewBox="0 0 60 60">
  <g id="steering-wheel" transform="translate(-0.001)">
    <path id="Path_399" data-name="Path 399" d="M51.214,8.787A30,30,0,0,0,8.788,51.213,30,30,0,1,0,51.214,8.787ZM30,9.289a20.67,20.67,0,0,1,16.078,7.656H13.923A20.669,20.669,0,0,1,30,9.289ZM23.936,49.808A20.756,20.756,0,0,1,10.193,36.065h4.2a9.551,9.551,0,0,1,9.539,9.54v4.2ZM30,35.523A5.523,5.523,0,1,1,35.524,30,5.53,5.53,0,0,1,30,35.523Zm6.065,14.284V45.6a9.551,9.551,0,0,1,9.539-9.54h4.2A20.755,20.755,0,0,1,36.066,49.808Z" fill="#4d3c1c"/>
    <path id="Path_400" data-name="Path 400" d="M240.874,238.866a2.008,2.008,0,1,0,2.008,2.008A2.01,2.01,0,0,0,240.874,238.866Z" transform="translate(-210.873 -210.874)" fill="#4d3c1c" opacity="0.4"/>
  </g>
</svg>
