<svg id="g" xmlns="http://www.w3.org/2000/svg" width="38.894" height="60" viewBox="0 0 38.894 60">
  <rect id="Rectangle_30" data-name="Rectangle 30" width="9.118" height="25.813" rx="4.559" transform="translate(14.888 34.187)" fill="#fff" opacity="0.4"/>
  <path id="Path_397" data-name="Path 397" d="M127.675,5.109h-5.782a2.78,2.78,0,0,0-2.476-1.526h-2.68a2.821,2.821,0,0,1-2.227-1.12,6.319,6.319,0,0,0-10.026,0,2.819,2.819,0,0,1-2.227,1.12h-2.68A2.78,2.78,0,0,0,97.1,5.109H91.319a1.279,1.279,0,0,0,0,2.557H97.1a2.78,2.78,0,0,0,2.476,1.526h2.68a2.821,2.821,0,0,1,2.227,1.12,6.319,6.319,0,0,0,10.026,0,2.819,2.819,0,0,1,2.227-1.12h2.68a2.78,2.78,0,0,0,2.476-1.526h5.782a1.279,1.279,0,0,0,0-2.557ZM109.5,9.931a3.569,3.569,0,1,1,3.543-3.569A3.555,3.555,0,0,1,109.5,9.931Z" transform="translate(-90.05 0.01)" fill="#fff"/>
  <path id="Path_398" data-name="Path 398" d="M154.846,126.686a9.25,9.25,0,0,0-6.554-6.877,40.437,40.437,0,0,0-15.906,0,9.249,9.249,0,0,0-6.554,6.877,72.332,72.332,0,0,0,0,21.58,9.249,9.249,0,0,0,6.554,6.877q.64.135,1.391.263V144.158a6.561,6.561,0,1,1,13.122,0v11.248q.749-.128,1.391-.263a9.249,9.249,0,0,0,6.554-6.877,72.336,72.336,0,0,0,0-21.58Zm-21.9,5.347a1.269,1.269,0,0,1-.9.943,5.252,5.252,0,0,1-1.091.109,5.18,5.18,0,0,1-1.091-.109,1.271,1.271,0,0,1-.9-.943,23.622,23.622,0,0,1-.111-2.787,23.329,23.329,0,0,1,.111-2.787,1.269,1.269,0,0,1,.9-.943,5.251,5.251,0,0,1,1.091-.109,5.179,5.179,0,0,1,1.091.109,1.271,1.271,0,0,1,.9.943,24.816,24.816,0,0,1,.111,2.787A23.323,23.323,0,0,1,132.944,132.033Zm18.769,0a1.269,1.269,0,0,1-.9.943,5.252,5.252,0,0,1-1.091.109,5.18,5.18,0,0,1-1.091-.109,1.271,1.271,0,0,1-.9-.943,23.625,23.625,0,0,1-.111-2.787,23.339,23.339,0,0,1,.111-2.787,1.269,1.269,0,0,1,.9-.943,5.25,5.25,0,0,1,1.091-.109,5.178,5.178,0,0,1,1.091.109,1.271,1.271,0,0,1,.9.943,24.816,24.816,0,0,1,.111,2.787A23.323,23.323,0,0,1,151.713,132.033Z" transform="translate(-120.892 -105.228)" fill="#fff"/>
</svg>
